<svg xmlns="http://www.w3.org/2000/svg" viewBox="0 0 655.21 426.71"><defs><style>.cls-1{fill:#6f7c92;}.cls-2{fill:#1b1b1b;}.cls-3{fill:#acb9ce;}.cls-4{fill:#96a6c1;}.cls-5{fill:#fff;}</style></defs><title>资源 120</title><g id="图层_2" data-name="图层 2"><g id="图层_1-2" data-name="图层 1"><path class="cls-1" d="M635.07,18.91a22.76,22.76,0,0,0-8.94-5.53c-8-2.61-18.42-1.63-26.71-2.82-12.86-1.84-25.75-3.23-38.66-4.25-26.49-2.09-53-2.62-79.58-2.22-42.32-.18-84.48,5.44-126.71,5.29C266,9.08,178.41,8.12,90.14,9.46c-21.69.6-44.43-2.2-65.2,7.49A32.27,32.27,0,0,0,8.23,35.37a56.24,56.24,0,0,0-2,7.54C1.16,68.08,3.56,94.76,3.56,120.52l0,165.68c0,21.36.15,43.08-.21,64.38-.32,18.5-.48,36.71,5.79,54.18,1.48,4.13,3.39,8.21,6.34,10.82a20.47,20.47,0,0,0,7.63,3.86c12.25,3.94,22.37,3.18,34.53,2.67,14.07-.59,28.76,1.5,42.91,1.74,30.82.51,61.64-.14,92.46-.16,142.55-.11,246.93-4.59,388.8-5.25,11.75-.05,23.71.21,35.28-2.79a55.26,55.26,0,0,0,17.59-7.8c3.67-2.52,8.72-12.31,11.75-13.05-.69-2.51.66-5.07,1.62-7.44,6.1-15.13,3.67-33.45,4.22-49.59.66-19.28-2.56-38.61-2.56-57.93l0-148.36C649.72,105.18,656.51,40,635.07,18.91Z"/><path class="cls-2" d="M346.13,11.54l-5.24-.19A36.34,36.34,0,0,0,346.13,11.54Z"/><path class="cls-2" d="M610.33,414.77l1.18-.25C610.67,414.68,610.41,414.74,610.33,414.77Z"/><path class="cls-2" d="M142.26,5.22h.28l1.36-.05Z"/><path class="cls-2" d="M409.57,4c-17.5,1.07-31.76,1.69-44.44,1.8-6.33.07-12.27,0-18.09-.09l-17-.22C307.48,5.23,284.64,5,248.25,5c-34.72-.21-71.77-.07-105.71.24-8.05.37-19.2.45-30.71.58L94.6,6,79,6.39,71.57,6c-6.6.15-14.42.4-21.2.92l.42-.15a117.33,117.33,0,0,0-15,2.76l-3.33,1c-1.07.3-2,.7-3,1a45.38,45.38,0,0,0-4.56,1.88l.35-.27a35,35,0,0,0-5.75,3,35.77,35.77,0,0,0-5.17,4c.51-.56,1-1.09,1.6-1.6A36.31,36.31,0,0,0,7.15,29.62a36.75,36.75,0,0,0-2.61,6.56C3.9,38.41,3.43,40.58,3,42.71a187.46,187.46,0,0,0-3,24.82l.5-1.28C0,74.64,0,81.69,0,88s.27,11.89.43,17.34S.74,116.13.74,122s-.06,12.25-.2,19.75l-.11-.41c1.14,37.89-.79,59.9.29,99C.59,235.41.5,242.37.39,242c.12,18,.18,37.2,1,37.48,0,13.11-.29,10.67-.62,12.38.19,0,.31,2.79.39,6.9s.1,9.52.1,14.63l-.13-4.71L1.2,338l.73-5.75c-.26,15.54-.87,3.94-.76,18.83l.59-.18c-.25,10.76-.51,19.35-.11,27.92a117.47,117.47,0,0,0,1.29,13.07,85.47,85.47,0,0,0,3.52,14.36,36.82,36.82,0,0,0,3.85,8,19.33,19.33,0,0,0,3.14,3.67,18.06,18.06,0,0,0,4.08,2.7,47.26,47.26,0,0,0,8.32,2.85A64.76,64.76,0,0,0,34.31,425a104.34,104.34,0,0,0,17,.39c2.77-.1,5.57-.28,8.24-.35s5.41-.08,8.13,0c10.9.28,22,1.5,33.25,1.61,11.11.12,22.21.1,33.25,0,22.09-.19,43.94-.56,65.33-.54h62.46l3.56.41c1.56.65,22.21-1.22,25.28-.66l9.36-.43c2.63.08,8.19.11,3.52.33,8.66-.11,8.87-.21,15.11-.5l9.3.24c34.18-.27,63.21-1.65,99.16-2.19,21.6,0,52.71-.57,84.28-1.12l46.56-.79,21.41-.32c6.77-.11,13.19-.09,19.14-.44,8.77-.53,17.95-1.81,26.64-5.31a56.63,56.63,0,0,0,6.38-3q1.55-.86,3.05-1.82l.74-.49a9.49,9.49,0,0,0,.79-.56,13.38,13.38,0,0,0,1.54-1.38,61.17,61.17,0,0,0,4.46-5.59c.68-.92,1.36-1.83,2-2.69.34-.43.69-.85,1-1.23.17-.21.34-.37.52-.55l.26-.27c.06-.09.11-.17.17-.26l.11,0,.07-.06s.09-.08.13-.12l.11-.35a2.16,2.16,0,0,1,.35-.49c.12-.15.25-.32.37-.45l.34-.35c.14-.09.16-.26.21-.42a5.31,5.31,0,0,1,.15-.51c.11-.35.28-.77.46-1.2v-.42l0-.2c0-.13,0-.28.07-.42a8.63,8.63,0,0,1,.24-.9c.2-.63.47-1.29.78-2s.64-1.5.92-2.28.6-1.56.85-2.35a63.29,63.29,0,0,0,2.28-9.68,131.56,131.56,0,0,0,1.22-19.57c0-6.5-.09-12.84.21-19.24.24-6.57,0-13.1-.31-19.56-.71-12.94-2-25.59-1.91-38,0-12.61-.08-25-.27-37.18,0-1.1,0-3.06,0-4.75l-.08-2.18a5.71,5.71,0,0,0-.07-.9l.1-61.7s0-18.68,0-43.16c.2-12.13.91-25.89.84-39.49s-.75-27.13-2.81-38.75a96.41,96.41,0,0,0-4-15.69,49.93,49.93,0,0,0-5.44-11.12,25.59,25.59,0,0,0-4.72-5.46c-1-.9-1.35-.91-.78-.12.28.43.76,1.11,1.47,2,.38.44.69,1,1.11,1.66a21.4,21.4,0,0,1,1.3,2.15A58.41,58.41,0,0,1,645,38.68a135.49,135.49,0,0,1,3.45,25.08,355.27,355.27,0,0,1-.17,36.46l-.1-1.52c-.26,8.41-.65,16-.91,23.17-.13,3.56-.23,7-.24,10.35s0,6.5,0,9.61c0,12.45.18,23.58.53,35.23-.86,3.68-.09,27.74-.37,35.65l-.07-.75c.66,20.6-.56,42.43,0,62.29a31.78,31.78,0,0,1-.32-5.76c0,3.62.06,7.57.08,11.47s.19,7.87.36,11.34c.37,6.94.72,12.15.5,12.71.55,7.06,1.19,14.65,1.44,22.41.12,3.89.13,7.79,0,11.75s-.06,8.16,0,12.15c.13,8,.21,15.73-.66,22.81a56.82,56.82,0,0,1-2,10c-.2.79-.52,1.51-.76,2.26s-.52,1.45-.84,2.22-.64,1.61-.91,2.52a13.12,13.12,0,0,0-.34,1.44c0,.26-.09.5-.11.77l0,.39v.15a1.81,1.81,0,0,0,0,.32,1.1,1.1,0,0,0,0,.15c0,.05,0,.1,0,.11a1.41,1.41,0,0,0-.49.35,19.57,19.57,0,0,0-2.37,2.66c-.65.84-1.22,1.64-1.76,2.42-1.08,1.54-2,2.95-2.92,4.17l.78-1.24a31.46,31.46,0,0,1-2.46,3.22l-.56.57c-.18.14-.32.28-.53.44-.49.34-1,.67-1.43,1a42.13,42.13,0,0,1-5.5,3,57.68,57.68,0,0,1-6.13,2.38,74.93,74.93,0,0,1-8.36,2.21c-.75.07-1.71.2-1.56.15a81.74,81.74,0,0,1-11.9,1.42c-4.51.26-9.42.26-14.27.26-9.71,0-19.08,0-24.63.19l-.72-.33-27.38.33,10.23,0c-3.54.94-20.71-.37-40.56.5-18.58.16-37.64,2.49-56.94,2.41-9.19.6,8.09-.85-5.65-.26-.46-.47,6.42-.42,2.87-.74-13.5.48-22.15-.07-38.8.58l-.69-.36c-21.71,1.11-41,.31-55.44,1.23-22.39.7-15-.83-38.35.27l-9.07-.37c-10,.07-7.14.72-18.21.62.67-.33-14-.08-7.51-.46-25.05-.22-50.83,1.19-83.83.39-7.18.62-23.8.38-29.14.89-.89-.25-33.27.18-14.64-.52a30,30,0,0,1,4.24,0l2.23-.38c-18.8-.57-34.18.6-52.72.17,5.47.23,12.82.26,7.91.46-2.87,0-5.78-.08-8.6-.16s-5.68-.24-8.54-.42l3.58-.11c-8.48-.48-17.05-1.37-25.79-1.7l3.59.52c-6.36-.39-10.78-.59-15.32-.5s-9.1.37-15.93.4c-3.09,0-.25.3,1.81.45,1,.08,1.86.12,1.61.17a38.43,38.43,0,0,1-4.78-.05,61.08,61.08,0,0,1-13.17-2.44c-1.14-.36-2.35-.73-3.48-1.17a18.89,18.89,0,0,1-3.1-1.46,10.8,10.8,0,0,1-2.45-2,16.06,16.06,0,0,1-2-2.81,38,38,0,0,1-3-7.17l-.63-1.94-.55-2c-.39-1.31-.68-2.64-1-4a112.09,112.09,0,0,1-2.34-16c-.25,2-.8-3.64-1-9.52l.35-.69c-.26-5.62-.21-9-.16-11.18a41.79,41.79,0,0,1,.32-4.27c.27-2.06.49-4.11.33-15.46l.25,2-.76-6c-.67-20.48.81-11-.12-33.79,0,9-.84,4.23-.64-6.84l.35,2.81c-.06-6.13-.19-8.17-.12-12.25.19,3.65.52,1.93.46-7.07l.45,6-.66-17c.39-13.14-.09-34,.42-39.36,0,0,.25-28.25-.3-34.73.35,5.68.48-9.9.88-5.46-.39-7.32-.71-28.94-.29-37.6l0,1.64c.11-8,.13-15.43.1-22.51S7.07,113.6,6.85,107c-.39-13.29-1-26.11,0-40.23-.24.63-.12-2.78.08-5.88s.45-5.9,0-4.1c.34-3.64.78-7.19,1.41-10.6a61.25,61.25,0,0,1,2.29-9.62A29.44,29.44,0,0,1,20.38,23.1a30.16,30.16,0,0,1,6.19-3.68l3.16-1.36,3-1.12c.95-.39,1.89-.66,2.78-1s1.72-.63,2.54-.86c1.63-.48,3-1,4.31-1.45,1.62-.31,3.08-.59,4.42-.74s2.53-.35,3.63-.42l3-.23,2.54-.08c3.14-.08,5.49,0,8.94,0l-3.18.16,51.45-.57c9.38-.27,10.85-1.08,27.68-1-5.44.35,1.44.25,7.73.22-4,.07-5.27.19,3,.36,1.16-.1,3-.17,4.64-.23.07,0,.4,0,.23.08,10.51-.15,8.68-.24,3.8-.27.25,0-.17-.11-1.67-.19,10.9.36,30.4-.09,31.71.45,31.59-.12,54.18-.58,80.47-.67,3,.29-3.19.51-10.83.59h18.65c-.16.4-10.72.18-16.46.23,22.21.75,45.79-.41,71.83.3l5.4-.29,1.55.06a19.14,19.14,0,0,1,3.34-.26c1.93-.08,4.36-.14,6.29-.16,3.69.35-.28.86,12.67.75,10.25.25,29.05-1.11,42.37-2.18-7.19.38-4.89,0-1.8-.27,6.44-.41,10.17-.3,15.13-.77l.65.43C417,8.6,436.3,7.33,438.66,7c3.68.13-10,.88-11.55,1.26,12.89-.83,16.11-1,19.33-1.15l6-.29c2.82-.14,6.84-.3,13.28-.49,13.74-.62-2.51-.4,4.06-.94,12.15-.19,24.05-.75,38-.3l-4.42-.46a469.15,469.15,0,0,1,51.88,2.06c10.63.54,20.06,1.25,28.4,2q6.26.57,11.71,1.18c1.82.19,3.58.42,5.27.58s3.32.22,4.9.26c6.3.13,11.67,0,16.2.67a30.92,30.92,0,0,1,6.11,1.4,24.09,24.09,0,0,1,4.61,2.2,28.23,28.23,0,0,1,3.19,2.28L637.73,19a9.93,9.93,0,0,0,2,1.42c.48.14-.62-1.24-2.68-3.53a24.62,24.62,0,0,0-11.78-7.2C620,8.27,614.42,8,609.47,7.7c-2.48-.14-4.81-.28-6.87-.5-1-.11-2-.24-2.89-.38L597,6.41l-5.43-.78c-16.72-2.37-31.52-3.67-45.5-4.5S518.89,0,505.32,0c-6.78,0-13.68.09-20.79.24-3.53.1-7.17.13-10.88.18s-7.53.18-11.42.36C446.62,1.38,429.48,2.66,409.57,4Z"/><path class="cls-3" d="M629.39,53.64a23.31,23.31,0,0,0-8.76-4.54c-7.81-2.15-18.05-1.34-26.17-2.31q-18.9-2.27-37.89-3.49c-26-1.72-52-2.15-78-1.81-41.47-.14-82.79,4.48-124.17,4.37-86.69-.24-172.52-1-259,.1-21.26.5-43.54-1.8-63.9,6.16-7,2.73-13.35,8-16.38,15.14a40.35,40.35,0,0,0-1.92,6.2c-5,20.69-2.66,42.61-2.67,63.78l-.05,136.15c0,17.55.14,35.4-.22,52.9-.31,15.2-.48,30.17,5.67,44.53,1.45,3.4,3.32,6.75,6.21,8.89a21.73,21.73,0,0,0,7.48,3.17c12,3.24,21.92,2.61,33.83,2.19,13.78-.49,28.18,1.23,42,1.42,30.2.42,60.4-.12,90.61-.15,139.69-.11,242-3.81,381-4.37,11.52,0,23.24.17,34.57-2.3a59.84,59.84,0,0,0,17.24-6.41c3.6-2.07,8.55-10.11,11.52-10.73-.67-2.06.65-4.17,1.59-6.11,6-12.43,3.6-27.49,4.14-40.76.65-15.84-2.5-31.73-2.49-47.6l0-121.92C643.73,124.53,650.4,71,629.39,53.64Z"/><path class="cls-4" d="M233.3,411.32a.4.4,0,0,1-.13.31.43.43,0,0,1-.3.12h-5.08q-.46,0-.46-.43l-.41-13.62q0-.43.46-.43l2.73-.08a.43.43,0,0,1,.3.12.5.5,0,0,1,.16.28l.29,10.36q0,.43.46.43h1.54a.43.43,0,0,1,.3.12.37.37,0,0,1,.13.28Z"/><path class="cls-4" d="M247.17,397.64a.42.42,0,0,1,.41-.46l3.72-.38a.39.39,0,0,1,.32.09.48.48,0,0,1,.17.28l.38,3.37a.34.34,0,0,1-.09.3.49.49,0,0,1-.32.16l-3.69.35a.39.39,0,0,1-.49-.38Zm5.6,13.22a.33.33,0,0,1-.1.31.56.56,0,0,1-.3.15l-3.63.3a.39.39,0,0,1-.49-.38l-.78-8.13a.34.34,0,0,1,.09-.3.49.49,0,0,1,.32-.16l3.63-.3a.39.39,0,0,1,.32.09.48.48,0,0,1,.17.28Z"/><path class="cls-4" d="M277.66,409.57c-.1-.09-.18-.12-.25-.08a.28.28,0,0,0-.13.21l-.12,1.08a.36.36,0,0,1-.14.28.43.43,0,0,1-.35.09l-8-.67a.49.49,0,0,1-.35-.13.53.53,0,0,1-.17-.3l-2-12.14a.34.34,0,0,1,.09-.3.62.62,0,0,1,.29-.19l2.7-.38c.31,0,.48.08.52.35l1.6,9.5a.54.54,0,0,0,.17.32.49.49,0,0,0,.35.13l4.21.35a.41.41,0,0,0,.32-.08.35.35,0,0,0,.15-.3l.32-9.72a.5.5,0,0,1,.16-.28.43.43,0,0,1,.3-.12l1.83.05a.4.4,0,0,1,.32.13.44.44,0,0,1,.12.3l-.32,9.34a1,1,0,0,0,.35.7l2.24,1.83a.54.54,0,0,1,.17.31.33.33,0,0,1-.12.31l-1.19,1.27a.52.52,0,0,1-.32.15.41.41,0,0,1-.32-.12Z"/><path class="cls-4" d="M302.22,411.32a.4.4,0,0,1-.13.31.43.43,0,0,1-.3.12H296.7q-.46,0-.46-.43l-.41-13.62q0-.43.46-.43l2.73-.08a.43.43,0,0,1,.3.12.5.5,0,0,1,.16.28l.29,10.36q0,.43.46.43h1.54a.43.43,0,0,1,.3.12.37.37,0,0,1,.13.28Z"/><path class="cls-4" d="M316.1,397.64a.42.42,0,0,1,.41-.46l3.72-.38a.39.39,0,0,1,.32.09.48.48,0,0,1,.17.28l.38,3.37a.34.34,0,0,1-.09.3.49.49,0,0,1-.32.16l-3.69.35a.39.39,0,0,1-.49-.38Zm5.6,13.22a.33.33,0,0,1-.1.31.56.56,0,0,1-.3.15l-3.63.3a.39.39,0,0,1-.49-.38l-.78-8.13a.34.34,0,0,1,.09-.3.49.49,0,0,1,.32-.16l3.63-.3a.39.39,0,0,1,.32.09.48.48,0,0,1,.17.28Z"/><path class="cls-4" d="M342.37,408.36a.39.39,0,0,0,.49-.38l.15-1.86q0-.4-.44-.4l-6.53.46a.44.44,0,0,1-.49-.4L335,400a.5.5,0,0,1,.09-.35,1,1,0,0,1,.26-.3l4.21-2.45a1.25,1.25,0,0,1,.39-.12.94.94,0,0,1,.42,0l5.08,1.18a.39.39,0,0,1,.32.51l-.44,1.64a.48.48,0,0,1-.22.26.4.4,0,0,1-.33,0l-3.95-.92a.93.93,0,0,0-.42,0,1.25,1.25,0,0,0-.39.12l-1.8,1.05a.77.77,0,0,0-.28.3.53.53,0,0,0-.07.35l.17,1.8a.5.5,0,0,0,.16.28.39.39,0,0,0,.33.09l7-.46a.39.39,0,0,1,.33.09.3.3,0,0,1,.1.28l-.55,7.46a.39.39,0,0,1-.49.38L336,410.13a.53.53,0,0,1-.3-.16.27.27,0,0,1-.07-.3l.23-1.7a.44.44,0,0,1,.49-.35Z"/><path class="cls-4" d="M363.42,411.24a.44.44,0,0,1-.17.3.41.41,0,0,1-.32.08l-3.63-.38a.46.46,0,0,1-.29-.16.34.34,0,0,1-.09-.3l1.63-13.62q.06-.43.52-.38l3.6.38a.49.49,0,0,1,.32.16.34.34,0,0,1,.09.3l-.49,4a.29.29,0,0,0,.1.28.43.43,0,0,0,.3.12h8.22a.43.43,0,0,1,.3.12.33.33,0,0,1,.1.31l-1,8.67a.44.44,0,0,1-.17.3.42.42,0,0,1-.32.08l-1.83-.16a.47.47,0,0,1-.29-.16.38.38,0,0,1-.09-.32l.67-5.87c0-.29-.1-.43-.41-.43H364.7a.46.46,0,0,0-.52.43Z"/><path class="cls-4" d="M398.08,409.57c-.1-.09-.18-.12-.25-.08a.28.28,0,0,0-.13.21l-.12,1.08a.36.36,0,0,1-.15.28.43.43,0,0,1-.35.09l-8-.67a.49.49,0,0,1-.35-.13.52.52,0,0,1-.17-.3l-2-12.14a.34.34,0,0,1,.09-.3.62.62,0,0,1,.29-.19l2.7-.38c.31,0,.48.08.52.35l1.6,9.5a.54.54,0,0,0,.17.32.49.49,0,0,0,.35.13l4.21.35a.41.41,0,0,0,.32-.08.35.35,0,0,0,.15-.3l.32-9.72a.49.49,0,0,1,.16-.28.43.43,0,0,1,.3-.12l1.83.05a.4.4,0,0,1,.32.13.44.44,0,0,1,.12.3l-.32,9.34a.86.86,0,0,0,.1.39.85.85,0,0,0,.25.31l2.24,1.83a.54.54,0,0,1,.17.31.33.33,0,0,1-.12.31l-1.19,1.27a.52.52,0,0,1-.32.15.41.41,0,0,1-.32-.12Z"/><path class="cls-4" d="M427.09,409.62a.74.74,0,0,1-.2.3.6.6,0,0,1-.32.16l-9.61.78a.39.39,0,0,1-.32-.09.36.36,0,0,1-.15-.28l-.7-9q-.06-.4.41-.46l11.84-.62a.41.41,0,0,1,.29.11.32.32,0,0,1,.09.3Zm-1.83-6.11a.31.31,0,0,0-.09-.3.41.41,0,0,0-.29-.11l-5.75.32a.44.44,0,0,0-.33.13.33.33,0,0,0-.1.3l.32,3.88a.36.36,0,0,0,.14.28.39.39,0,0,0,.32.09l4.67-.38a.62.62,0,0,0,.35-.16.53.53,0,0,0,.17-.3Z"/><path class="cls-2" d="M26.59,398.11l-.11.16C26.55,398.23,26.6,398.17,26.59,398.11Z"/><path class="cls-2" d="M48.89,405.34l0,0A.06.06,0,0,0,48.89,405.34Z"/><path class="cls-2" d="M24.76,405.12h0Z"/><path class="cls-2" d="M21.13,399.15c.25.91.3,1.54.44,2.17a3.41,3.41,0,0,0,1.12,1.9,7.86,7.86,0,0,0,2.07,1.89c.72-.2.91.76,1.61.61l-.06.4c.24-.05.46,0,.49.21l-.07.08c.35-.09.49.19.67.14l-.06.08.28.11-.12.1a1.42,1.42,0,0,1,1.16.45l.17-.4c.49.8,1.13.1,1.53.9l0,.09c1.23-.74,1,1.25,2.24.5-.15.1,0,.23-.06.33.43,0,.86.06,1.1-.76.27.09.15.32.1.65a.51.51,0,0,1,.6-.41l-.14.11.65,0,0-.72c.27.28-.12.86.23.77l.13-.57c.42.21.49,1.14.85,1.65,1.83.62,4-.59,5.53.6l0,.45c0,.64.56-.91.57-.31l.22-.27c0,.12.15.25,0,.39.18,0,.2-.06.34-.25l.17.41c.71.36,1.38-.37,2.13-.18.89.86,2.66.14,3.63-.33,1.33-1,3.1,1.49,4.47.26.05.09.16-.13.15-.2l1.31,0a5,5,0,0,0,2.47-.89c.9-.76.94-2-1.66-4.34v-.14c-.7-.24-1.11-.27-1.48.48-.17-.85-.55,0-.73-.29v-.07c-.34.7-.87-.47-1.2.15,0-.07,0-.31.09-.33-.27.13-.64.35-.69-.15-.66.18-1.59,0-2,.8l0-.14c-.23.55-.31.09-.58.37a.64.64,0,0,1,0-.13c-.26.54-.78.09-1,.33l0-.33-.53.07.2.07c-.07.92-.4-.58-.79,0-.35-.12-.79,1.89-1.17,1.43-.2.42.19-.69-.1-.37,0-.48.14-.3.08-.68-.28.22-.41-.51-.75-.2v-.37c-.46.66-.77-.54-1.09.09-.46.27-.21-1.12-.72-.43l-.13-.52c-.18-.1-.19.6-.38.34,0-.32-.25-.28-.09-.57-.42-.54-1.05.6-1.58-.31-.21.6-.48.19-.65.64,0-.27-.63-.13-.19-.66,0,0,.09,0,.07.08l.09-.36c-.26-.73-.7.28-1,.12.09.14.23.13.1.36l-.32-.1.12-.29-.45-.26v.39c-.2-.24-.17-.89-.53-.4-.17.28.13.55-.14.62a4.55,4.55,0,0,0-1-1c-.05.43-.16.39-.28.45l.07-.37c-.52.41,0-.83-.46-.53l.1-.24-.29.73c-.55.63,0-.79-.65.07.17,0-.14.82-.3.6l.15-.33c-.13,0-.21.18-.26.09.12-.17.17-.49,0-.48l.23-.4-.48.55c-.12-.43-.62-.09-.55-.6a.41.41,0,0,0-.68.09c.21-.29,0-.51.22-.86-.25.33-.72.48-.69,0l0,0c-.31-.59-1.08.16-1.27-.52-.18.39-.29.07-.5.58-.74.22-.19-1.41-1.26-.07-.25-.05,0-.48-.05-.62l.09,0a1.31,1.31,0,0,1-.74-.41c-.22,0-.76.63-.85.29.28-.17.15-.21.07-.28.08,0,.18-.06.22-.31a.64.64,0,0,1-.2.1l.05-.06c-.21,0-.25.05-.22.14a.53.53,0,0,0-.11.16c.15-.42-.39-.35,0-.74-.44-.29-1.12-.22-1.57-.48a.71.71,0,0,1,.62-.23c-.1-.06-.18-.13-.26-.19.33-.23.29,0,.41,0,.32-.65-1-.26-.69-.95l-.32.08,0,0a.72.72,0,0,1-.47.07c.28-.22.72-.37.6-.55.23-.29-.34-.34-.61-.47,0,.13-.21.17-.34.17s.26-.28.09-.31l.44-.17c-.4.2-.55-.09-.74-.07.31-.17.34.06.6,0-.18-.37-.08-.19-.25-.57-.4-.13-.42.15-.85.15-.13-.18-.51-.33-.27-.63l-.4.15c-.38-.37-.37-.67,0-1a26.72,26.72,0,0,0-2.09-1.71A2,2,0,0,0,20.8,393a1.73,1.73,0,0,0-.89.69,1.92,1.92,0,0,0-.28.53,2.69,2.69,0,0,0,0,2.56C20,397.54,20.58,398.23,21.13,399.15Z"/><path class="cls-2" d="M69.76,403.2l.06.17C69.82,403.3,69.8,403.23,69.76,403.2Z"/><path class="cls-2" d="M85.36,403.14v0A.07.07,0,0,0,85.36,403.14Z"/><path class="cls-2" d="M72.15,409.08h0l0,0Z"/><path class="cls-2" d="M69,408.61c.82.21,1,1,1.9.69a3.27,3.27,0,0,0,1.24-.22c.19-.63.52,0,.75-.54l.09.36c.08-.18.17-.3.25-.11v.1c.12-.27.25-.11.3-.25v.11l.14,0,0,.15c.2-.29.41-.31.59-.18l0-.44c.39.49.53-.42.89.16v.11c.45-1.15.7.78,1.16-.31-.06.14,0,.22,0,.33.21-.12.44-.19.44-1,.15,0,.13.27.15.6,0-.37.13-.53.25-.55l-.06.14.34-.13-.07-.71c.18.2,0,.86.22.69V407c.25.12.4,1,.65,1.44,1,.25,2.11-1.24,3.06-.21l0,.44c0,.64.26-1,.3-.36l.11-.29a.57.57,0,0,1,0,.38c.1,0,.1-.08.18-.27l.11.4c.4.31.74-.46,1.17-.3.51.82,1.46.07,2-.37.77-1,1.67,1.6,2.47.5,0,.09.09-.11.09-.19l.73.09s3.52.25.84-5.08l0-.14c-.4-.34-.65-.42-.92.29,0-.86-.33-.09-.42-.37v-.07c-.24.67-.5-.55-.73,0,0-.07,0-.31.07-.32-.17.11-.4.3-.42-.2-.41.13-1-.1-1.23.7l0-.14c-.15.54-.19.08-.36.36a1,1,0,0,1,0-.13c-.16.54-.47.08-.6.31v-.33l-.32.08.12.07c0,.92-.24-.58-.48,0-.22-.12-.44,1.91-.67,1.46-.11.43.1-.7-.07-.37,0-.48.08-.3,0-.68-.16.23-.26-.49-.46-.17v-.37c-.26.68-.48-.49-.65.16-.26.31-.18-1.11-.45-.38l-.11-.5c-.12-.08-.08.62-.21.37s-.16-.25-.09-.56c-.29-.5-.6.71-1-.13-.08.62-.28.25-.34.72,0-.27-.39,0-.17-.63,0,0,.05,0,0,.07l0-.37c-.22-.69-.4.38-.62.27.06.12.15.09.09.34l-.2,0,0-.31L79,402l0,.38c-.15-.2-.2-.85-.37-.3-.08.3.14.51,0,.63a2.73,2.73,0,0,0-.75-.77c0,.43,0,.41-.11.5v-.37c-.27.52-.1-.82-.36-.41l0-.26-.07.78c-.24.74-.13-.77-.4.24.11-.06,0,.82-.08.66l0-.36c-.07.08-.1.23-.14.15s0-.52-.08-.46l.07-.45-.2.66c-.15-.39-.4.1-.46-.41,0,0-.33-.25-.41.31.07-.35-.12-.48-.06-.88-.09.39-.34.71-.44.29l0,0c-.38-.43-.64.58-1,.07,0,.43-.16.2-.12.75-.35.55-.64-1.13-.76.59-.16.09-.19-.4-.27-.49l0-.09a.8.8,0,0,1-.6.12c-.11.17-.13,1-.33.77.06-.32,0-.26-.09-.26s.06-.17,0-.38a.82.82,0,0,1-.05.21.74.74,0,0,1,0-.08c-.12.11-.1.21,0,.25a.79.79,0,0,0,0,.2c-.13-.41-.36,0-.37-.52-.37.13-.64.69-.95.9a.91.91,0,0,1,.13-.64l-.22.1c0-.4.13-.23.19-.31-.26-.65-.54.65-.84.05l-.06.32,0-.05a1,1,0,0,1-.11.45c0-.35,0-.81-.15-.79-.12-.34-.34.17-.5.36.08.06.06.25,0,.38s-.12-.34-.18-.19v-.47c0,.45-.2.48-.23.67,0-.35.12-.3.14-.57l-.46.07c-.16.36,0,.45,0,.86-.14.09-.28.42-.45.14l.05.42c-.27.33-.43.28-.61-.15-2,3.42-.42,4.67-.42,4.67C67.66,410.16,68.07,408.94,69,408.61Z"/><path class="cls-5" d="M595.35,22.36l.16.16A.17.17,0,0,0,595.35,22.36Z"/><path class="cls-5" d="M627.86,35.45h0Z"/><path class="cls-5" d="M600.82,28h0l0,0Z"/><path class="cls-5" d="M594.41,27.92c1.72,0,2.22.75,3.91.3a18.27,18.27,0,0,0,2.49-.26c.4-.64,1,0,1.53-.49l.15.37c.17-.18.36-.29.5-.08l0,.1c.25-.25.5-.07.63-.19l0,.1.29,0-.06.14a1.17,1.17,0,0,1,1.2,0l0-.44c.71.58,1.14-.25,1.75.44l0,.1c1.13-1,1.21,1.05,2.35.22-.15.1,0,.23,0,.33.44,0,.89.06,1.15-.76.3.1.17.33.11.65a.52.52,0,0,1,.66-.36l-.15.1.71.11.1-.71c.3.32-.2.84.2.8l.2-.55c.46.3.42,1.25.7,1.82a15.27,15.27,0,0,0,2.94,1,3.74,3.74,0,0,1,2.4,1.8l-.2.4c-.36.52,1-.44.68.08l.35-.09c0,.13,0,.31-.18.35.14.15.21.07.45,0l-.09.44c.38.76,1.42.61,1.89,1.35.15,1.25,1.84,2.17,2.86,2.84a1.57,1.57,0,0,1,.81.91,5.44,5.44,0,0,1,.21,1.32,7.82,7.82,0,0,0,.15,1.29,1.68,1.68,0,0,0,.7,1c-.07.08.17.12.24.1a11.41,11.41,0,0,1,.38,1.35l.08.27.23.66a6.7,6.7,0,0,0,.84,1.65,1.52,1.52,0,0,0,1.61.64c.68-.18,1.65-.86,2.61-2.74h.15a3.17,3.17,0,0,0,0-1.28,1.49,1.49,0,0,0-.82-.82c.79-.36-.14-.79,0-1.09h.07c-.84-.31.07-1.35-.71-1.65.07,0,.29-.09.36,0-.28-.34-.7-.77-.26-1-.27-.43-.53-1-.86-1.43a1.75,1.75,0,0,0-1.22-.87l.14,0c-.65,0-.32-.34-.77-.52,0-.06.05-.1.08-.11-.64,0-.72-.87-1.09-1l.25-.22-.53-.57.12.27c-.77.49.1-.82-.74-.86-.27-.48-2.09.48-2.12-.18-.48.12.66-.33.16-.36.34-.34.34-.08.55-.42-.42-.11-.08-.78-.63-.88l.25-.28c-.91.08-.52-1.14-1.25-.93-.66-.18.39-1.12-.58-1l.12-.55c-.17-.24-.54.36-.64,0,.21-.24-.16-.45.17-.57-.3-.83-1.58-.29-1.91-1.5-.51.41-.72-.15-1.09.16.12-.25-.79-.53,0-.76.06,0,.13,0,.07.12l.24-.28c-.12-.89-1.06-.16-1.47-.51.08.18.28.26,0,.41l-.41-.28.23-.22c-.19-.17-.38-.35-.58-.5l-.08.39c-.24-.33-.08-1-.69-.66-.29.2.09.61-.3.56a5.5,5.5,0,0,0-1.38-1.42c-.1.42-.25.34-.44.36l.12-.36c-.79.24.07-.86-.7-.69l.14-.23-.43.68c-.79.51-.05-.84-1-.09.26,0-.14.82-.38.57l.18-.32c-.19,0-.29.15-.37,0,.16-.16.21-.49-.06-.5l.3-.38-.66.5c-.25-.47-.95-.17-1-.7,0,0-.73-.43-1,.08.23-.3-.17-.53,0-.9-.29.33-1,.51-1.12.06l.06,0c-.83-.59-1.63.29-2.36-.32,0,.43-.41.14-.38.71-.87.42-1.4-1.27-1.85.4-.38.06-.41-.44-.6-.54l.1-.09a4.18,4.18,0,0,1-1.43.05c-.27.15-.33.95-.78.75.15-.32,0-.26-.21-.26.11,0,.15-.17-.08-.38a.54.54,0,0,1-.13.21.29.29,0,0,1,0-.08c-.29.11-.24.21-.1.25a.36.36,0,0,0,0,.2c-.3-.41-.83,0-.87-.52a10.76,10.76,0,0,0-2.15,1,.56.56,0,0,1,.25-.66l-.5.14c0-.4.28-.25.43-.34-.66-.6-1.2.72-2,.21l-.11.33,0,0a.64.64,0,0,1-.21.48c-.14-.34-.08-.8-.43-.74-.32-.31-.77.26-1.09.51.2,0,.17.23.1.37s-.32-.29-.43-.13l-.09-.47c.13.43-.38.54-.41.74-.15-.33.22-.34.22-.6-.69.15-.34.07-1,.24-.3.42.15.43,0,.87-.3.15-.55.53-1,.32l.2.39c-.53.44-.88.47-1.37.15-1.78,2.19-1.63,3.38-1.14,4a2.2,2.2,0,0,0,1.35.74C592,29.91,592.53,28.54,594.41,27.92Z"/><path class="cls-5" d="M632.22,60.76l-.16.07A.31.31,0,0,0,632.22,60.76Z"/><path class="cls-5" d="M633.49,68.92h0Z"/><path class="cls-5" d="M626.72,63.15h0Z"/><path class="cls-5" d="M626.87,61.58c-.12.43-.89.71-.48,1,0,.2.2.37.33.53.64,0,.06.24.6.25l-.35.11c.19,0,.31,0,.13.09l-.1,0c.28,0,.13.1.27.1l-.1,0,.06.06-.15,0c.3,0,.34.14.22.25l.43-.08c-.45.27.45.18-.09.45l-.1,0c1.17,0-.72.46.39.5a1.36,1.36,0,0,0-.32.06c.14.08.22.18,1.07,0,0,.08-.25.1-.58.16.37-.06.53,0,.56,0h-.15l.15.15.69-.14c-.19.12-.85.15-.67.21l.58-.09a9.09,9.09,0,0,1-1.37.52c-.18.51,1.37.86.4,1.44l-.44.07c-.64.08,1,0,.37.1l.3,0a1.14,1.14,0,0,1-.38.06c0,.05.08,0,.28.06l-.39.09c-.29.22.5.31.36.53-.79.32,0,.71.45.94,1,.31-1.54.92-.42,1.23-.09,0,.12,0,.19,0l-.07.36s0,.43.57.67,1.89.34,4.53-.46h.14c.33-.22.4-.36-.31-.47.86-.06.08-.18.36-.24h.07c-.67-.09.54-.3-.06-.39a1.14,1.14,0,0,1,.32,0c-.11-.08-.31-.2.19-.23-.15-.21.07-.53-.74-.61h.14c-.55,0-.09-.1-.37-.16l.13,0c-.54,0-.1-.24-.34-.29l.33,0-.09-.16-.07.07c-.92.06.56-.18,0-.25.1-.13-1.92-.06-1.49-.22-.43,0,.7,0,.36-.07.48,0,.3,0,.68,0-.23-.06.47-.18.14-.25l.37,0c-.69-.07.46-.3-.19-.33-.32-.11,1.09-.21.35-.28l.5-.11c.07-.07-.62,0-.38-.07s.24-.12.55-.11c.48-.22-.74-.24.07-.54-.62,0-.27-.12-.73-.09.27,0,0-.21.61-.17,0,0,0,0-.06,0l.37,0c.67-.21-.41-.17-.32-.3-.12.05-.08.09-.33.09l0-.11.31,0,.16-.19-.38.07c.18-.1.82-.22.27-.24-.3,0-.5.14-.63.08a2.53,2.53,0,0,0,.7-.51c-.42.07-.41,0-.51,0l.37-.06c-.53-.07.81-.17.38-.25l.26,0-.78.08c-.75,0,.76-.19-.26-.18.07,0-.81.15-.66.06l.36,0c-.08,0-.23,0-.16-.05s.52-.07.45-.11l.45,0h-.67c.37-.14-.13-.2.37-.31,0,0,.22-.22-.34-.17.35,0,.46-.14.87-.18-.39,0-.73-.06-.33-.19h0c.38-.27-.63-.24-.16-.51-.43.08-.21-.05-.75.07-.57-.08,1-.54-.65-.29-.11-.07.38-.17.45-.23h.09c-.17-.13-.19-.17-.17-.3-.18,0-1,.12-.79,0s.25-.06.24-.1a.64.64,0,0,0,.37-.09h-.21l.08,0a.25.25,0,0,0-.25,0l-.19,0c.39-.15-.06-.18.47-.3-.16-.17-.74-.19-1-.31a1.59,1.59,0,0,1,.64-.07l-.12-.09c.39-.08.24,0,.33,0,.61-.27-.69-.14-.15-.43l-.32,0,0,0a1.73,1.73,0,0,1-.45,0c.34-.1.79-.17.75-.25.32-.14-.2-.14-.41-.18a.73.73,0,0,1-.37.09s.32-.14.16-.13l.46-.11a2,2,0,0,1-.68,0c.34-.1.31,0,.57-.06l-.12-.22a5.35,5.35,0,0,0-.84.17c-.11-.05-.44,0-.19-.19l-.4.12c-.35-.06-.32-.15.07-.34a9.29,9.29,0,0,0-3.62.4,2.77,2.77,0,0,0-1,.51C625.22,61.31,626.45,61.21,626.87,61.58Z"/><path class="cls-2" d="M634.38,371l-.16.15A.17.17,0,0,0,634.38,371Z"/><path class="cls-2" d="M623,400.55a.3.3,0,0,0,0,.05A.06.06,0,0,0,623,400.55Z"/><path class="cls-2" d="M628.67,375.73h0l0,0Z"/><path class="cls-2" d="M628.84,370.23a4.1,4.1,0,0,1-.35,1.69,2.57,2.57,0,0,0,0,1.65,9.1,9.1,0,0,0,.19,2.15c.66.37-.07.91.43,1.35l-.37.12c.17.15.27.33.06.44l-.1,0c.25.23.06.44.19.56l-.1,0,0,.25-.14-.06a.9.9,0,0,1,0,1.06l.43,0c-.62.59.22,1-.47,1.53l-.1,0c1,1.07-1.09,1-.26,2.1-.1-.14-.23,0-.33-.06,0,.4,0,.81.77,1.09-.09.27-.32.13-.65.06a.48.48,0,0,1,.35.62l-.1-.14-.11.64.71.13c-.32.25-.84-.23-.8.14l.55.21c-.28.4-1.2.32-1.76.56A9,9,0,0,0,626,389a3.47,3.47,0,0,1-1.57,2.24l-.41-.18c-.54-.33.51.91,0,.63l.12.33c-.13,0-.3,0-.36-.16-.13.13,0,.2,0,.42l-.44-.08c-.68.38-.39,1.38-1.05,1.84a2,2,0,0,0-1.39,1.14,14.48,14.48,0,0,0-.87,1.74,1.33,1.33,0,0,1-.69.88,5,5,0,0,1-1.2.32c-.85.14-1.59.34-1.91,1.13-.09-.05-.08.18,0,.24l-1.15.6-.22.14c-.13.09-.32.22-.54.35a4.16,4.16,0,0,0-1.27,1.15,1.57,1.57,0,0,0-.11,1.71c.36.63,1.2,1.32,3.08,1.91l0,.14a2.51,2.51,0,0,0,1.1-.25,1.28,1.28,0,0,0,.5-.93c.51.7.64-.29,1-.15l0,.07c.08-.83,1.22-.09,1.31-.87,0,.07.15.27.06.35.24-.3.52-.77.84-.37.61-.64,1.77-1.2,1.66-2.18l.06.13c-.12-.62.25-.34.32-.78.06,0,.1,0,.11.07-.11-.63.67-.74.72-1.09l.25.23.44-.52-.24.12c-.59-.7.79.06.68-.74.4-.27-.8-2-.16-2-.18-.45.4.6.37.14.37.3.12.31.47.5,0-.39.73-.09.76-.6l.3.22c-.2-.84,1-.51.7-1.19.08-.62,1.11.36.87-.54l.55.11c.22-.16-.4-.5,0-.58.25.19.42-.14.57.16.77-.27.08-1.47,1.23-1.74-.44-.47.1-.64-.24-1,.25.12.47-.7.74,0,0,.06,0,.12-.11.06l.29.23c.86-.08.07-1,.38-1.32-.17.07-.22.25-.39,0l.24-.37.23.22.45-.51-.38-.09c.32-.2,1,0,.63-.58-.2-.27-.6.05-.56-.3a4.24,4.24,0,0,0,1.34-1.17c-.42-.12-.35-.25-.37-.42l.35.12c-.27-.73.84.1.67-.59l.22.14-.67-.42c-.51-.74.83,0,.09-.88,0,.23-.81-.18-.56-.38l.32.18c0-.17-.14-.26,0-.34.16.15.48.22.49,0l.38.29-.51-.62c.46-.2.15-.85.67-.83,0,0,.44-.62,0-.93.29.23.53-.12.89.09-.33-.28-.48-.88,0-1l0,.05c.58-.72-.29-1.49.36-2.11-.43,0-.13-.38-.69-.38-.37-.8,1.3-1.21-.35-1.69-.06-.34.44-.35.55-.51l.08.09a3.43,3.43,0,0,1,0-1.3c-.15-.25-.92-.33-.73-.73.31.15.26,0,.26-.18,0,.1.16.14.38-.06a.57.57,0,0,1-.21-.12h.08c-.11-.27-.21-.22-.25-.1a.39.39,0,0,0-.2,0c.41-.26,0-.75.53-.77a7.82,7.82,0,0,0-.91-2,.59.59,0,0,1,.66.24l-.14-.46c.4,0,.25.25.35.39.6-.6-.74-1.1-.2-1.79l-.33-.1,0,0a.64.64,0,0,1-.47-.19c.34-.13.8-.08.75-.4.33-.3-.25-.7-.5-1,0,.18-.23.16-.36.1s.29-.3.12-.4l.46-.09c-.43.13-.55-.33-.75-.35.33-.15.34.19.61.18l-.25-.94c-.41-.26-.43.15-.86.08-.15-.27-.52-.48-.31-.87l-.39.2c-.45-.45-.51-.76-.2-1.23a5.42,5.42,0,0,0-2.58-1,1.85,1.85,0,0,0-1.38.4,2.15,2.15,0,0,0-.73,1.24,1.58,1.58,0,0,0,.34,1.68A8.52,8.52,0,0,1,628.84,370.23Z"/><path class="cls-5" d="M23.62,41.12h.19C23.73,41.09,23.66,41.08,23.62,41.12Z"/><path class="cls-5" d="M38.48,29.47v0A.06.06,0,0,0,38.48,29.47Z"/><path class="cls-5" d="M30,41.68h0l0,0Z"/><path class="cls-5" d="M28.38,43.8c.43-.59,1.24-.38,1.25-1.13a3,3,0,0,0,.35-1c-.44-.5.26-.37-.06-.85l.33.16c-.11-.17-.15-.3,0-.24l.08.07c-.15-.25.05-.24,0-.36l.08.07,0-.13.1.11c-.11-.33,0-.48.22-.51l-.33-.28c.59.07.05-.65.69-.48l.07.08c-.48-1.14,1,.14.61-1,0,.14.16.16.23.24.07-.22.2-.41-.33-1.08.13-.09.26.13.48.38-.23-.3-.22-.5-.13-.59l0,.15.2-.31-.47-.53c.27.05.54.67.58.43l-.34-.48c.29-.05.91.6,1.33.83.92-.3,1.22-2.16,2.56-1.64l.22.38c.28.58-.15-1,.13-.45l0-.31a.56.56,0,0,1,.19.33c.1,0,.06-.12.06-.33l.26.32c.5.13.53-.72,1-.73.77.57,1.45-.45,1.89-1.05.52-1.18,2.18,1,2.71-.27.05.08.07-.14,0-.21l.79-.12a2.32,2.32,0,0,0,1.4-.93c.44-.74.36-2-1.77-4.23l0-.14c-.52-.22-.82-.22-.94.55-.27-.82-.38,0-.56-.23V28.3c-.09.72-.7-.38-.81.27,0-.07-.07-.3,0-.33-.16.16-.37.42-.52-.06-.42.25-1.13.23-1.19,1.08l0-.14c0,.57-.19.14-.3.47a.84.84,0,0,1-.06-.11c0,.57-.5.25-.58.51l-.11-.31-.34.19.16,0c.25.89-.46-.46-.53.2-.29,0,.15,2-.24,1.64,0,.45-.14-.69-.2-.32-.17-.45,0-.31-.2-.65-.09.28-.46-.35-.56,0l-.14-.34c0,.74-.72-.24-.67.44-.17.4-.63-.94-.65-.13l-.32-.41c-.17,0,.16.61-.09.45s-.29-.15-.33-.46c-.55-.29-.37.95-1.18.42.18.6-.2.39-.06.83-.14-.23-.45.19-.49-.46,0-.05,0-.06.09,0l-.14-.34c-.58-.48-.27.59-.57.63.13.06.21,0,.27.24l-.25.08-.11-.29-.43,0,.24.3c-.26-.07-.66-.59-.56,0,.08.31.42.35.31.55a2.66,2.66,0,0,0-1.23-.12c.27.34.18.38.16.5l-.22-.3c0,.63-.58-.6-.64-.05l-.13-.23.38.69c.18.78-.6-.52-.28.5.07-.13.55.62.32.59L29,33.61c0,.12,0,.25-.05.23-.08-.19-.3-.43-.37-.3l-.21-.41.21.69c-.4-.17-.34.4-.73.07,0,0-.5.11-.2.59-.16-.32-.43-.25-.65-.6.17.37.14.82-.24.62v-.05c-.67.06-.21,1-.89,1,.33.28,0,.3.45.62.11.68-1.41-.08-.2,1.13-.06.21-.47-.06-.6,0l0-.09a1.42,1.42,0,0,1-.39.71c.05.22.68.69.39.79-.22-.25-.22-.13-.28,0,0-.08-.09-.16-.34-.17a.71.71,0,0,1,.13.18l-.07,0c0,.2.1.23.18.19a.63.63,0,0,0,.18.09c-.43-.09-.23.4-.7.13-.14.49.17,1.06.18,1.5a.75.75,0,0,1-.49-.44l0,.3c-.36-.18-.13-.25-.16-.37-.73,0,.26.92-.44,1l.26.2h-.06a.85.85,0,0,1,.36.31c-.34-.08-.74-.31-.8-.12-.38,0,0,.49.1.74.09-.09.26,0,.36.1s-.37,0-.25.16l-.45-.14c.44.1.38.4.55.49-.35,0-.24-.23-.48-.34a5.15,5.15,0,0,0-.11.6c.29.3.44.08.82.28,0,.2.32.44,0,.57l.42,0c.25.38.18.55-.28.7a4.82,4.82,0,0,0,2,1.23,3.26,3.26,0,0,0,1.44.13,2.43,2.43,0,0,0,1.09-.33C29.61,45.12,28.43,44.67,28.38,43.8Z"/><path class="cls-5" d="M81.2,26.16l.26.16C81.46,26.24,81.39,26.17,81.2,26.16Z"/><path class="cls-5" d="M145,24l.06,0S145,24,145,24Z"/><path class="cls-5" d="M91.27,31.53h0l-.06,0Z"/><path class="cls-5" d="M78.45,31.72c3.37,0,4.3.8,7.76.28,1.66,0,3.42-.29,5-.47.74-.67,2.13-.11,3-.68l.37.34a1,1,0,0,1,1-.16l0,.11c.46-.29,1-.15,1.22-.3V31l.57-.07L97.3,31a4.72,4.72,0,0,1,2.4-.28l-.08-.43c1.61.42,2.15-.5,3.61,0l0,.11c1.77-1.22,2.9.67,4.73-.48-.23.14.11.22.09.33.86-.16,1.77-.25,1.76-1.11.63,0,.52.25.61.58,0-.37.52-.55,1-.59l-.22.15,1.4-.17-.3-.7c.75.18.22.86.93.66l0-.59c1,.08,1.67.95,2.68,1.35,4.15.12,8.56-1.49,12.45-.55l.18.44c.09.64,1-1,1.2-.38l.44-.3c.13.11.4.23.18.38.42,0,.42-.09.72-.29l.45.39c1.64.28,3-.53,4.74-.4,2.08.78,6,0,8.2-.49,3.15-1,6.84,1.53,10.06.41.11.09.38-.12.37-.19l3,.08a26.6,26.6,0,0,0,5.81-.55c2.22-.61,3.09-1.88-2.37-4.54l.07-.14c-1.62-.34-2.65-.41-3.76.3-.18-.86-1.33-.08-1.71-.36l0-.07c-1,.67-2-.54-3,.06,0-.07.06-.31.27-.32-.69.11-1.64.31-1.7-.19-1.66.15-4-.07-5,.75l.07-.14c-.6.55-.78.09-1.46.37,0-.07-.09-.1-.08-.13-.65.54-1.93.11-2.46.34l0-.33-1.31.09.49.07c-.16.92-1-.56-1.95,0-.9-.1-1.78,1.94-2.71,1.5-.43.44.38-.71-.28-.36,0-.48.3-.31.13-.68-.64.24-1.07-.47-1.87-.14l0-.37c-1,.7-2-.45-2.66.21-1.07.33-.74-1.09-1.85-.34l-.45-.5c-.48-.07-.33.63-.87.39,0-.32-.68-.24-.37-.55-1.22-.47-2.43.77-4,0-.33.63-1.14.28-1.38.75,0-.27-1.6,0-.72-.61.08,0,.21,0,.21.06l.1-.37c-.92-.67-1.63.43-2.53.34.27.11.62.07.39.33l-.83,0,.16-.31-1.24-.14.18.38c-.61-.18-.84-.82-1.51-.26-.3.31.59.5,0,.64a16.37,16.37,0,0,0-3.08-.67c.11.43-.17.42-.45.52l0-.37c-1.08.55-.43-.81-1.51-.36l.09-.26-.26.79c-1,.77-.56-.76-1.62.29.43-.08.23.82-.31.67l.12-.36c-.29.09-.38.24-.58.17.17-.2.07-.53-.36-.45l.27-.46-.79.69c-.65-.36-1.63.16-1.91-.34,0,0-1.37-.2-1.66.37.26-.36-.49-.46-.3-.87-.34.4-1.36.76-1.8.36l.08-.05c-1.56-.36-2.61.69-4,.23.08.43-.66.22-.46.77-1.4.6-2.65-1-3.09.72-.65.12-.79-.37-1.13-.44l.15-.1a12.34,12.34,0,0,1-2.47.23c-.44.19-.48,1-1.29.83.25-.33-.08-.25-.38-.24.19-.06.25-.18-.16-.37a.61.61,0,0,1-.21.22s0,0,0-.08c-.5.14-.41.23-.17.26,0,0,0,.11.09.19-.54-.38-1.46.1-1.55-.44a36,36,0,0,0-3.82,1.09c-.16-.27.13-.53.49-.66l-.89.15c0-.4.5-.26.77-.35-1.1-.59-2.16.76-3.45.23l-.24.33-.08,0c0,.17-.26.41-.44.47-.2-.34,0-.81-.65-.75-.51-.31-1.38.24-2,.47.35,0,.25.24.11.37-.31,0-.51-.31-.74-.15l-.06-.47c.15.44-.78.53-.88.73-.2-.34.46-.33.53-.6l-1.86.17c-.64.39.15.44-.15.87-.58.13-1.13.49-1.82.24l.24.41a2.83,2.83,0,0,1-2.5,0c-8,3.91-1.44,4.76-1.44,4.76C73.06,33.57,74.65,32.26,78.45,31.72Z"/><path d="M168.71,105.95v5.37h8.67v14h-3.9V124H159.92v1.41h-3.75V111.32h8.64v-5.37H153.14v-3.48h11.67v-5.1h3.9v5.1h11.7v3.48Zm4.77,8.76H159.92v5.88h13.56Z"/><path d="M198.53,97.4c0,1.26-.09,2.88-.21,4.68.42,4,2.25,15.36,12.72,20a9.51,9.51,0,0,0-2.61,3.09c-6.66-3.18-10-9-11.73-14.19a24.44,24.44,0,0,1-11,14.37,11.46,11.46,0,0,0-3-2.91c12.18-6.51,11.61-19.95,11.73-25Z"/><path d="M226.49,111.41a59.53,59.53,0,0,1-5.88,8.34l12-.72c-1-1.44-2-2.91-2.85-4.2l3.27-1.71a91.44,91.44,0,0,1,6.84,10.38l-3.48,2.1c-.45-.9-1-2-1.68-3.15-15.09,1.17-17.22,1.29-18.84,1.89a40.29,40.29,0,0,0-1.38-4,5.78,5.78,0,0,0,2.46-2,40.25,40.25,0,0,0,4.47-6.93h-8.13v-3.72h27v3.72Zm10.68-8.4H216.65V99.35h20.52Z"/><path d="M246.41,105.89a2.85,2.85,0,1,1,2.85,2.82A2.79,2.79,0,0,1,246.41,105.89Zm0,14.31a2.85,2.85,0,1,1,2.85,2.82A2.79,2.79,0,0,1,246.41,120.2Z"/><path d="M284.75,119.93v3.66h-26v-3.66Zm-1.62-19.68v3.6H260.39v-3.6Zm-2.37,9.57v3.63h-18.3v-3.63Z"/><path d="M313.4,106.37H299.6l2.1.72a24.82,24.82,0,0,1-1.62,2.13h9.57l.66-.12,2.49,1.5c-3.69,8.76-12,13-21.42,14.85a12.43,12.43,0,0,0-2.16-3.33,38.9,38.9,0,0,0,9.9-2.73,46.76,46.76,0,0,0-4.2-3.87l2.7-1.71a48,48,0,0,1,4.59,3.93,16.58,16.58,0,0,0,5.49-5.4H297a26.48,26.48,0,0,1-5.49,3.57,19.64,19.64,0,0,0-2.37-2.85,20.16,20.16,0,0,0,8.49-6.69h-7.2V98.72h3.72v4.5H300V97.34h3.69v5.88h5.88v-4.5h3.84Z"/><path d="M328.91,109.34c-.21.42-.45.81-.69,1.23h14v14.91h-3.6V124.4H327.8v1.08h-3.42v-9.87a22.93,22.93,0,0,1-4.62,3.6,20.75,20.75,0,0,0-2.25-2.88,20,20,0,0,0,7.32-7h-6.39v-2.82h7.89c.21-.42.39-.87.57-1.29h-6.36v-2.7h7.32c.12-.42.24-.84.33-1.29-2.49.09-5,.12-7.32.09a9.15,9.15,0,0,0-.66-2.67c7.32,0,16-.36,21-1.2l2.1,2.55a101.12,101.12,0,0,1-11.22,1.08c-.12.48-.27,1-.42,1.44h11.76v2.7H330.74c-.15.42-.33.87-.51,1.29h14.85v2.82Zm9.75,3.93H327.8v1.29h10.86Zm0,3.51H327.8v1.32h10.86Zm0,4.92v-1.38H327.8v1.38Z"/><path d="M364.52,109.1c2,5.85,5.61,10.56,11.22,12.84a14.39,14.39,0,0,0-2.64,3.36c-5.43-2.55-8.91-6.93-11.25-12.72a20.65,20.65,0,0,1-11.22,12.75,10.57,10.57,0,0,0-2.67-3,18,18,0,0,0,10.89-13.2H348.53v-3.69h10.92c.3-2.82.27-5.55.3-8h3.9c0,2.46-.06,5.22-.36,8h11.79v3.69Z"/><path d="M405.5,120.89c2,0,2.31-1.11,2.67-6.21a11.91,11.91,0,0,0,3.66,1.71c-.48,5.94-1.62,8.07-6.06,8.07H399.2c-4.53,0-5.88-1.32-5.88-5.91v-7.32l-7.83,1.17-.6-3.6,8.43-1.29V98h3.93v8.94l14.7-2.28.6,3.69-15.3,2.28v7.95c0,2,.27,2.31,2.25,2.31Z"/><path d="M440.21,106.37h-13.8l2.1.72a24.82,24.82,0,0,1-1.62,2.13h9.57l.66-.12,2.49,1.5c-3.69,8.76-12,13-21.42,14.85a12.44,12.44,0,0,0-2.16-3.33,38.91,38.91,0,0,0,9.9-2.73,46.83,46.83,0,0,0-4.2-3.87l2.7-1.71a48.08,48.08,0,0,1,4.59,3.93,16.59,16.59,0,0,0,5.49-5.4H423.8a26.47,26.47,0,0,1-5.49,3.57,19.64,19.64,0,0,0-2.37-2.85,20.16,20.16,0,0,0,8.49-6.69h-7.2V98.72H421v4.5h5.85V97.34h3.69v5.88h5.88v-4.5h3.84Z"/><path d="M455.72,109.34c-.21.42-.45.81-.69,1.23h14v14.91h-3.6V124.4H454.61v1.08h-3.42v-9.87a22.93,22.93,0,0,1-4.62,3.6,20.75,20.75,0,0,0-2.25-2.88,20,20,0,0,0,7.32-7h-6.39v-2.82h7.89c.21-.42.39-.87.57-1.29h-6.36v-2.7h7.32c.12-.42.24-.84.33-1.29-2.49.09-5,.12-7.32.09a9.15,9.15,0,0,0-.66-2.67c7.32,0,16-.36,21-1.2l2.1,2.55a101.12,101.12,0,0,1-11.22,1.08c-.12.48-.27,1-.42,1.44h11.76v2.7H457.55c-.15.42-.33.87-.51,1.29h14.85v2.82Zm9.75,3.93H454.61v1.29h10.86Zm0,3.51H454.61v1.32h10.86Zm0,4.92v-1.38H454.61v1.38Z"/><path d="M491.48,110.51a62.32,62.32,0,0,1-5.16,3.72v1.5a57.24,57.24,0,0,0,9.66-3.27l3,2.61a90.56,90.56,0,0,1-12.63,3.66v1.65c0,1.17.36,1.35,2.55,1.35h6.51c1.86,0,2.19-.54,2.4-3.69a11.14,11.14,0,0,0,3.36,1.29c-.51,4.44-1.59,5.61-5.49,5.61h-7c-4.68,0-6-1-6-4.53v-4c-2,1-4,2-6,2.82a21.38,21.38,0,0,0-2.49-3.06,51.79,51.79,0,0,0,11.4-5.64H475v-3.33h9.48v-2.94h-6.78V101h6.78V97.34h3.72V101h6.42v1.74a38.47,38.47,0,0,0,3.21-4.17l3.33,1.59a49.1,49.1,0,0,1-5.91,7h6.93v3.33Zm-3.3-3.33H490a37.37,37.37,0,0,0,3.18-2.94h-5Z"/><path d="M175.16,174.4v3.87h-27.6V174.4Z"/><path d="M189,179a18,18,0,0,0,.54,3.15c-7,3.21-8.19,3.9-8.94,4.56a12.84,12.84,0,0,0-1.56-3.15,3,3,0,0,0,1.56-2.55v-6.63l-3,.57-.57-3.27,3.57-.69v-7.23H184v6.57l4.89-.93.6,3.21L184,173.74v7.38Zm15.78-14.22s0,1.35-.06,1.8c-.33,14.91-.66,20.1-1.8,21.75a3.86,3.86,0,0,1-2.73,1.8,24.77,24.77,0,0,1-4.32.09,8.59,8.59,0,0,0-1.17-3.63c1.59.12,3,.12,3.72.12a1.18,1.18,0,0,0,1.14-.6c.87-1,1.23-5.82,1.5-17.91h-4.59c-.21,9.48-1,17.73-8.34,22.5a10,10,0,0,0-2.52-2.88c6.72-4,7.14-11.16,7.26-19.62h-4.17v-3.42Z"/><path d="M235.1,184.21h-12v6.39h-3.69v-6.39h-11.7v-3.39h11.7V177.4h-8.73V163.84H232V177.4h-8.91v3.42h12Zm-20.94-15h14.13V167H214.16Zm0,5.07h14.13v-2.16H214.16Z"/><path d="M257.66,186.25c3.09,0,3.57-.78,4-5.13a13.16,13.16,0,0,0,3.6,1.38c-.69,5.64-2,7.29-7.47,7.29h-9.93c-5.79,0-7.56-1.14-7.56-5.67v-14H244v4.08h13.62v-6.39H239.12v-3.54h22.23v14.85h-3.72v-1.41H244v6.39c0,1.86.54,2.13,3.84,2.13Z"/><path d="M273.05,177.16a40.53,40.53,0,0,0-5.58-3.24l1.89-2.67a43.31,43.31,0,0,1,5.67,2.94Zm3.51,3.78c-1.59,3.15-3.48,6.57-5.31,9.48l-3-2.4a90.15,90.15,0,0,0,5.67-9.45Zm-1.86-12a40.36,40.36,0,0,0-5.58-3.33l2-2.61a37,37,0,0,1,5.67,3Zm20.67,17.46v3.39H275.9v-3.39h8.16v-6.12H278v-3.39h6.06v-5.28H276.8v-3.39h8a23.45,23.45,0,0,0-2.1-4.59l3.3-1.11a24.35,24.35,0,0,1,2.37,4.65l-2.91,1h9.15v3.39h-6.81v5.28h5.73v3.39h-5.73v6.12Z"/><path d="M313.19,186.43a26.53,26.53,0,0,0,3.54.21c1.59,0,6.54,0,8.58-.06a11.87,11.87,0,0,0-1.29,3.63h-7.47c-5.61,0-9.72-.93-12.45-5.28a15.29,15.29,0,0,1-4,5.76,17.61,17.61,0,0,0-2.91-2.37c3.24-2.43,4.74-6.6,5.28-11.7l3.63.33c-.15,1.26-.39,2.49-.63,3.63a8.2,8.2,0,0,0,4,4.8V175.21h-6.39v-3.42h16.5v3.42h-6.39v3.54h8.22v3.36h-8.22ZM302,173.29h-3.51v-7.5h11.13a22.81,22.81,0,0,0-1-2.49l3.6-1a18.8,18.8,0,0,1,1.56,3.48h10.41v7.5h-3.69v-4.14H302Z"/><path d="M330.71,185.35a3.12,3.12,0,0,1,6.24,0,3.13,3.13,0,0,1-6.24,0Zm.54-15.3-.15-4.47h5.49l-.15,4.47-1,10.26H332.3Z"/><path d="M357.89,167.35q-.54,1.66-1.08,3.15h11.85v16.35c0,1.68-.3,2.55-1.38,3.12a11.31,11.31,0,0,1-4.59.6,12.64,12.64,0,0,0-1.14-3.24c1.2.06,2.52,0,2.94,0s.54-.12.54-.54v-13h-3.54V189.7h-3.57V173.83h-3.3V189.7h-3.54V173.83h-3.21v16.8h-3.69V170.5h8.73c.3-1,.54-2.1.75-3.15H342.77v-3.63H370v3.63Z"/><path d="M381.89,163.78a45.59,45.59,0,0,1-2.85,6.15v20.64h-3.42V175.24a29.12,29.12,0,0,1-2,2.43,23.09,23.09,0,0,0-1.92-3.72,31.59,31.59,0,0,0,6.81-11.22Zm10.62,7.5v15.36c0,1.71-.3,2.7-1.38,3.3a9.44,9.44,0,0,1-4.41.72,12.2,12.2,0,0,0-1.23-3.6c1.26,0,2.52,0,2.94,0s.54-.12.54-.51v-15.3h-3.48a25.55,25.55,0,0,1-2.82,4.59,25.1,25.1,0,0,0-2.88-2.34c2.28-2.55,4.08-6.69,5.1-10.8l3.48.78A45.41,45.41,0,0,1,387,168h10.32l.57-.12,2.52.48c-.36,2.43-.87,5.22-1.29,7l-3-.51c.15-.93.33-2.19.48-3.51Zm-5,5.4a30.78,30.78,0,0,1-4.08,10,22.11,22.11,0,0,0-3.06-1.92,21.7,21.7,0,0,0,3.66-8.82Zm9.24-1a37.1,37.1,0,0,1,3.27,9.78l-3.42,1.17a37.94,37.94,0,0,0-3-9.87Z"/><path d="M414.62,178.69a47.33,47.33,0,0,1,3.39,8.64l-2.94,1.44c-.15-.72-.39-1.53-.66-2.43-8,1.44-9.3,1.8-10.2,2.28a24.76,24.76,0,0,0-1.14-3.21c.63-.15,1.11-.78,1.68-1.71a37.3,37.3,0,0,0,2.88-6.42h-4.77v-3.42h5.64v-3.69h-4.71v-3.36h4.71v-4.23H412v4.23h4.47v3.36H412v3.69h5.22v3.42h-5.7a49.1,49.1,0,0,1-3.51,7l5.37-.87a36.42,36.42,0,0,0-1.44-3.45Zm14.73,3.48c0,1.56-.24,2.64-1.23,3.24s-2.28.72-4.08.72a12.2,12.2,0,0,0-1.11-3.6,25.19,25.19,0,0,0,2.55,0c.36,0,.48-.12.48-.48V167.74h-3.75V190.6h-3.39V164.38h10.53Z"/><path d="M432.32,187.21a24.74,24.74,0,0,0,3-6.84l3.18,1.2a34.56,34.56,0,0,1-2.91,7.26ZM436.79,169H433v-3.24h11.82a26.23,26.23,0,0,0-1-2.46l3.33-1a24,24,0,0,1,1.59,3.48h10.62V169h-19v4.44h17.46v3.3H436.79ZM450,186.61c1.44,0,1.71-.45,1.86-3.27a9.38,9.38,0,0,0,3.3,1.29c-.48,4.17-1.5,5.22-4.89,5.22h-5.76c-4.2,0-5.28-1-5.28-4.29v-5.31h3.6v5.25c0,1,.3,1.11,2,1.11Zm-3.72-9.66a24.41,24.41,0,0,1,4.26,5.25l-3,1.74a24.89,24.89,0,0,0-4-5.43Zm10.53,2.55a31.1,31.1,0,0,1,3.45,7.29l-3.39,1.41a28,28,0,0,0-3.18-7.44Z"/><path d="M488.66,166.6a49.9,49.9,0,0,1-10.32,8.34v11.58c0,2-.48,3-2,3.54a20.18,20.18,0,0,1-6.51.6,12.72,12.72,0,0,0-1.44-3.6c2.13.09,4.59.06,5.25.06s.9-.18.9-.69V173.14a37,37,0,0,0,6.9-4.92H464.18v-3.51H485l.78-.21Z"/><path d="M497.18,177c-.93,0-1.77.66-2.49,2l-2.31-1.74c1.56-2.46,3.24-3.39,4.89-3.39,2.76,0,4,2.64,5.88,2.64,1,0,1.77-.66,2.49-2l2.31,1.74c-1.53,2.43-3.24,3.36-4.86,3.36C500.3,179.68,499.07,177,497.18,177Z"/><path d="M256.35,242a43.13,43.13,0,0,0,1.76-9.4l3.06.4a47.9,47.9,0,0,1-1.62,10.11Zm10.73-2.27a31.83,31.83,0,0,0-1.62-4.86v24.22h-4.25V225.53h4.25v6.77l1.94-.83a40.18,40.18,0,0,1,2.81,6.8Zm14.65,5.83c1.76,4.43,4.72,8,9.21,9.65a16.9,16.9,0,0,0-3,4c-4.5-2.12-7.38-5.76-9.36-10.58a19.59,19.59,0,0,1-9.14,10.65,18.55,18.55,0,0,0-3-3.31c5.47-2.66,7.77-6.48,8.75-10.44H268v-4.07h7.74c.11-1.15.11-2.23.11-3.31v-3.28h-6.19v-4h6.19v-5.44h4.32V231H288v10.55h2.27v4.07Zm-1.58-7.34c0,1.08,0,2.16-.11,3.28h3.74v-6.59h-3.64Z"/><path d="M314.49,245.25a33.38,33.38,0,0,0,12.2,9.07,20.08,20.08,0,0,0-3,3.6,36.4,36.4,0,0,1-11.77-9.86v11.05H307.4v-11a37.35,37.35,0,0,1-11.81,9.72,20.31,20.31,0,0,0-3-3.6,34,34,0,0,0,12.31-9h-11.3v-4.1h6.8a25.12,25.12,0,0,0-2.7-6.19l3.71-1.4h-6.12v-4.1H307.4v-3.92h4.54v3.92h12.45v4.1h-6l4.14,1.22a66.4,66.4,0,0,1-3.78,6.37h7v4.1Zm-13-11.7a25.64,25.64,0,0,1,3.06,6.26l-3.42,1.33h6.23v-7.59Zm10.4,0v7.59h6l-3-1a40.5,40.5,0,0,0,3.06-6.55Z"/><path d="M334.65,242.23a49,49,0,0,0-5.87-3.71l2.41-3.1a45.94,45.94,0,0,1,6,3.38Zm2.81,5c-1.19,3.85-2.74,8-4.17,11.52l-3.89-2.2A113.33,113.33,0,0,0,334,245Zm-1.4-14.43a44.24,44.24,0,0,0-5.9-3.85l2.52-3.13a45.91,45.91,0,0,1,6,3.53Zm11.55,18.79a42.42,42.42,0,0,1,4.61,5.58l-2.74,1.69a39.33,39.33,0,0,0-4.28-5.58,11.79,11.79,0,0,1-6.19,5.87,11.23,11.23,0,0,0-1.84-2.59c5.65-2.56,6.23-6.41,6.23-10.4V232.44h3.1v13.79a17,17,0,0,1-1.15,6.73Zm-5.72-.65h-3.2v-23.5h12.78v23.29h-3.35V230.46h-6.23Zm14.51-.07h-3.24v-22h3.24Zm5-24.76v28.72c0,1.94-.36,2.92-1.51,3.49s-2.88.72-5.47.68a17.63,17.63,0,0,0-1.08-3.49c1.73.07,3.42,0,4,0s.76-.18.76-.72V226.1Z"/><path d="M383.25,232.48v5.65l.72-.83c3.89,1.94,9.54,5,12.27,7.27l-3.17,3.92a71.32,71.32,0,0,0-9.83-6.55V259h-4.61V232.48h-13v-4.32h32.07v4.32Z"/><path d="M159.85,301.81h-12v-4.43h17.71v3.2c-6.19,7.56-7,13-7.45,23.43h-5.36C153.23,314.77,154.78,308.86,159.85,301.81Z"/><path d="M199.23,304.33H182.68l2.52.86a30.24,30.24,0,0,1-1.94,2.56h11.48l.79-.14,3,1.8c-4.43,10.51-14.36,15.62-25.7,17.82a14.93,14.93,0,0,0-2.59-4,46.67,46.67,0,0,0,11.88-3.28,56.21,56.21,0,0,0-5-4.64l3.24-2.05a57.64,57.64,0,0,1,5.51,4.72,19.9,19.9,0,0,0,6.59-6.48H179.54a31.74,31.74,0,0,1-6.59,4.28,23.47,23.47,0,0,0-2.84-3.42,24.2,24.2,0,0,0,10.19-8h-8.64v-9.18h4.46v5.4h7v-7.06h4.43v7.06h7.06v-5.4h4.61Z"/><path d="M218.06,320.53h-8.31v2.88h-4V296.34h12.35Zm-8.31-20.37v6.26h4.32v-6.26Zm4.32,16.52v-6.52h-4.32v6.52Zm24-12.27h-3.67v17.06c0,2.59-.54,3.71-2.16,4.39s-4.1.79-7.7.76a16.3,16.3,0,0,0-1.51-4.32c2.52.11,5.18.11,5.94.11s1.08-.25,1.08-1v-17H219.43v-4.25h10.65v-6.37h4.36v6.37h3.67ZM224.9,316.85c-1.08-2.09-3.38-5.62-5.11-8.24l3.53-1.87c1.76,2.48,4.21,5.83,5.36,7.92Z"/><path d="M246.9,314.59a33.94,33.94,0,0,1-3.6,9.65,23.54,23.54,0,0,0-2.92-2.05,24.38,24.38,0,0,0,3.06-8.31Zm10.55-13.21H241v-3.74h6.73a32.93,32.93,0,0,0-1.22-3.31l3.92-.83a30.39,30.39,0,0,1,1.69,4.14h5.33Zm-5.9,11.48V323c0,1.73-.29,2.66-1.4,3.28a8.94,8.94,0,0,1-4.39.61,13.14,13.14,0,0,0-1.19-3.53c1.12,0,2.3,0,2.66,0s.5-.11.5-.47V312.86h-5.15v-9.65h13.61v9.65Zm-5.29-3.31h6v-3h-6Zm8.78,3.89a26.53,26.53,0,0,1,2.66,6.37l-3.13,1.48a26.32,26.32,0,0,0-2.48-6.52Zm15.15,9.83a1,1,0,0,0,.61-.14c.18-.07.29-.36.36-1a31.8,31.8,0,0,0,.14-4,10,10,0,0,0,3.28,1.8,21,21,0,0,1-.47,4.43,2.75,2.75,0,0,1-1.37,1.69,4.83,4.83,0,0,1-2.16.43h-2.23a4,4,0,0,1-2.48-.83c-.65-.61-.94-1.37-.94-3.89v-8.28c-1.19,5.29-3.28,10.15-7.05,13.79a10.56,10.56,0,0,0-3-2.66c4.86-4.46,6.55-11.09,7.2-18.11h-4.25v-3.82h4.5c.14-3.06.11-6.12.14-9h4c0,2.92-.07,6-.22,9h7.59v3.82H266c-.07.61-.14,1.22-.22,1.8h2.81v13.64c0,.65,0,1,.14,1.15a.66.66,0,0,0,.54.18Zm.18-21.13a31.14,31.14,0,0,0-3.64-5.72l2.77-1.62a28.74,28.74,0,0,1,3.82,5.51Z"/><path d="M310.11,321.46v4.1H276.46v-4.1H287V310.84h4.07v10.62h4.14V310.84h4v10.62Zm-27.68-1.3a75,75,0,0,0-3.35-7.05l3.28-1.4a65.85,65.85,0,0,1,3.53,6.84Zm23.07-10.44H281.07V295.15h24.44Zm-4.43-11.27h-15.8v2.41h15.8Zm0,5.51h-15.8v2.41h15.8ZM300,318.47a36.74,36.74,0,0,0,4.14-7l3.6,1.58a50.48,50.48,0,0,1-4.46,6.95Z"/><path d="M326,320c-4.46,1.26-9.29,2.52-13,3.56l-.83-4.1c1.44-.29,3.2-.72,5.08-1.19v-8.46h-3.85v-3.92h3.85v-6.34h-4.39v-4h12.63v4h-4.1v6.34h3.35v3.92h-3.35v7.42l4.07-1.08Zm15.55,3.31c.94,0,1.15-1,1.26-5.72a11.13,11.13,0,0,0,3.35,1.55c-.4,5.62-1,7.27-4.64,7.27h-2.63c-3,0-4.14-.86-4.14-3.92v-4.25a20.25,20.25,0,0,1-9,9,14.12,14.12,0,0,0-2.66-3c9.14-4.79,10.15-11.91,10.15-17.46v-5.69h4v5.79a28.46,28.46,0,0,1-.9,7.27h2.34V322c0,1,.25,1.3,1,1.3Zm-10.83-9.11h-4V295.15H344.1v19.08h-4.25V298.82h-9.14Z"/><path d="M381.18,299.07s0,1.44,0,1.94c-.47,16.09-.86,21.81-2.34,23.72a4.8,4.8,0,0,1-3.46,2,40.19,40.19,0,0,1-5.65.07,10.08,10.08,0,0,0-1.4-4.18c2.3.22,4.43.22,5.36.22a1.92,1.92,0,0,0,1.58-.61c1-1.15,1.51-6.55,1.91-19.26h-7.7a31.06,31.06,0,0,1-3.17,5.69,26.7,26.7,0,0,0-2.77-2v16.81h-9.61v2.63H350V299.32h4.07a38.44,38.44,0,0,0,1-5.79l4.68.65c-.61,1.8-1.26,3.6-1.87,5.15h5.58v5.83a37.26,37.26,0,0,0,4.86-11.59l4.07.94a41.83,41.83,0,0,1-1.4,4.57Zm-21.56,4h-5.72v5.83h5.72Zm0,16.59v-7.05h-5.72v7.05Zm12-1.94a77,77,0,0,0-5-8.32l3.35-1.91a86.87,86.87,0,0,1,5.29,8Z"/><path d="M403.39,293.56c0,1.51-.11,3.46-.25,5.62.5,4.86,2.7,18.43,15.26,24a11.42,11.42,0,0,0-3.13,3.71c-8-3.82-12-10.83-14.07-17-2,6.34-5.76,12.85-13.25,17.24a13.75,13.75,0,0,0-3.56-3.49c14.61-7.81,13.93-23.94,14.07-30Z"/><path d="M453.54,321.93v4.21H421.18v-4.21h13.89v-7.24h-9.75v-4.14h9.75v-6.34h-7.45a29.63,29.63,0,0,1-3.35,5.22,34.12,34.12,0,0,0-3.85-2.56c2.81-3,5.15-8,6.37-12.89l4.43,1c-.5,1.73-1.08,3.42-1.69,5.08h5.54v-6.48h4.5V300H451.7v4.17H439.57v6.34h10.76v4.14H439.57v7.24Z"/><path d="M468.41,317.75h-6.8V321h-3.89v-24.3h10.69Zm-6.8-17.17v13.25h2.88V300.58Zm22.39,22c1.91,0,2.27-.83,2.56-4.54a10.52,10.52,0,0,0,3.85,1.66c-.54,5-1.84,6.84-6,6.84h-7.52c-4.68,0-6.16-1.3-6.16-6.48v-24.4h18.18v19.76h-4.14v-2.09h-9.83v6.77c0,2.16.29,2.48,2.41,2.48Zm-9.07-23v9.86h2.84v-9.86Zm9.83,0h-3.1v9.86h3.1Z"/><path d="M496.53,320.81a3.75,3.75,0,0,1,7.49,0,3.75,3.75,0,0,1-7.49,0Zm.65-18.36-.18-5.36h6.59l-.18,5.36-1.26,12.31h-3.71Z"/></g></g></svg>