<svg xmlns="http://www.w3.org/2000/svg" viewBox="0 0 67.75 67.76"><defs><style>.cls-1{fill:#333;}.cls-2{fill:#1b1b1b;}.cls-3{fill:#fff;}</style></defs><title>资源 173</title><g id="图层_2" data-name="图层 2"><g id="图层_1-2" data-name="图层 1"><path class="cls-1" d="M10.49,58.12A18.84,18.84,0,0,1,5.83,52.5C-5.55,31.34,12.4.42,37.52,4,44.11,5,50.1,9.09,55.07,14.22,59.83,19.13,64,25.5,64.49,32.86,65.17,43.23,58.43,52.34,51,58.12c-3.78,2.93-6.87,5.6-11.66,6.28a46.89,46.89,0,0,1-12.78,0C20.91,63.69,14.94,61.79,10.49,58.12Z"/><path class="cls-2" d="M.61,32.57l.26-.49C.79,32.07.7,32.19.61,32.57Z"/><path class="cls-2" d="M49.42,62.17l-.08.1C49.41,62.21,49.43,62.18,49.42,62.17Z"/><path class="cls-2" d="M13.35,17.79v0l0,.12Z"/><path class="cls-2" d="M5.58,38.84a23.19,23.19,0,0,1,1.15-6.69c.6-1.83,1.16-3.65,2.21-6.55a43.29,43.29,0,0,1,4.4-7.79c.39-1.47,2.46-2.87,3.35-4.28.24,0,.46-.11.7-.15A2.87,2.87,0,0,1,18.7,12.2l0,.11c.51-.69,1.38-1.1,1.65-1.43l0,.11.84-.55-.07.22A9.23,9.23,0,0,1,22,10c.3-.19.62-.38.93-.55a8.58,8.58,0,0,1,1.91-.76l-.26-.36c.69-.17,1.27-.29,1.77-.46s.94-.36,1.38-.49A10.08,10.08,0,0,1,29.12,7a7.86,7.86,0,0,1,1.68,0l0,.11a5.72,5.72,0,0,1,2.16-.54,12.79,12.79,0,0,1,2,.24,15.51,15.51,0,0,0,1.94.4,9.61,9.61,0,0,0,2.2.06c-.42,0,.11.26.05.35,1.45.23,2.95.82,3.32,0,1,.47.73.63.72,1,.15-.35,1.12-.05,1.91.37l-.43-.08q1.15.56,2.27,1.23l0-.87c1.06.94-.18.91,1,1.52l.33-.49C49.67,11.5,50,12.92,51,14.48a55.51,55.51,0,0,1,7.68,8.73,20.32,20.32,0,0,1,2.45,5.05,12.87,12.87,0,0,1,.54,5.2l-.43.31c-.32.07-.07.5.18,1s.43,1,.13,1.09a7.68,7.68,0,0,1,.23.8c-.15.21-.34.64-.42.24a2.34,2.34,0,0,0,.08,1.28l-.57.67c-.45,1.34-.8,2.59-1.19,3.9a14.18,14.18,0,0,1-1.85,3.89c-1.33,1.36-3,3.48-4.8,5.55-.92,1-1.88,2.06-2.82,3S48.3,57,47.53,57.76a11.68,11.68,0,0,1-7.74,3.81c-.36,0-.68,0-1.08,0l-1.19,0H35.16a37,37,0,0,0-4.59.26.85.85,0,0,0-.71.15,42.19,42.19,0,0,1-5.41-.8s-1.62-.31-3.69-.88a53,53,0,0,1-6.37-2.26c-1.85-.78-3.21-1.37-3.41-.58-.08.38.12,1.14.92,2.3a18.56,18.56,0,0,0,4.65,4.39l-.2.07c3.07,1.58,5.22,2.13,7.62,1.89.21.93,2.71.54,3.45.88l-.08.06c2.08-.43,4.2.88,6.2.25a.6.6,0,0,1-.57.33c1.45-.1,3.41-.43,3.55.06.86-.1,1.81-.21,2.78-.34a17.09,17.09,0,0,0,3.17-.71A10,10,0,0,0,46.93,64l-.06.2c.82-1.15,1.37-1,2.35-2,.1,0,.2,0,.2,0,.78-1.26,3-2.38,3.7-3.29l.27.21c.69-.59,1.34-1.22,2-1.85-.26.22-.54.42-.8.63-.36-.91,1.94-.94,2.87-2.82a5.36,5.36,0,0,0,1.19-2.65,4.83,4.83,0,0,1,1.2-2.59c.16-1,.12,1,.62-.24.42.23-.12.68.4.62C61.43,49,62.52,48.62,63,47l.36.12a7.06,7.06,0,0,1,.52-1.53c.22-.46.5-.88.72-1.31a4,4,0,0,0,.8-2.42,2.88,2.88,0,0,1,.84-1.78c.29-.34.61-.72.41-2l.64-.88c.18-1.06-.56-.81-.23-2,.35.09.26-1.48.57-.79a9.57,9.57,0,0,0-.39-4.18,31.81,31.81,0,0,1-1-4.7c-.81-.52-1.16-2.24-1.82-2.55.25-.22-1.55-3.06-.12-1.64.12.13.25.39.14.42l.43,0c-.3-2.11-2.08-3-3.08-4.56.23.53.67,1.14.18.87-.31-.5-.65-1-1-1.46l.47.11c-.47-.75-1-1.48-1.48-2.19l-.06.52c-.66-1.1-.48-1.89-1.86-2.58-.66-.26.45,1.22-.56.33a29.69,29.69,0,0,0-4.14-4.95c-.11.46-.56.08-1.09-.23l.18-.34c-2.18-1-.17-1.2-2.36-2.22l.32-.1-1,.31C48.38,5.1,48.24,4.8,48,4.5s-.43-.6-1.73-.7c.85.39,0,.92-.93.28l.42-.2c-.61-.2-.86-.15-1.21-.4.42,0,.41-.41-.5-.71l.77-.17c-.65,0-1.28-.07-1.93-.05a7,7,0,0,0-2.24-.88A3.72,3.72,0,0,1,39,1L38.52.92a6.89,6.89,0,0,0-1.1-.18,4,4,0,0,0-2.1.16c.62-.32-1-.51-.53-.9a6.67,6.67,0,0,1-2,.42,4.66,4.66,0,0,1-2.06,0l.17-.06a11.89,11.89,0,0,0-4.51.79l-1,.33c-.33.13-.65.25-1,.37-.67.23-1.37.4-2.12.58.28.35-1.28.73-.7,1.09a23,23,0,0,1-3.71,1.74c-1.08.45-1.82,1-1.78,2-1.08.84-1.53.66-2.16,1l.2-.28c-1.92,1.74-2.42,2.3-3.78,3.64-.55.8,0,1.46-1.25,2.6.11-.61-.3-.06-.67.45.2-.35.19-.53-.48,0a1.35,1.35,0,0,1-.12.5s-.06,0-.08,0c-.55.91-.35.82,0,.45,0,0,.1.05.26,0-1,.63-1.68,2.51-2.2,2.34a30.4,30.4,0,0,0-2.67,7.58c-.36.18-.39-.48-.22-1.23L2.4,26.06c-.37-.15.15-1.08.28-1.65a5.28,5.28,0,0,0-.76,1.54,13.54,13.54,0,0,0-.35,1.74c-.11.59-.17,1.21-.28,1.82a10,10,0,0,1-.56,1.84l.22.59-.08.14c.17,0,.29.63.28,1-.39.31-.8-.14-.92,1.15a4,4,0,0,0-.19,2c.07.78.2,1.59.32,2.26,0-.72.25-.49.37-.18,0,.64-.32,1-.16,1.51l-.47.08c.42-.27.62,1.66.83,1.87-.32.4-.38-1-.66-1.11a32.21,32.21,0,0,0,.55,3.87c.65,1.28.38-.33.93.23.18.58.41,1.13.61,1.71a6.74,6.74,0,0,1,.49,1.87l.27-.54a17.53,17.53,0,0,1,1.79,4.71,13.57,13.57,0,0,0,3.69,3.3,7.49,7.49,0,0,0,2.44,1c1.16.2,1.44-.2,1.21-.87a10.32,10.32,0,0,0-1.05-2.09l-.71-1.22c-.6-1.14-1-2.06-1.47-3.13l-.37-.74L8.32,48c-.23-.49-.49-1-.69-1.49A21.5,21.5,0,0,1,5.58,38.84Z"/><path class="cls-3" d="M29.6,53.12l-.6.3a13.61,13.61,0,0,1-6.86.88,12.28,12.28,0,0,1-6.94-2.49c-3.92-3.32.59-9.52,4.2-11,3.89-1.65,7.89-.33,11.86-.6Q32.89,33.56,35,27.1C35.7,25,36.58,23,37.19,20.89c.39-1.32.37-3.31,1.67-4.1.94-.58,3.09,0,4.13-.1a5.58,5.58,0,0,1,2.89.37,5.94,5.94,0,0,1,2.28,3.17c.46,1.08,1.79,4,2.09,5.17-1.44-2-3.08-3.2-4.37-3.42-3.82-.67-6.39-.33-7.21,4l-3,16C34.83,46.26,33.67,50.92,29.6,53.12Z"/><path class="cls-3" d="M13,49.41V49S13,49.14,13,49.41Z"/><path class="cls-3" d="M38.84,29.12v.08A.21.21,0,0,0,38.84,29.12Z"/><path class="cls-3" d="M21.41,41.42h0l-.07,0Z"/><path class="cls-3" d="M16.59,51.51a4.13,4.13,0,0,1-1.46-1.6A3.24,3.24,0,0,1,15,48.37a6.74,6.74,0,0,1,.16-.81,8.94,8.94,0,0,1,.34-.89,10,10,0,0,1,1.28-2.13,11.19,11.19,0,0,1,2.12-2,6.68,6.68,0,0,1,1.2-.68,8.36,8.36,0,0,1,1.34-.44C22.22,41,23.87,41.1,25,41l.44.14a4.09,4.09,0,0,1,1.27,0l0,0c.61,0,1.3.06,1.62,0l0,0,.76,0-.13,0,2-.07.7,0h.52l0-.16.35-1.28-.17.08.26-.86.16-.6.24-1a12.7,12.7,0,0,1,.63-2.17l0,0c.27-2.36,1.27-3.49,1.65-5.9,0,.3.11-.1.14-.07.3-1.08.65-2.21.38-2.31.27-.76.3-.59.44-.65-.12,0,.07-.71.28-1.31l-.06.29.59-1.73-.34.26c.4-.89.36-.13.62-1l-.19-.05a16.93,16.93,0,0,1,.73-1.61,15,15,0,0,0,.64-1.65,4.33,4.33,0,0,1,.55-1.49,1.16,1.16,0,0,1,.36-.33,2.1,2.1,0,0,1,.66-.12,18.19,18.19,0,0,1,2,.08l.56,0a5.77,5.77,0,0,0,.59,0c.33,0,.66,0,1,0a2.8,2.8,0,0,1,1.53.37,3.38,3.38,0,0,1,1.07,1.22,28.53,28.53,0,0,1,1.44,3.5l0,.26c-.16.17.82,1.14.7,1.39l.3.49c0,.16.09.48,0,.24a2.92,2.92,0,0,0,.28.64L51,24.86l-.13-.12q-.13-.29-.27-.57a8.76,8.76,0,0,0-2.45-2.26,6.36,6.36,0,0,0-1.64-.74,4.79,4.79,0,0,0-.49-.11L45.62,21l-.85-.12a7.91,7.91,0,0,0-2.65-.12A4.59,4.59,0,0,0,39,22.48a6.82,6.82,0,0,0-1.23,3.1c-.15.95-.26,1.78-.36,2.51-.45,4.09-2.17,8.61-2.59,12.8a1.09,1.09,0,0,0,0,.49c-.25,1.25-.5,2.48-.83,3.67l-.2.72c-.14.44-.33,1.06-.6,1.72a11.83,11.83,0,0,1-2.33,3.8c-.91,1-1.72,1.49-1.39,1.61a2.67,2.67,0,0,0,1.4-.4,8.62,8.62,0,0,0,3-2.68v.11a11.39,11.39,0,0,0,1.26-2.54,9.24,9.24,0,0,0,.49-2.22c.35-.16.44-1.71.62-2.18v.05c0-1.32.68-2.57.72-3.82a.47.47,0,0,1,0,.37,6.52,6.52,0,0,1,.48-2.15,56.31,56.31,0,0,0,1-6.46l0,.1a12.71,12.71,0,0,1,.24-1.88s.05-.1.06-.09c0-.87.44-2.46.49-3.15l.12,0a7.2,7.2,0,0,1,.42-1.48,3.41,3.41,0,0,0-.22.52c-.23-.31.52-1.07,1.09-1.82a8.58,8.58,0,0,1,1.2-.9,2.58,2.58,0,0,1,1.67-.35c.56-.13-.5.21.34.14,0,.16-.39.08-.18.22a22.16,22.16,0,0,1,2.25.35v.13a2.63,2.63,0,0,1,1.45.73,9.42,9.42,0,0,0,1.1.93c.84.78.46.88,1,1.48l3,3.32-1.41-4.06a3.68,3.68,0,0,0-.23-.51l0-.61c-.21-.61-.36-.35-.54-1,.12,0-.26-.85,0-.51a14.5,14.5,0,0,0-1-2.23c-.38-.74-.72-1.64-1.3-2.72-.24-.16-.53-.5-.88-.79a2.2,2.2,0,0,0-1-.53,2.87,2.87,0,0,0-1.07-.4c-.43-.08-.69-.14,0-.14.13,0,.35.06.32.09l.21-.07a3.65,3.65,0,0,0-2-.24l-.79.11a3,3,0,0,1-.73,0c.33.08.71.08.45.15l-1-.11.24-.08A13.66,13.66,0,0,0,40,15.38l.26.12a5.77,5.77,0,0,0-1.19,0,2.08,2.08,0,0,0-1.39.82c-.36.47.91-.61.06.23-1.14,1.08-1.35,3-1.69,4,.17-.07.08.24,0,.6h-.13c-.27,1.37-.41.39-.74,1.74l0-.14.12.43c-.21,1.27-.48.55-.65,2,.17-.54.35-.16.06.48l-.05-.21a5.2,5.2,0,0,1-.21.75c0-.24-.13-.17-.29.38l0-.41L34,27.24c-.38.74-.62,2-.88,2.3a9.08,9.08,0,0,0-.54,2.11c0-.37-.33.55-.38.24a7.08,7.08,0,0,1-.56,2.29v-.1a18.61,18.61,0,0,0-.69,2.6l-.27,1.21-.16.61-.1.31c0,.07,0,.09,0,.08l0,0c.14,0,0,.21.18.31s-.12.06-.18.09a2,2,0,0,1-.3,0c-.39,0-.77-.07-1.1-.1a2.27,2.27,0,0,0-1.57.15A6.77,6.77,0,0,1,26,39.11l.21,0c-1.61,0-2.09,0-3.32,0a11.11,11.11,0,0,1-1.77.51c.33-.17-.11-.07-.52,0,.25-.08.33-.15-.23-.07a1.48,1.48,0,0,1-.28.15s0,0,0,0c-.66.26-.52.26-.22.16,0,0,0,0,.13,0-.74.07-1.87.83-2,.75a9,9,0,0,0-2.07,1.89,14.81,14.81,0,0,0-1.41,2.06c-.18.12,0-.27.22-.7a9,9,0,0,0-.63,1.06c-.11-.08.28-.67.49-1a8.17,8.17,0,0,0-1.63,4.57l.1.38A.77.77,0,0,0,13,49c.05,0,.19.39.26.65s-.29,0,0,.95a1.79,1.79,0,0,0,.3.6,2.48,2.48,0,0,0,.51.63c.21.18.42.38.63.54s.42.28.61.39c-.38-.3-.21-.26,0-.17a4.27,4.27,0,0,0,.81.6l0,.16c-.08-.19,1.06.38,1.24.36.18.21-.64-.17-.77-.15a11.62,11.62,0,0,0,1.18.51c.2.06.4.16,1.22.37s-.12-.18.33-.21c.77.16,1.52.18,2.39.37l-.26-.17c1.44.06,2.29.09,3.27.19a8.18,8.18,0,0,0,4.44-1.81c.51-.48.4-.62,0-.54s-1,.25-1.51.35-1,.19-1,.19a26.87,26.87,0,0,1-4.9.07A11,11,0,0,1,16.59,51.51Z"/></g></g></svg>