<svg xmlns="http://www.w3.org/2000/svg" viewBox="0 0 684.47 43.89"><defs><style>.cls-1{fill:#989898;}.cls-2{fill:#1b1b1b;}.cls-3{fill:#cf2137;}.cls-4{fill:#fff;}.cls-5{fill:#2e8dc1;}.cls-6{fill:#ffc609;}.cls-7{fill:#767676;}.cls-8{fill:#d1d1d1;}.cls-9{fill:#e75d6d;}.cls-10{fill:#6bafd3;}.cls-11{fill:#ffe5a8;}</style></defs><title>资源 108</title><g id="图层_2" data-name="图层 2"><g id="图层_1-2" data-name="图层 1"><path class="cls-1" d="M12.67,38C6.65,36.28,1.78,33.09.8,27.06-2.82,4.76,36.19,7.21,54,7.68c26,.68,51.94.25,77.9,0,13-.15,26-.26,39-.19,9,0,20,0,24.78,7.61A10.11,10.11,0,0,1,197,18.71,13.42,13.42,0,0,1,193.42,30c-6.65,7.23-18.31,8.61-28.6,9q-22.94.84-45.9,1.27c-30,.55-60.08.51-90.11-.34C23.69,39.83,17.77,39.44,12.67,38Z"/><path class="cls-2" d="M33.2,5.28l1.11.14C34.29,5.34,34,5.28,33.2,5.28Z"/><path class="cls-2" d="M100.59,42.82l-.26,0A.77.77,0,0,0,100.59,42.82Z"/><path class="cls-2" d="M75.62,11.71h-.06l-.28,0Z"/><path class="cls-2" d="M20.65,11.88a69.72,69.72,0,0,1,8.89-.76c2.57-.07,4.85,0,7.14,0,4.6.12,9.23.35,16.83.42,7.25.26,15,.18,22,.13,3.36-.61,9.28,0,13.25-.52l1.54.35a17,17,0,0,1,4.35-.13l-.09.1c2-.28,4.34-.14,5.36-.28l-.08.11,2.48-.07-.42.15a89.72,89.72,0,0,1,10.46-.28l-.27-.43c6.91.41,9.43-.52,15.66,0l-.08.11c7.86-1.24,12.44.71,20.55-.44-1,.14.43.22.35.33,3.73-.14,7.72-.23,7.78-1.08,2.72,0,2.22.26,2.57.58,0-.37,2.35-.54,4.47-.58l-1,.15,6.09-.16-1.19-.7c3.23.19.82.85,3.91.68l0-.59a30.5,30.5,0,0,1,5.68.7c1.7.36,3.35.79,5.29,1.29,4.09.64,8,1.92,10.25,4.59,2.3,2.44,2.58,6.61,1,10a11.77,11.77,0,0,1-1.51,2.39,13.62,13.62,0,0,1-1,1.08,9.68,9.68,0,0,1-1.09,1,20.5,20.5,0,0,1-5.16,3.13,35.58,35.58,0,0,1-11.93,2.52l-.75-.36c-.19-.31-1.25.06-2.39.38s-2.33.65-2.65.37l-1.89.38c-.54-.09-1.7-.19-.74-.36a12.44,12.44,0,0,0-3.13.36l-1.94-.35c-7.1-.11-13.11.82-20.57.88a174.27,174.27,0,0,0-17.5.2c-6.55.3-13.2.67-18.06,1-13.67,1.12-29.57-1.42-43.56-.48a4,4,0,0,0-1.63.17l-12.8-.28-9-.15L28,37.34c-2.77,0-5.47-.08-7.8-.21-4.66-.23-7.81-.81-7.27.13.29.44,1.54,1.29,4.27,2.26A64.88,64.88,0,0,0,30,42.28l-.32.13c7,.54,11.44.69,16.3.08.75.88,5.77.19,7.41.49l-.16.07c4.3-.6,8.83.66,13,.09a1.67,1.67,0,0,1-1.2.31c3-.08,7.13-.26,7.35.24,7.19-.1,17.24.1,21.84-.74l-.31.14c2.62-.56,3.4-.11,6.33-.41.16.06.37.1.34.12,2.85-.56,8.34-.18,10.65-.45l.15.33,5.69-.17-2.13,0c.72-.93,4.32.51,8.43-.21,3.87,0,7.79-2.13,11.81-1.79,1.9-.48-1.67.75,1.18.34.11.48-1.33.34-.58.7,2.8-.3,4.62.36,8.07-.06l.15.37c4.5-.81,8.54.25,11.53-.48,4.65-.44,3.16,1,8,.16.64.15,1.26.31,1.92.44,2.12,0,1.48-.68,3.85-.58-.12.34,3,0,1.65.43a32.76,32.76,0,0,0,8.38-1.28A101,101,0,0,0,189,37.4a24.44,24.44,0,0,1,2.84-2.22A12.65,12.65,0,0,0,193.3,34a3.65,3.65,0,0,0,.88-1.07,11.2,11.2,0,0,0,2.5-2.48,10.17,10.17,0,0,1,.89-1.1c.1-.06,0,.32-.54,1.36-.21.35-.66.91-.71.8l-.09.66a11.4,11.4,0,0,0,3.55-5.81,20.74,20.74,0,0,0,.56-6.86c0,1.46-.13,3.34-.3,2.07a15.07,15.07,0,0,0-.38-4.42c.18.28.34.57.5.86a13.69,13.69,0,0,0-1-3.36,10.23,10.23,0,0,0-.85-1.59l-1-1.4.24,1c-.22-.34-.4-.68-.61-1l-.59-.81-.55-.74-.6-.64a6.68,6.68,0,0,0-1.43-1.18c-.29-.18-.6-.36-.94-.54a10.84,10.84,0,0,0-1.16-.44c-1.53-.45,2.36,1.79-.58.42a25.89,25.89,0,0,0-6.56-2.5,43.58,43.58,0,0,0-7.36-1.08c.42.45-.84.37-2.1.44L175,4.15c-4.84.46-1.77-.87-6.5-.44l.42-.26-1.25.79c-4.26.76-2.29-.76-7,.27,1.87-.07.88.82-1.42.67l.58-.36a17.09,17.09,0,0,1-2.55.16c.76-.2.4-.53-1.47-.46L157,4.07l-3.54.68c-2.74-.37-7.07.13-8.19-.37,0,0-5.88-.22-7.23.34,1.18-.35-2.06-.47-1.15-.88a25.78,25.78,0,0,1-7.82.35l.34-.05c-6.66-.35-11.37.72-17.35.27.28.43-2.88.23-2.09.77-6.17.61-11.26-1-13.48.7-2.81.11-3.33-.38-4.78-.47l.67-.09c-5.26.16-6.78.18-10.69.13-1.95.16-2.26,1-5.75.75,1.13-.31-.3-.26-1.6-.27.84,0,1.09-.16-.62-.38a4.52,4.52,0,0,1-1,.2s-.08,0,0-.08c-2.18.09-1.8.19-.79.25-.05,0,0,.11.35.2C70,5.7,66,6.08,65.7,5.53,59.14,5.55,54.46,6,49,6c-.61-.3.68-.51,2.27-.57H47.37c0-.4,2.24-.17,3.44-.21-4.61-.79-9.57.36-15-.13l-1.13.34-.33,0c0,.17-1.2.42-2,.52-.79-.31,0-.83-2.7-.65-2.18-.22-6.13.65-8.91,1.3,1.53-.18,1.06.1.43.31-1.35.24-2.19,0-3.21.39l-.23-.44c.62.3-3.44,1.24-3.87,1.65-.43-.06.07-.28.71-.54a7.08,7.08,0,0,0,1.57-.65c-1.36.33-2.21.59-2.8.77s-.93.29-1.26.41a29.68,29.68,0,0,0-4,1.67c-2.59,1.73.7.14-.41,1.18a21.57,21.57,0,0,0-6.17,5.7c.3-.21.58-.42.88-.59A14,14,0,0,0,.25,22.3,22.48,22.48,0,0,0,0,24.83c0,.82,0,1.63,0,2.48a13.1,13.1,0,0,0,1.27,3.07,11.59,11.59,0,0,0,1.79,2.26,12.49,12.49,0,0,0,3.8,2.53,15.56,15.56,0,0,0,5.34,1.29c2.35.08,2.37-.43,1.22-1.14s-3-1.62-4.33-2.59a13.22,13.22,0,0,1-2.19-1.88,8,8,0,0,1-1.61-2.78A8.23,8.23,0,0,1,5,26.61c-.09-.5-.1-1.12-.18-1.66A9.46,9.46,0,0,1,6,19.46,13,13,0,0,1,11.13,15,35,35,0,0,1,20.65,11.88Z"/><path class="cls-3" d="M546.42,40c-6.15-2.08-11-6.82-12-13.65C533,15.44,541.41,2.87,553.34,3.8c6.62.52,14.18,6,16.55,13.11,1.68,5.07.63,10-1,14.19-3.46,8.67-9.71,11.32-19,9.73A22.43,22.43,0,0,1,546.42,40Z"/><path class="cls-2" d="M532.91,29.44l.08-.37C532.91,29.09,532.86,29.19,532.91,29.44Z"/><path class="cls-2" d="M569.54,34.86a.68.68,0,0,0,0,.09C569.55,34.89,569.55,34.87,569.54,34.86Z"/><path class="cls-2" d="M538.86,18.5h0s0,.05,0,.07Z"/><path class="cls-2" d="M539.22,30.52a8,8,0,0,1-.79-3.48c0-1-.07-2-.2-3.65,0-.79.13-1.61.18-2.44,0-.41.13-.82.19-1.23l.09-.61.16-.59a2,2,0,0,1,.21-1.49,3.27,3.27,0,0,0,.45-1.55l.5-.14a1,1,0,0,1,.4-.93l.08.07c0-.56.47-.88.48-1.16l.07.08.29-.5.06.17A3,3,0,0,1,542,12a3.2,3.2,0,0,1,.84-.82l-.35-.26a4.46,4.46,0,0,0,1.43-1.22,2.38,2.38,0,0,1,1.47-.9l0,.1a2.18,2.18,0,0,1,.87-.94,3.3,3.3,0,0,1,1.08-.24,3.07,3.07,0,0,0,2.17-.83c-.19.2.14.19.14.3.79-.22,1.65-.41,1.62-1.26.65,0,.53.28.62.61,0-.37.54-.52,1.05-.55l-.24.14a9.39,9.39,0,0,1,1.43,0l-.18-.73c.76.3.06.87.82.84l.11-.58c1.07.34,1.43,1.41,2.19,2.16a33.55,33.55,0,0,1,5.72,3.14,8.91,8.91,0,0,1,3.68,5l-.32.35c-.27.17,0,.29.39.44s.65.32.4.5l.44.31c-.06.15-.1.44-.3.28.09.4.19.37.47.6-.08.18-.19.35-.28.52a11,11,0,0,0,.44,2.24,5.55,5.55,0,0,1,.19,2.41,20,20,0,0,0-1.09,4.05L566.29,30c-.2.73-.33,1.46-.53,2a5.86,5.86,0,0,1-3.2,3.81,37.68,37.68,0,0,0-4.19,2c-.11-.05-.33.19-.31.26a11.12,11.12,0,0,1-1.44.21,12.43,12.43,0,0,1-1.5.07,5.07,5.07,0,0,1-.61,0c-.39,0-.92,0-1.55,0s-1.33,0-2.05-.08-1.4,0-2,0c-1.22,0-2.18.16-2.22.92a2.55,2.55,0,0,0,.84,1.61,12.39,12.39,0,0,0,3.32,2.42l-.11.12c2,.6,3.42.74,4.86,0,.13.42.58.44,1.06.34a2.93,2.93,0,0,1,1.25-.19l0,.08a3.6,3.6,0,0,1,2-.48,2.79,2.79,0,0,0,2-.69c0,.08,0,.31-.24.45.91-.45,2-1.29,2.31-.91.53-.31,1-.75,1.6-1.14A16,16,0,0,0,567,39.42a5.7,5.7,0,0,0,1.58-2.85l.06.16c0-1,.52-.93.73-1.85.08,0,.14,0,.16,0a3.47,3.47,0,0,1,.52-1.6,5.4,5.4,0,0,0,.57-1.4l.33.08c.18-.52.35-1.05.51-1.59l-.28.56c-.8-.5,1-1,.74-2.36a2.61,2.61,0,0,0-.42-1.87c-.31-.65-.6-1.26-.31-1.79-.36-.59.63.57.41-.29.48,0,.25.42.65.26-.12-.84.63-1.33.33-2.4l.37,0a3.19,3.19,0,0,1-.17-1.94c.06-.6.13-1.18-.28-1.58a1.21,1.21,0,0,1,.09-1.26c.16-.3.26-.61-.31-1.24.11-.24.2-.48.28-.73-.16-.66-.75-.23-.78-1,.33-.09-.17-.94.3-.68a3.52,3.52,0,0,0-.46-1.21c-.24-.36-.54-.71-.83-1.06a7.35,7.35,0,0,1-1.58-2.53c-.76,0-1.22-1-1.79-.94.18-.25-1.51-1.51-.23-1.11.11,0,.24.17.16.24l.36-.16c-.43-1.38-1.92-1.26-2.8-2.06.23.3.6.59.2.58-.27-.25-.58-.47-.87-.7l.37-.11c-.42-.38-.84-.76-1.3-1.1v.45c-.58-.6-.51-1.33-1.61-1.3-.51.07.44.82-.38.52a12.63,12.63,0,0,0-3.58-2.32c0,.45-.37.32-.77.3L557,1.1c-1.63.13-.37-1-2-.86l.19-.24-.54.72c-1.47.57-.72-.9-2.33.09.61-.06.26.82-.45.66l.18-.36c-.41.07-.54.22-.81.15.23-.18.11-.55-.5-.44a5.63,5.63,0,0,1,.39-.47,12.52,12.52,0,0,0-1.1.78,3.69,3.69,0,0,0-1.54,0c-.49.13-.92.24-1.16,0a7.67,7.67,0,0,0-1,.22,1.66,1.66,0,0,0-1.13.81c.23-.47-.81-.18-.69-.67a3.55,3.55,0,0,1-1,.92,2,2,0,0,1-1.22.52l.07-.1A5.72,5.72,0,0,0,540,4.62a8.81,8.81,0,0,1-2,1.82c.35.23-.5.8.08,1-.41.92-1.24,1.35-1.74,1.88s-.85,1-.33,1.74c-.37.76-.85.66-1.15,1l0-.22c-.7,1.47-.8,1.93-1.34,3-.09.61.66,1,.14,1.9-.19-.42-.27,0-.4.38,0-.25-.05-.36-.42.07a.81.81,0,0,1,.11.34s0,0-.08,0c0,.67.08.58.19.3,0,0,.11,0,.21,0-.55.56-.4,1.84-1,1.82a11.42,11.42,0,0,0,.08,2.69l.45,2.38c-.25.2-.57-.18-.65-.66a9.6,9.6,0,0,0,.16,1.17c-.39,0-.3-.67-.37-1a3.15,3.15,0,0,0,.16,2.2c.1.37.28.74.37,1.13a4.16,4.16,0,0,1,.11,1.24L533,29l0,.11c.16,0,.47.25.61.45-.26.33-.78.23-.48,1-.09.76.89,1.7,1.47,2.34-.16-.44.08-.39.28-.28.19.36,0,.72.32.92l-.38.28c.29-.36,1,.65,1.25.64-.14.39-.63-.33-.89-.28a16.89,16.89,0,0,0,1.58,1.94c.84.42.23-.41.81-.38.59.48,1.31.75,1.76,1.5l.08-.49a5.37,5.37,0,0,1,2.39,2c2.62.57,4.1.26,4.86-.08s.9-.82.68-1.29a3.7,3.7,0,0,0-1-1.23,8.89,8.89,0,0,0-.68-.58,14.45,14.45,0,0,0-3.15-2.25A9.6,9.6,0,0,1,539.22,30.52Z"/><path class="cls-4" d="M494.23,40c-6.15-2.08-11-6.82-12-13.65-1.49-10.88,6.95-23.45,18.88-22.52,6.62.52,14.18,6,16.55,13.11,1.68,5.07.63,10-1,14.19-3.46,8.67-9.71,11.32-19,9.73A22.43,22.43,0,0,1,494.23,40Z"/><path class="cls-2" d="M480.72,29.44l.08-.37C480.72,29.09,480.67,29.19,480.72,29.44Z"/><path class="cls-2" d="M517.35,34.86a.68.68,0,0,0,0,.09C517.36,34.89,517.36,34.87,517.35,34.86Z"/><path class="cls-2" d="M486.67,18.5h0s0,.05,0,.07Z"/><path class="cls-2" d="M487,30.52a8,8,0,0,1-.79-3.48c0-1-.07-2-.2-3.65,0-.79.13-1.61.18-2.44,0-.41.13-.82.19-1.23l.09-.61.16-.59a2,2,0,0,1,.21-1.49,3.27,3.27,0,0,0,.45-1.55l.5-.14a1,1,0,0,1,.4-.93l.08.07c0-.56.47-.88.48-1.16l.07.08.29-.5.06.17a3,3,0,0,1,.58-1.1,3.2,3.2,0,0,1,.84-.82l-.35-.26a4.46,4.46,0,0,0,1.43-1.22,2.38,2.38,0,0,1,1.47-.9l0,.1a2.18,2.18,0,0,1,.87-.94,3.3,3.3,0,0,1,1.08-.24,3.07,3.07,0,0,0,2.17-.83c-.19.2.14.19.14.3.79-.22,1.65-.41,1.62-1.26.65,0,.53.28.62.61,0-.37.54-.52,1.05-.55l-.24.14a9.39,9.39,0,0,1,1.43,0l-.18-.73c.76.3.06.87.82.84l.11-.58c1.07.34,1.43,1.41,2.19,2.16a33.53,33.53,0,0,1,5.72,3.14,8.91,8.91,0,0,1,3.68,5l-.32.35c-.27.17,0,.29.39.44s.65.32.41.5l.44.31c-.06.15-.1.44-.3.28.09.4.19.37.47.6-.08.18-.19.35-.28.52a11,11,0,0,0,.44,2.24,5.55,5.55,0,0,1,.19,2.41,20,20,0,0,0-1.09,4.05L514.1,30c-.2.73-.33,1.46-.53,2a5.86,5.86,0,0,1-3.2,3.81,37.68,37.68,0,0,0-4.19,2c-.11-.05-.33.19-.31.26a11.12,11.12,0,0,1-1.44.21,12.43,12.43,0,0,1-1.5.07,5.07,5.07,0,0,1-.61,0c-.39,0-.92,0-1.55,0s-1.33,0-2.05-.08-1.4,0-2,0c-1.22,0-2.18.16-2.22.92a2.55,2.55,0,0,0,.84,1.61,12.39,12.39,0,0,0,3.32,2.42l-.11.12c2,.6,3.42.74,4.86,0,.13.42.58.44,1.06.34a2.93,2.93,0,0,1,1.25-.19l0,.08a3.6,3.6,0,0,1,2-.48,2.79,2.79,0,0,0,2-.69c0,.08,0,.31-.24.45.91-.45,2-1.29,2.31-.91.53-.31,1-.75,1.6-1.14a16,16,0,0,0,1.49-1.39,5.7,5.7,0,0,0,1.58-2.85l.06.16c0-1,.52-.93.73-1.85.08,0,.14,0,.16,0a3.47,3.47,0,0,1,.52-1.6,5.4,5.4,0,0,0,.57-1.4l.33.08c.18-.52.35-1.05.51-1.59l-.28.56c-.8-.5,1-1,.74-2.36a2.61,2.61,0,0,0-.42-1.87c-.31-.65-.6-1.26-.31-1.79-.36-.59.63.57.41-.29.48,0,.25.42.65.26-.12-.84.63-1.33.33-2.4l.37,0a3.19,3.19,0,0,1-.17-1.94c.06-.6.13-1.18-.28-1.58a1.21,1.21,0,0,1,.09-1.26c.16-.3.26-.61-.31-1.24.11-.24.2-.48.28-.73-.16-.66-.75-.23-.78-1,.33-.09-.17-.94.3-.68a3.52,3.52,0,0,0-.46-1.21c-.24-.36-.54-.71-.83-1.06A7.35,7.35,0,0,1,517,9.19c-.76,0-1.22-1-1.79-.94.18-.25-1.51-1.51-.23-1.11.11,0,.24.17.16.24l.36-.16c-.43-1.38-1.92-1.26-2.8-2.06.23.3.6.59.2.58-.27-.25-.58-.47-.87-.7l.37-.11c-.42-.38-.84-.76-1.3-1.1v.45c-.58-.6-.51-1.33-1.61-1.3-.51.07.44.82-.38.52a12.63,12.63,0,0,0-3.58-2.32c0,.45-.37.32-.77.3l.05-.37c-1.63.13-.37-1-2-.86L503,0l-.54.72c-1.47.57-.72-.9-2.33.09.61-.06.26.82-.45.66l.18-.36c-.41.07-.54.22-.81.15.23-.18.11-.55-.5-.44A5.63,5.63,0,0,1,499,.34a12.52,12.52,0,0,0-1.1.78,3.69,3.69,0,0,0-1.54,0c-.49.13-.92.24-1.16,0a7.67,7.67,0,0,0-1,.22,1.66,1.66,0,0,0-1.13.81c.23-.47-.81-.18-.69-.67a3.55,3.55,0,0,1-1,.92,2,2,0,0,1-1.22.52l.07-.1a5.72,5.72,0,0,0-2.39,1.71,8.81,8.81,0,0,1-2,1.82c.35.23-.5.8.08,1-.41.92-1.24,1.35-1.74,1.88s-.85,1-.33,1.74c-.37.76-.85.66-1.15,1l0-.22c-.7,1.47-.8,1.93-1.34,3-.09.61.66,1,.14,1.9-.19-.42-.27,0-.4.38,0-.25-.05-.36-.42.07a.81.81,0,0,1,.11.34s0,0-.08,0c0,.67.08.58.19.3,0,0,.11,0,.21,0-.55.56-.4,1.84-1,1.82a11.42,11.42,0,0,0,.08,2.69l.45,2.38c-.25.2-.57-.18-.65-.66a9.6,9.6,0,0,0,.16,1.17c-.39,0-.3-.67-.37-1a3.15,3.15,0,0,0,.16,2.2c.1.37.28.74.37,1.13a4.18,4.18,0,0,1,.12,1.24l.39.26,0,.11c.16,0,.47.25.61.45-.26.33-.78.23-.48,1-.09.76.89,1.7,1.47,2.34-.16-.44.08-.39.28-.28.19.36,0,.72.32.92l-.38.28c.28-.36,1,.65,1.25.64-.14.39-.63-.33-.89-.28a16.89,16.89,0,0,0,1.58,1.94c.84.42.23-.41.81-.38.59.48,1.31.75,1.76,1.5l.08-.49a5.37,5.37,0,0,1,2.39,2c2.62.57,4.1.26,4.86-.08s.9-.82.68-1.29a3.7,3.7,0,0,0-1-1.23,8.89,8.89,0,0,0-.68-.58,14.45,14.45,0,0,0-3.15-2.25A9.6,9.6,0,0,1,487,30.52Z"/><path class="cls-5" d="M602.17,40c-6.15-2.08-11-6.82-12-13.65-1.49-10.88,6.95-23.45,18.88-22.52,6.62.52,14.18,6,16.55,13.11,1.68,5.07.63,10-1,14.19-3.46,8.67-9.71,11.32-19,9.73A22.43,22.43,0,0,1,602.17,40Z"/><path class="cls-2" d="M588.66,29.44l.08-.37C588.66,29.09,588.61,29.19,588.66,29.44Z"/><path class="cls-2" d="M625.29,34.86a.78.78,0,0,0,0,.09C625.3,34.89,625.3,34.87,625.29,34.86Z"/><path class="cls-2" d="M594.61,18.5h0s0,.05,0,.07Z"/><path class="cls-2" d="M595,30.52a8,8,0,0,1-.79-3.48c0-1-.07-2-.2-3.65,0-.79.13-1.61.18-2.44,0-.41.13-.82.19-1.23l.09-.61.16-.59a2,2,0,0,1,.21-1.49,3.27,3.27,0,0,0,.45-1.55l.5-.14a1,1,0,0,1,.4-.93l.08.07c0-.56.47-.88.48-1.16l.07.08.29-.5.06.17a3,3,0,0,1,.58-1.1,3.19,3.19,0,0,1,.84-.82l-.35-.26a4.45,4.45,0,0,0,1.43-1.22,2.38,2.38,0,0,1,1.48-.9l0,.1a2.18,2.18,0,0,1,.87-.94,3.3,3.3,0,0,1,1.08-.24,3.07,3.07,0,0,0,2.17-.83c-.19.2.14.19.14.3.79-.22,1.65-.41,1.62-1.26.65,0,.53.28.62.61,0-.37.54-.52,1.05-.55l-.24.14a9.39,9.39,0,0,1,1.43,0l-.18-.73c.76.3.06.87.82.84l.11-.58c1.07.34,1.43,1.41,2.19,2.16a33.55,33.55,0,0,1,5.72,3.14,8.91,8.91,0,0,1,3.68,5l-.32.35c-.27.17,0,.29.39.44s.65.32.41.5l.44.31c-.06.15-.1.44-.3.28.09.4.19.37.47.6-.08.18-.19.35-.28.52a11,11,0,0,0,.44,2.24,5.55,5.55,0,0,1,.19,2.41,20,20,0,0,0-1.09,4.05L622,30c-.2.73-.33,1.46-.53,2a5.86,5.86,0,0,1-3.2,3.81,37.68,37.68,0,0,0-4.19,2c-.11-.05-.33.19-.31.26a11.12,11.12,0,0,1-1.44.21,12.43,12.43,0,0,1-1.5.07,5.07,5.07,0,0,1-.61,0c-.39,0-.92,0-1.55,0s-1.33,0-2.05-.08-1.4,0-2,0c-1.22,0-2.18.16-2.22.92a2.55,2.55,0,0,0,.84,1.61,12.39,12.39,0,0,0,3.32,2.42l-.11.12c2,.6,3.42.74,4.86,0,.14.42.58.44,1.06.34a2.93,2.93,0,0,1,1.25-.19l0,.08a3.6,3.6,0,0,1,2-.48,2.79,2.79,0,0,0,2-.69c0,.08,0,.31-.24.45.91-.45,2-1.29,2.31-.91.53-.31,1-.75,1.6-1.14a16,16,0,0,0,1.49-1.39,5.7,5.7,0,0,0,1.58-2.85l.06.16c0-1,.52-.93.73-1.85.08,0,.14,0,.16,0a3.47,3.47,0,0,1,.52-1.6,5.38,5.38,0,0,0,.57-1.4l.33.08c.18-.52.35-1.05.51-1.59l-.28.56c-.8-.5,1-1,.74-2.36a2.61,2.61,0,0,0-.42-1.87c-.31-.65-.6-1.26-.31-1.79-.36-.59.63.57.41-.29.48,0,.25.42.65.26-.12-.84.63-1.33.33-2.4l.37,0a3.18,3.18,0,0,1-.17-1.94c.06-.6.13-1.18-.28-1.58a1.21,1.21,0,0,1,.09-1.26c.17-.3.26-.61-.31-1.24.11-.24.2-.48.28-.73-.16-.66-.75-.23-.78-1,.33-.09-.17-.94.3-.68a3.52,3.52,0,0,0-.46-1.21c-.24-.36-.54-.71-.83-1.06A7.35,7.35,0,0,1,625,9.19c-.76,0-1.22-1-1.79-.94.18-.25-1.51-1.51-.23-1.11.11,0,.24.17.16.24l.36-.16c-.43-1.38-1.92-1.26-2.8-2.06.23.3.6.59.2.58-.27-.25-.58-.47-.87-.7l.37-.11c-.42-.38-.84-.76-1.3-1.1v.45c-.58-.6-.51-1.33-1.61-1.3-.51.07.44.82-.38.52a12.63,12.63,0,0,0-3.58-2.32c0,.45-.37.32-.77.3l.05-.37c-1.63.13-.37-1-2-.86L611,0l-.54.72c-1.47.57-.72-.9-2.33.09.61-.06.26.82-.45.66l.18-.36c-.41.07-.54.22-.81.15.23-.18.11-.55-.5-.44a5.83,5.83,0,0,1,.39-.47,12.51,12.51,0,0,0-1.1.78,3.69,3.69,0,0,0-1.54,0c-.49.13-.92.24-1.17,0a7.68,7.68,0,0,0-1,.22,1.66,1.66,0,0,0-1.13.81c.23-.47-.81-.18-.69-.67a3.54,3.54,0,0,1-1,.92,2,2,0,0,1-1.22.52l.07-.1a5.72,5.72,0,0,0-2.39,1.71,8.81,8.81,0,0,1-2,1.82c.35.23-.5.8.08,1-.41.92-1.24,1.35-1.74,1.88s-.85,1-.33,1.74c-.37.76-.85.66-1.15,1l0-.22c-.7,1.47-.8,1.93-1.34,3-.09.61.66,1,.14,1.9-.19-.42-.27,0-.4.38,0-.25-.05-.36-.42.07a.81.81,0,0,1,.11.34s0,0-.08,0c0,.67.08.58.19.3,0,0,.11,0,.21,0-.55.56-.4,1.84-1,1.82a11.42,11.42,0,0,0,.08,2.69l.45,2.38c-.25.2-.57-.18-.65-.66a9.6,9.6,0,0,0,.16,1.17c-.39,0-.3-.67-.37-1a3.15,3.15,0,0,0,.16,2.2c.1.37.28.74.37,1.13a4.16,4.16,0,0,1,.11,1.24l.39.26,0,.11c.16,0,.47.25.61.45-.26.33-.78.23-.48,1-.09.76.89,1.7,1.47,2.34-.16-.44.08-.39.28-.28.19.36,0,.72.32.92l-.38.28c.29-.36,1,.65,1.25.64-.14.39-.63-.33-.89-.28a16.83,16.83,0,0,0,1.58,1.94c.84.42.23-.41.81-.38.59.48,1.31.75,1.76,1.5l.08-.49a5.37,5.37,0,0,1,2.39,2c2.62.57,4.1.26,4.86-.08s.9-.82.68-1.29a3.7,3.7,0,0,0-1-1.23,8.84,8.84,0,0,0-.68-.58,14.46,14.46,0,0,0-3.15-2.25A9.6,9.6,0,0,1,595,30.52Z"/><path class="cls-6" d="M657.92,40c-6.15-2.08-11-6.82-12-13.65-1.49-10.88,6.95-23.45,18.88-22.52,6.62.52,14.18,6,16.55,13.11,1.68,5.07.63,10-1,14.19-3.46,8.67-9.71,11.32-19,9.73A22.43,22.43,0,0,1,657.92,40Z"/><path class="cls-2" d="M644.41,29.44l.08-.37C644.41,29.09,644.36,29.19,644.41,29.44Z"/><path class="cls-2" d="M681,34.86a.78.78,0,0,0,0,.09C681.05,34.89,681,34.87,681,34.86Z"/><path class="cls-2" d="M650.36,18.5h0s0,.05,0,.07Z"/><path class="cls-2" d="M650.72,30.52a8,8,0,0,1-.79-3.48c0-1-.07-2-.2-3.65,0-.79.13-1.61.18-2.44,0-.41.13-.82.19-1.23l.09-.61.16-.59a2,2,0,0,1,.21-1.49,3.28,3.28,0,0,0,.45-1.55l.5-.14a1,1,0,0,1,.4-.93l.08.07c0-.56.47-.88.48-1.16l.07.08.29-.5.06.17a3,3,0,0,1,.58-1.1,3.19,3.19,0,0,1,.84-.82l-.35-.26a4.45,4.45,0,0,0,1.43-1.22,2.38,2.38,0,0,1,1.48-.9l0,.1a2.19,2.19,0,0,1,.87-.94,3.3,3.3,0,0,1,1.08-.24A3.07,3.07,0,0,0,661,6.84c-.19.2.14.19.14.3.79-.22,1.65-.41,1.62-1.26.65,0,.53.28.62.61,0-.37.54-.52,1.05-.55l-.24.14a9.39,9.39,0,0,1,1.43,0l-.18-.73c.76.3.06.87.82.84l.11-.58c1.07.34,1.43,1.41,2.19,2.16a33.53,33.53,0,0,1,5.72,3.14A8.91,8.91,0,0,1,678,16l-.32.35c-.27.17,0,.29.39.44s.65.32.41.5l.44.31c-.06.15-.1.44-.3.28.09.4.19.37.47.6-.08.18-.19.35-.28.52a11.07,11.07,0,0,0,.44,2.24,5.54,5.54,0,0,1,.19,2.41,20,20,0,0,0-1.09,4.05L677.79,30c-.2.73-.33,1.46-.53,2a5.86,5.86,0,0,1-3.2,3.81,37.68,37.68,0,0,0-4.19,2c-.11-.05-.33.19-.31.26a11.12,11.12,0,0,1-1.44.21,12.43,12.43,0,0,1-1.5.07,5.07,5.07,0,0,1-.61,0c-.39,0-.92,0-1.55,0s-1.33,0-2.05-.08-1.4,0-2,0c-1.22,0-2.18.16-2.22.92a2.55,2.55,0,0,0,.84,1.61,12.39,12.39,0,0,0,3.32,2.42l-.11.12c2,.6,3.42.74,4.86,0,.14.42.58.44,1.06.34a2.93,2.93,0,0,1,1.25-.19l0,.08a3.6,3.6,0,0,1,2-.48,2.79,2.79,0,0,0,2-.69c0,.08,0,.31-.24.45.91-.45,2-1.29,2.31-.91.53-.31,1-.75,1.6-1.14a16,16,0,0,0,1.49-1.39,5.7,5.7,0,0,0,1.58-2.85l.06.16c0-1,.52-.93.73-1.85.08,0,.14,0,.16,0a3.47,3.47,0,0,1,.52-1.6,5.38,5.38,0,0,0,.57-1.4l.33.08c.18-.52.35-1.05.51-1.59l-.28.56c-.8-.5,1-1,.74-2.36a2.61,2.61,0,0,0-.42-1.87c-.31-.65-.6-1.26-.31-1.79-.36-.59.63.57.41-.29.48,0,.25.42.65.26-.12-.84.63-1.33.33-2.4l.37,0a3.19,3.19,0,0,1-.17-1.94c.06-.6.13-1.18-.28-1.58a1.21,1.21,0,0,1,.09-1.26c.17-.3.26-.61-.31-1.24.11-.24.2-.48.28-.73-.16-.66-.75-.23-.78-1,.33-.09-.17-.94.3-.68a3.52,3.52,0,0,0-.46-1.21c-.24-.36-.54-.71-.83-1.06a7.35,7.35,0,0,1-1.58-2.53c-.76,0-1.22-1-1.79-.94.18-.25-1.51-1.51-.23-1.11.11,0,.24.17.16.24l.36-.16c-.43-1.38-1.92-1.26-2.8-2.06.23.3.6.59.2.58-.27-.25-.58-.47-.87-.7l.37-.11c-.42-.38-.84-.76-1.3-1.1v.45c-.58-.6-.51-1.33-1.61-1.3-.51.07.44.82-.38.52a12.62,12.62,0,0,0-3.58-2.32c0,.45-.37.32-.77.3l.05-.37c-1.63.13-.37-1-2-.86l.18-.24-.54.72c-1.47.57-.72-.9-2.33.09.61-.06.26.82-.45.66l.18-.36c-.41.07-.54.22-.81.15.23-.18.11-.55-.5-.44a5.73,5.73,0,0,1,.39-.47,12.51,12.51,0,0,0-1.1.78,3.69,3.69,0,0,0-1.54,0c-.49.13-.92.24-1.17,0a7.68,7.68,0,0,0-1,.22,1.66,1.66,0,0,0-1.13.81c.23-.47-.81-.18-.69-.67a3.54,3.54,0,0,1-1,.92,2,2,0,0,1-1.22.52l.07-.1a5.71,5.71,0,0,0-2.39,1.71,8.81,8.81,0,0,1-2,1.82c.35.23-.5.8.08,1-.41.92-1.24,1.35-1.74,1.88s-.85,1-.33,1.74c-.37.76-.85.66-1.15,1l0-.22c-.7,1.47-.8,1.93-1.34,3-.09.61.66,1,.14,1.9-.19-.42-.27,0-.4.38,0-.25-.05-.36-.42.07a.81.81,0,0,1,.11.34s0,0-.08,0c0,.67.08.58.19.3,0,0,.11,0,.21,0-.55.56-.4,1.84-1,1.82a11.44,11.44,0,0,0,.08,2.69l.45,2.38c-.25.2-.57-.18-.65-.66a9.51,9.51,0,0,0,.16,1.17c-.39,0-.3-.67-.37-1a3.15,3.15,0,0,0,.16,2.2c.1.37.28.74.37,1.13a4.16,4.16,0,0,1,.11,1.24l.39.26,0,.11c.16,0,.47.25.61.45-.26.33-.78.23-.48,1-.09.76.89,1.7,1.47,2.34-.16-.44.08-.39.28-.28.19.36,0,.72.32.92l-.38.28c.29-.36,1,.65,1.25.64-.14.39-.63-.33-.89-.28a16.88,16.88,0,0,0,1.58,1.94c.84.42.23-.41.81-.38.59.48,1.31.75,1.76,1.5l.08-.49a5.37,5.37,0,0,1,2.39,2c2.62.57,4.1.26,4.86-.08s.9-.82.68-1.29a3.7,3.7,0,0,0-1-1.23,8.84,8.84,0,0,0-.68-.58A14.46,14.46,0,0,0,654,33.27,9.61,9.61,0,0,1,650.72,30.52Z"/><path class="cls-7" d="M187,24.22l-.2.19C186.85,24.42,186.93,24.37,187,24.22Z"/><path class="cls-7" d="M148.92,32.07l0,0S148.92,32.08,148.92,32.07Z"/><path class="cls-7" d="M179.54,25.69h0v0Z"/><path class="cls-7" d="M181.56,23.1a.35.35,0,0,1-.19.31,2.83,2.83,0,0,1-.33.28,1,1,0,0,0-.49.73,14.44,14.44,0,0,1-1,1.26.42.42,0,0,1-.3.53c-.19.09-.36.14-.46.46l-.26-.28c-.06.22-.18.38-.36.24l0-.1c-.12.32-.39.22-.46.37l0-.1-.24.1v-.15a1.06,1.06,0,0,1-1.09.35l.08.43c-.84-.41-1.1.5-1.9-.06v-.11c-1,1.15-1.55-.81-2.73.22.15-.13,0-.23,0-.33-.54.1-1.11.14-1.16,1-.39,0-.3-.28-.34-.61,0,.37-.36.51-.66.53l.15-.14-.87.09.14.71c-.45-.22-.08-.87-.53-.71l0,.59c-.63-.14-1-1-1.57-1.49-2.56-.33-5.32,1.11-7.66,0l-.1-.44c0-.64-.67.94-.75.35l-.28.29c-.08-.12-.24-.24-.1-.38-.25,0-.26.08-.45.27l-.27-.4c-1-.33-1.86.43-2.9.26-1.25-.84-3.62-.14-5,.26-2,.91-4.07-1.74-6.05-.74-.06-.09-.23.1-.24.17l-1.77-.19a10.42,10.42,0,0,0-3.52.28c-1.37.49-2.07,1.71,1.07,4.65l-.06.14c1,.41,1.61.54,2.34-.13.06.87.82.14,1,.43l0,.07c.65-.63,1.23.62,1.85.05,0,.07-.05.3-.19.31.43-.09,1-.25,1,.25,1-.09,2.45.2,3.13-.58l0,.14c.39-.53.48-.07.91-.33,0,.07,0,.1,0,.13.42-.52,1.18,0,1.52-.27v.33l.81-.06L151,32c.13-.92.6.59,1.19,0,.54.13,1.14-1.89,1.7-1.43.28-.42-.25.69.16.37,0,.48-.19.3-.1.68.4-.22.64.5,1.14.19v.37c.65-.67,1.19.51,1.63-.13.66-.3.42,1.11,1.12.4l.26.51c.29.09.22-.62.54-.37,0,.32.41.26.21.56.72.51,1.5-.68,2.45.18.22-.61.7-.24.86-.7,0,.27,1,.06.41.64,0,0-.13,0-.12-.07l-.07.37c.53.7,1-.36,1.54-.24-.16-.13-.37-.1-.22-.35l.5.06-.11.31.74.2-.09-.38c.36.21.47.86.9.33.19-.3-.33-.52.06-.63a7.19,7.19,0,0,0,1.82.82c0-.43.12-.41.3-.49v.37c.68-.49.21.83.88.44l-.07.26.2-.77c.62-.72.29.79,1-.2-.26.05-.09-.83.23-.65l-.1.36c.18-.07.25-.22.36-.14-.11.19-.08.52.18.47l-.19.44.52-.64c.36.4,1-.05,1.11.46,0,0,.86.29,1.08-.26-.19.34.29.49.14.89.25-.38.93-.69,1.22-.27l-.05,0c1.07.42,1.79-.61,2.83-.2-.09-.43.46-.25.26-.79.47-.33,1-.14,1.39-.09s.74,0,.69-.92c.42-.21.65.22.92.23l-.08.12c.82-.44,1.08-.57,1.73-.86.24-.31-.11-1,.49-1.18,0,.37.18.19.37.06-.09.12-.07.25.31.25a.56.56,0,0,1,0-.27s0,0,.05.06c.24-.33.13-.36,0-.29a.29.29,0,0,0-.17-.12c.57.09.83-.71,1.23-.35a6.69,6.69,0,0,0,1.13-2.88c.3,0,.41.35.35.67l.26-.68c.36.19,0,.48,0,.71.51-.22.58-.74.61-1.25a2.21,2.21,0,0,1,.38-1.5l-.28-.27.06-.05c-.17,0-.35-.28-.41-.43.36-.12.81.08.82-.47.34-.49-.25-1.35-.61-1.8,0,.31-.19.26-.34.17-.08-.23.21-.5,0-.64l.43-.19c-.38.25-.71-.46-.94-.44.24-.29.45.21.71.18a6.57,6.57,0,0,0-.86-1.36c-.62-.22-.29.34-.78.39-.36-.3-.86-.36-1.05-.88l-.15.42a1.93,1.93,0,0,1-1.43-1.05,2.83,2.83,0,0,0-1.75.86,2.06,2.06,0,0,0-.52,1.07,1.62,1.62,0,0,0,.24,1.41,3,3,0,0,1,.31,1,.27.27,0,0,1,0,.15l0,0h0l.08-.29h0v.06a1.3,1.3,0,0,1-.07.2,1.14,1.14,0,0,0-.05.13l.21-.08A1.07,1.07,0,0,1,181.56,23.1Z"/><path class="cls-7" d="M129.7,31l0-.17A.36.36,0,0,0,129.7,31Z"/><path class="cls-7" d="M122.75,31.54v0A.14.14,0,0,0,122.75,31.54Z"/><path class="cls-7" d="M128,25.29h0v0Z"/><path class="cls-7" d="M129.35,25.62c-.36-.17-.54-1-.85-.6-.17,0-.32.16-.47.27,0,.64-.21,0-.25.57l-.07-.35c0,.18,0,.31-.09.12v-.1c0,.28-.09.12-.1.26v-.1l-.05.05v-.15c-.05.3-.14.32-.22.2l0,.43c-.2-.47-.18.43-.38-.13V26c-.09,1.16-.35-.76-.45.34a1.64,1.64,0,0,0,0-.33c-.08.13-.16.2-.1,1.06-.06,0-.07-.26-.1-.59,0,.37,0,.53-.07.56v-.15L126,27l.07.7c-.09-.2-.08-.86-.14-.68l0,.58a10.49,10.49,0,0,1-.36-1.42c-.42-.23-.81,1.29-1.24.27l0-.44c0-.64-.07,1-.11.36l0,.29a1.34,1.34,0,0,1,0-.38s0,.08-.06.28l-.06-.4c-.17-.31-.29.47-.47.32-.23-.81-.6-.05-.82.38-.32,1-.69-1.6-1-.5,0-.09,0,.11,0,.19l-.3-.09s-.36-.07-.6.53-.38,1.87.15,4.54v.14c.17.34.28.42.42-.28,0,.86.14.09.18.37v.07c.11-.66.22.55.33,0a1.35,1.35,0,0,1,0,.32c.08-.11.18-.3.19.2.18-.13.44.1.55-.7v.14c.06-.54.09-.08.16-.36v.13c.07-.54.21-.09.26-.31v.33l.14-.08-.05-.07c0-.92.12.57.21,0,.1.11.16-1.91.26-1.47,0-.43,0,.7,0,.37,0,.48,0,.3,0,.68.06-.23.13.49.21.16v.37c.09-.68.23.48.29-.17.11-.31.12,1.1.21.37l.07.5c.06.08,0-.62.08-.38s.08.25.06.55c.15.49.24-.72.45.12,0-.62.11-.26.12-.72,0,.27.18,0,.11.62,0,0,0,0,0-.06v.37c.13.69.16-.39.27-.29a.53.53,0,0,1-.06-.34l.09,0v.31l.15.17,0-.38c.08.19.14.84.18.29,0-.3-.09-.51,0-.63a2.74,2.74,0,0,0,.38.75c0-.43,0-.41,0-.5l0,.37c.09-.53.1.82.19.4v.26l0-.78c.06-.75.11.77.16-.25,0,.07-.08-.82,0-.66v.36c0-.08,0-.23.05-.16s0,.52.07.46v.45l0-.67c.1.38.17-.11.24.39,0,0,.17.24.16-.32,0,.35.09.47.1.88,0-.39.1-.72.18-.31v0c.21.41.24-.61.44-.1,0-.43.06-.2,0-.75.11-.56.39,1.09.29-.62.06-.1.12.39.17.48v.09c.12-.15.16-.17.26-.14,0-.17,0-1,.07-.78s0,.26.07.25a.75.75,0,0,0,.06.37,1.81,1.81,0,0,1,0-.21v.08a.29.29,0,0,0,0-.25,1.75,1.75,0,0,0,0-.2c.1.4.16,0,.22.49.15-.14.21-.71.32-.94a1.86,1.86,0,0,1,0,.64l.09-.11c0,.4,0,.24-.05.32.19.63.16-.67.37-.1v-.27a2,2,0,0,1,0-.45c.06.35.1.8.16.77.09.33.13-.19.18-.38a.85.85,0,0,1-.06-.37s.09.33.1.18l.06.47a2.34,2.34,0,0,1,0-.68c.06.34,0,.31,0,.57l.19-.09a6.24,6.24,0,0,0-.09-.86c.05-.1.07-.43.18-.16l-.08-.41c.07-.34.15-.3.28.11a10.91,10.91,0,0,0-.11-3.64,3.14,3.14,0,0,0-.37-1C129.69,24,129.69,25.24,129.35,25.62Z"/><path class="cls-7" d="M115.57,31.44v-.17A1.39,1.39,0,0,0,115.57,31.44Z"/><path class="cls-7" d="M113.9,31.51v0S113.9,31.52,113.9,31.51Z"/><path class="cls-7" d="M115.32,25.56v0Z"/><path class="cls-7" d="M115.65,26c-.09-.21-.11-1-.2-.69,0-.07-.09.12-.13.22,0,.63-.06,0-.08.54v-.36c0,.18,0,.3,0,.11v-.1c0,.27,0,.11,0,.25v-.11l0,0v-.15c0,.29,0,.31-.06.18v.44c0-.49-.06.42-.1-.16v-.11c0,1.15-.08-.78-.12.31,0-.14,0-.22,0-.33a4.83,4.83,0,0,0,0,1,4.57,4.57,0,0,1,0-.6,2.64,2.64,0,0,1,0,.55V27l0,.13v.71c0-.2,0-.86,0-.69v.59c0-.12,0-1-.07-1.44-.11-.25-.23,1.24-.33.21V26c0-.64,0,1,0,.36v.29c0-.11,0-.24,0-.38s0,.08,0,.27v-.4c0-.31-.08.46-.12.3-.05-.82-.16-.07-.22.37-.08,1-.18-1.6-.27-.5,0-.09,0,.11,0,.19l-.08-.09s-.38-.25-.09,5.08v.14c0,.34.07.42.1-.29,0,.86,0,.09,0,.37v.07c0-.67.05.55.08,0,0,.07,0,.31,0,.32s0-.3,0,.2c0-.13.1.1.13-.7v.14c0-.54,0-.08,0-.36,0,.07,0,.1,0,.13,0-.54.05-.08.06-.31v.33l0-.08v-.07c0-.92,0,.58.05,0,0,.12,0-1.91.07-1.46,0-.43,0,.7,0,.37,0,.48,0,.3,0,.68,0-.23,0,.49,0,.17v.37c0-.68.05.49.07-.16,0-.31,0,1.11,0,.38v.5c0,.08,0-.62,0-.37s0,.25,0,.56c0,.5.06-.71.11.13,0-.62,0-.25,0-.72a3.32,3.32,0,0,1,0,.63s0,0,0-.07v.37c0,.69,0-.38.07-.27a2.16,2.16,0,0,1,0-.34l0,0v.31l0,.18v-.38c0,.2,0,.85,0,.3,0-.3,0-.51,0-.63,0,.26.05.65.08.77a3.26,3.26,0,0,1,0-.5v.37c0-.52,0,.82,0,.41v-.52c0-.74,0,.77,0-.24a5.4,5.4,0,0,1,0-.66v.36c0-.08,0-.23,0-.15a2.83,2.83,0,0,0,0,.46v.45l0-.66c0,.39,0-.1,0,.41,0,0,0,.25,0-.31,0,.35,0,.48,0,.88,0-.39,0-.71,0-.29v0c0,.43.07-.58.11-.07,0-.43,0-.2,0-.75s.07,1.13.08-.59a3.93,3.93,0,0,1,0,.49V32c0-.14,0-.16.06-.12a6.67,6.67,0,0,1,0-.77c0,.32,0,.26,0,.26a3,3,0,0,0,0,.38c0-.1,0-.16,0-.21s0,0,0,.08a1.13,1.13,0,0,0,0-.25s0-.11,0-.2c0,.41,0,0,0,.52,0-.13.07-.69.1-.9,0,.28,0,.53,0,.64l0-.1c0,.4,0,.23,0,.31,0,.65.06-.65.09-.05v-.27c0-.17,0-.4,0-.45,0,.35,0,.81,0,.79,0,.34,0-.17.05-.36a3.43,3.43,0,0,1,0-.38s0,.34,0,.19v.47c0-.45,0-.48,0-.67,0,.35,0,.3,0,.57l0-.07c0-.36,0-.45,0-.86,0-.09,0-.42,0-.14v-.42c0-.33,0-.28.07.15a27.92,27.92,0,0,0,0-4.67C115.8,24.49,115.76,25.71,115.65,26Z"/><path class="cls-8" d="M491.05,23.58l.17-.08C491.14,23.5,491.07,23.52,491.05,23.58Z"/><path class="cls-8" d="M502.49,13.15v0A.07.07,0,0,0,502.49,13.15Z"/><path class="cls-8" d="M497,22.46h0l0,0Z"/><path class="cls-8" d="M496.48,23.64c.17-.34,1-.35.69-.65.08-.13-.06-.32-.12-.52-.57-.27.07-.22-.39-.52L497,22c-.15-.1-.24-.2,0-.15l.09,0c-.22-.16,0-.16-.16-.24l.09,0v-.09l.13.08c-.21-.22-.16-.33,0-.35l-.38-.21c.51.06-.18-.48.4-.33l.08.06c-.4-.44-.16-.41.06-.36s.42.12.12-.33c.08.12.17.14.25.22,0-.16,0-.3-.56-.92.08-.06.24.14.47.38-.26-.27-.3-.44-.25-.51l.07.13.08-.24-.48-.52c.23.07.56.65.54.44l-.36-.46c.22,0,.81.66,1.15.95.31-.05.44-.48.66-.82s.54-.58,1-.19l.16.41c.2.61-.11-1,.08-.4v-.3a.8.8,0,0,1,.13.36c.07,0,0-.1,0-.3l.17.37c.33.24.39-.57.73-.47.48.73,1-.09,1.45-.55s.63-.12,1,.26.66.74,1,.2c0,.09.08-.11.08-.19l.58.11a1.48,1.48,0,0,0,1.21-.47c.49-.57.84-1.82-.21-4.56l0-.14c-.35-.36-.59-.45-.88.25,0-.86-.3-.1-.38-.38v-.07c-.25.66-.47-.56-.7,0,0-.07,0-.31.07-.32-.17.11-.39.3-.41-.2-.39.13-1-.08-1.2.73v-.14c-.12.55-.19.09-.33.38a1,1,0,0,1,0-.13c-.12.54-.45.11-.56.36l0-.33-.31.11.13.06c.06.92-.3-.55-.47.07-.24-.08-.15,1.95-.42,1.54,0,.44,0-.71-.12-.35-.09-.47,0-.31-.08-.68-.11.25-.34-.43-.48-.08l-.08-.36c-.11.71-.59-.37-.62.3-.18.36-.46-1-.55-.25l-.25-.45c-.15,0,.09.62-.12.42s-.25-.19-.26-.5c-.48-.37-.4.88-1.1.25.14.61-.2.36-.08.81-.12-.24-.42.13-.43-.5,0-.05,0-.06.08,0l-.12-.35c-.53-.53-.27.55-.54.56.12.07.2,0,.25.26l-.23.06-.1-.3h-.4l.23.31c-.24-.09-.62-.62-.52,0,.08.3.4.36.31.56a2,2,0,0,0-1.19-.14c.27.33.19.37.17.49l-.23-.29c0,.62-.61-.58-.64,0l-.14-.22.42.67c.25.76-.63-.48-.23.51.06-.13.59.58.37.55l-.21-.29c0,.11.07.24,0,.23-.09-.17-.34-.4-.39-.26l-.25-.39.29.65c-.41-.14-.26.41-.69.13,0,0-.46.15-.09.58-.21-.29-.46-.19-.73-.5.23.34.29.77-.12.63l0,0c-.62.16,0,1-.62,1.08.38.2.07.28.58.5.28.59-1.37.19.12,1.05,0,.2-.46,0-.58.09l-.06-.08a1.29,1.29,0,0,1-.15.72c.11.18.86.44.61.59-.28-.16-.25-.06-.27,0s-.14-.12-.37-.06a.79.79,0,0,1,.18.12l-.08,0c.07.17.17.17.23.12l.2,0c-.43,0-.07.4-.6.29,0,.46.55.86.71,1.21a.78.78,0,0,1-.62-.21c0,.09,0,.18.08.27-.4,0-.23-.17-.29-.26-.68.28.6.69,0,1l.32.07-.05,0a.94.94,0,0,1,.46.12c-.35.07-.81,0-.77.22-.33.18.19.42.42.57,0-.11.24-.1.37-.08s-.31.19-.15.24l-.46.09c.43-.11.52.15.71.14-.33.13-.32-.07-.58,0a3.4,3.4,0,0,0,.19.54c.4.09.42-.16.85-.18.14.13.49.16.28.42l.38-.2c.4.14.42.27.12.63a4,4,0,0,0,2.23-.49,4.37,4.37,0,0,0,1.17-.85l.8-.71c.36-.29.32-.24.07-.21A1.29,1.29,0,0,1,496.48,23.64Z"/><path class="cls-9" d="M546.07,22.14l.16-.07C546.16,22.08,546.09,22.11,546.07,22.14Z"/><path class="cls-9" d="M550.22,13l0,0Z"/><path class="cls-9" d="M551.85,20.78h0Z"/><path class="cls-9" d="M551.43,21.37c.17-.2,1-.3.64-.38.06-.06-.12-.12-.22-.21-.63-.09,0-.11-.52-.23l.36,0c-.18,0-.29-.09-.1-.07l.1,0c-.26-.07-.1-.08-.23-.12l.1,0,0,0,.15,0c-.28-.1-.27-.17-.14-.19l-.42-.1c.49,0-.35-.27.23-.21l.1,0c-1-.51.8.08-.16-.44a2.17,2.17,0,0,0,.31.12c-.09-.1-.12-.19-.9-.56,0,0,.26.07.56.21-.34-.16-.46-.27-.46-.32l.12.08-.06-.17-.64-.31c.21,0,.77.39.65.25l-.52-.28a7,7,0,0,1,1.36.52c.19-.07,0-.4,0-.68s0-.53.51-.33l.34.28c.48.42-.64-.71-.19-.32l-.19-.23a1.35,1.35,0,0,1,.29.25s0-.08-.15-.24l.32.24c.33.1-.12-.54.12-.55.71.44.5-.37.42-.88-.33-1,1.61.75,1.23-.34.07.06,0-.12-.08-.18l.34-.15s.39-.21.26-.87-.79-1.75-2.95-3.47l-.08-.12c-.38-.15-.53-.12-.23.53-.54-.68-.2,0-.41-.15l0-.06c.3.61-.56-.27-.3.29,0-.06-.18-.25-.17-.28,0,.15,0,.38-.31,0-.1.25-.51.28-.12,1l-.08-.11c.28.47,0,.13.07.41l-.09-.09c.27.47-.16.24-.06.47l-.22-.25-.09.18h.1c.59.7-.49-.34-.2.2-.18,0,1.11,1.57.71,1.33.25.35-.44-.54-.28-.24-.33-.34-.18-.25-.46-.51.09.23-.45-.24-.31.07l-.27-.26c.37.59-.56-.13-.17.4.11.33-.88-.68-.47-.05l-.42-.29c-.11,0,.42.46.18.35s-.26-.09-.45-.33c-.51-.17.27.76-.54.43.45.43.08.31.42.63-.22-.16-.2.18-.57-.29,0,0,0-.05.07,0l-.28-.24c-.65-.29.13.46,0,.52.13,0,.13,0,.32.15l-.12.09-.24-.2-.27.08.33.19c-.22,0-.78-.35-.4.05.22.21.49.2.53.36a1.86,1.86,0,0,0-.94.07c.38.2.34.24.39.33l-.33-.18c.35.43-.76-.33-.5.06l-.22-.14.66.41c.58.5-.74-.26.07.38,0-.1.75.33.57.34l-.31-.18c0,.08.17.16.09.16s-.47-.24-.44-.14l-.39-.24.54.42c-.4-.05,0,.31-.52.16,0,0-.33.15.18.4-.31-.17-.48-.08-.85-.26.34.2.58.49.16.43l0,0c-.5.17.41.65-.15.77.42.09.16.17.71.27.47.35-1.21.26.46.66.07.12-.42.07-.52.11l-.08,0c.1.24.12.31.06.47.16.1.94.18.75.3-.31-.07-.26,0-.26,0s-.16-.06-.38,0l.21.05h-.08c.11.1.21.08.25,0h.2c-.41.07,0,.25-.53.25.13.29.69.46.92.65a1.16,1.16,0,0,1-.64,0l.12.15c-.4,0-.24-.08-.32-.12-.63.26.68.34.12.64h.32l0,0a1.4,1.4,0,0,1,.46,0c-.34.09-.8.14-.75.25-.32.16.22.23.43.3,0-.08.24-.1.36-.11s-.31.17-.15.17l-.46.13c.42-.14.5,0,.69,0-.33.13-.31,0-.57.06a3,3,0,0,0,.17.32c.38,0,.42-.16.83-.25.12.06.46,0,.23.23l.38-.19c.36,0,.36.11,0,.41a5.64,5.64,0,0,0,2.11-.67,7.44,7.44,0,0,0,1.22-.78c.61-.43.87-.6.87-.6.4-.23.35-.18.13-.1A2,2,0,0,1,551.43,21.37Z"/><path class="cls-10" d="M609.47,17.85l0-.17A.34.34,0,0,0,609.47,17.85Z"/><path class="cls-10" d="M603,20.79l0,0Z"/><path class="cls-10" d="M607.54,12.11h0v0Z"/><path class="cls-10" d="M610,12.45c-.62-.23-.83-1-1.5-.67a2,2,0,0,0-.95.32c-.05.64-.4.08-.48.63l-.13-.34c0,.19-.07.32-.16.14l0-.1c0,.28-.16.14-.18.29l0-.1-.09.07v-.15c-.09.31-.23.37-.39.28l.12.42c-.4-.39-.26.5-.67,0l0-.1c0,1.18-.75-.57-.71.57,0-.14-.09-.2-.13-.3-.1.17-.24.29.08,1.08-.1,0-.18-.22-.32-.52.14.35.11.53,0,.58l0-.15-.17.21.32.63c-.19-.14-.37-.78-.41-.57l.24.53c-.2,0-.66-.8-1-1.12-.39.05-.59.52-.81.88s-.43.66-1,.42l-.28-.35c-.38-.52.39.89,0,.42l.11.29a.78.78,0,0,1-.25-.29c-.07,0,0,.11.06.3l-.3-.27c-.43-.06-.16.69-.48.77-.82-.38-.87.68-.8,1.27s-.33.46-.81.46-1,0-.72.6c-.08,0,.05.12.11.17l-.38.39a.83.83,0,0,0-.17.34,1.12,1.12,0,0,0,.1.83,2.4,2.4,0,0,0,1.19.93,27.56,27.56,0,0,0,2.94,1l.12.08c.38,0,.48,0,0-.51.73.46.16-.07.41,0l.06,0c-.48-.47.57.14.15-.29.05,0,.24.19.24.22s-.13-.32.27,0c0-.21.32-.24-.2-.86l.1.1c-.36-.41,0-.12-.15-.36l.1.08c-.34-.42.09-.22,0-.42l.24.23,0-.16h-.09c-.63-.67.48.33.15-.17.15,0-1.12-1.56-.72-1.31-.24-.36.42.56.27.25.31.36.17.25.43.53-.09-.23.41.29.27,0l.24.29c-.33-.61.48.25.15-.31-.08-.32.73.84.39.17l.33.38c.09,0-.33-.52-.14-.36s.2.16.35.43c.38.34-.17-.73.42-.11-.3-.54,0-.28-.25-.69.14.23.17-.06.39.5,0,0,0,0-.05,0l.18.32c.42.55,0-.41.09-.36a.57.57,0,0,1-.2-.28h.1l.13.28.2.1-.2-.33c.15.14.47.71.28.19-.11-.29-.29-.43-.28-.57a4.16,4.16,0,0,0,.63.55c-.19-.39-.16-.38-.17-.48l.16.34c-.11-.52.37.73.3.31l.1.24-.29-.73c-.19-.72.35.69.06-.29,0,.08-.33-.75-.22-.63l.12.34c0-.08,0-.23,0-.17s.19.49.21.42l.14.43-.16-.65c.2.34.13-.15.33.32,0,0,.21.19.06-.35.08.34.2.44.3.83-.09-.38-.09-.73.08-.34v0c.26.37.09-.63.36-.17-.11-.42,0-.21-.13-.74,0-.58.51,1,.21-.65.06-.1.17.38.22.46v.09c.1-.16.14-.19.24-.17,0-.17-.09-1,0-.78s0,.25.08.25a.73.73,0,0,0,.07.37,1.56,1.56,0,0,1,0-.21v.08a.28.28,0,0,0,0-.25,1.55,1.55,0,0,0,0-.2c.11.4.17,0,.24.49.15-.14.23-.73.37-.94a1.78,1.78,0,0,1,0,.64l.1-.1c0,.4,0,.23-.07.31.15.65.22-.65.38-.06l0-.32v.05a1.78,1.78,0,0,1,.05-.45c0,.35,0,.81.07.78.05.33.15-.17.23-.35a.8.8,0,0,1,0-.38s0,.34.08.19l0,.47a2,2,0,0,1,.14-.67c0,.35-.07.3-.09.56l.21-.05a6.12,6.12,0,0,0,.08-.86c.08-.09.18-.41.24-.12v-.42c.18-.31.27-.24.31.19A9.89,9.89,0,0,0,612,13.09a1.77,1.77,0,0,0-.23-1.1C611.21,11,610.7,12.15,610,12.45Z"/><path class="cls-11" d="M673.35,21.53l-.17.08C673.26,21.59,673.33,21.57,673.35,21.53Z"/><path class="cls-11" d="M664.91,32.72v0A.07.07,0,0,0,664.91,32.72Z"/><path class="cls-11" d="M667.48,23.12h0Z"/><path class="cls-11" d="M667.92,21.69c-.15.43-1,.55-.62.89-.07.17.11.36.18.55.63.17,0,.23.48.43l-.36,0c.17.07.28.14.08.13l-.1,0c.25.11.08.14.2.19l-.1,0,0,.08-.14,0c.26.17.24.27.09.31l.42.13c-.51,0,.3.41-.31.36l-.1,0c.49.33.26.34,0,.33s-.43,0,0,.32a1.42,1.42,0,0,0-.29-.15c.06.15.06.27.78.73-.05.07-.26-.08-.55-.25.32.2.4.35.38.42l-.1-.11v.23l.6.38c-.23,0-.71-.48-.63-.3l.47.35c-.19.06-.94-.43-1.34-.63-.24.09-.19.47-.26.82s-.25.61-.73.3l-.25-.36c-.33-.55.38.88.06.38l.1.28a1,1,0,0,1-.21-.32c-.06,0,0,.1.05.29l-.23-.33c-.31-.2-.13.58-.41.52-.52-.66-.69.16-.94.66s-.46.16-.7-.21-.42-.72-.64-.19c0-.09-.05.11-.06.19a2.74,2.74,0,0,1-.36-.12s-.4-.11-.83.39a3.46,3.46,0,0,0-.68,1.37,6,6,0,0,0,0,3.15l0,.13c.33.42.61.54,1-.14-.05.86.32.13.38.41v.07c.28-.65.49.58.75,0,0,.07,0,.31-.07.32.18-.11.41-.31.44.19.42-.13,1.06,0,1.2-.8V33c.07-.56.18-.11.29-.41a1,1,0,0,1,0,.12c.06-.55.43-.17.51-.42l.08.32.29-.15-.13,0c-.2-.9.38.5.44-.14.25,0-.2-1.93.11-1.57-.06-.44.17.69.18.32.17.45,0,.31.21.65.05-.26.41.37.46,0l.15.34c0-.72.64.25.51-.41.09-.38.67.91.57.13l.34.39c.15,0-.23-.58,0-.43s.28.13.36.43c.55.24.15-.92,1-.48-.3-.55.09-.38-.15-.79.18.21.35-.22.54.38,0,0,0,.07-.08,0l.21.3c.64.38.1-.59.34-.66-.14,0-.18,0-.31-.18l.2-.11.18.26.37-.1-.3-.24c.25,0,.76.43.5-.08-.16-.27-.48-.24-.45-.45a2.18,2.18,0,0,0,1.12-.12c-.35-.25-.29-.3-.31-.41l.3.22c-.23-.55.73.41.58-.09l.19.18-.59-.52c-.46-.64.72.32.05-.49,0,.13-.71-.41-.51-.43l.28.22c0-.1-.14-.21,0-.21s.43.3.44.17l.34.31-.45-.53c.42.05.13-.41.61-.23,0,0,.39-.21-.08-.53.28.22.48.1.83.32-.31-.26-.48-.63-.06-.57l0,0c.56-.24-.27-.86.32-1-.42-.12-.13-.23-.68-.35-.41-.48,1.27-.36-.36-.89-.05-.17.44-.09.54-.15l.08.06a.85.85,0,0,1,0-.63c-.15-.14-.93-.27-.72-.43.31.1.26,0,.27-.05s.16.08.38,0a.88.88,0,0,1-.2-.08h.08c-.1-.13-.2-.12-.25-.07H673c.42-.08,0-.34.55-.31-.11-.38-.65-.66-.87-.93a.93.93,0,0,1,.64.12l-.11-.21c.4,0,.23.12.32.19.64-.28-.65-.51-.09-.83l-.32,0,.05,0a1.07,1.07,0,0,1-.46-.06c.34-.08.8-.08.77-.23.33-.16-.21-.32-.42-.44,0,.09-.24.09-.37.08s.31-.17.16-.2l.46-.09c-.43.11-.51-.1-.7-.09.34-.11.32.05.58,0a3.92,3.92,0,0,0-.16-.43c-.38-.07-.43.13-.85.15-.12-.11-.47-.14-.23-.35l-.39.16c-.38-.13-.37-.25,0-.54a5.39,5.39,0,0,0-2.26.18,4.77,4.77,0,0,0-1.32.58,4.38,4.38,0,0,0-.88.63C666.31,21.57,667.51,21.27,667.92,21.69Z"/></g></g></svg>