<svg xmlns="http://www.w3.org/2000/svg" viewBox="0 0 29.04 45.44"><defs><style>.cls-1{fill:#1b1b1b;}</style></defs><title>资源 101</title><g id="图层_2" data-name="图层 2"><g id="图层_1-2" data-name="图层 1"><path class="cls-1" d="M9.74,1.39l0,.28A.22.22,0,0,0,9.74,1.39Z"/><path class="cls-1" d="M28.39,34.6l0,0A.07.07,0,0,0,28.39,34.6Z"/><path class="cls-1" d="M10.2,10.92h0l-.06,0Z"/><path class="cls-1" d="M5.05,7.13C6.49,8.09,6.32,9.26,8,9.74a4.52,4.52,0,0,0,1.07.63l1.13.55c.84-.45.82.65,1.64.39l-.18.48c.28-.09.53-.08.47.22l-.1.1c.41-.11.46.23.67.18l-.1.1.25.15-.17.11a1,1,0,0,1,1,.68l.4-.43c.1,1,1.17.45,1.07,1.51l-.11.08c.9-.15.92.32.93.78s0,.89.87.87c-.21,0-.22.21-.34.29.38.26.71.6,1.67,0,.18.28-.15.42-.5.69a.63.63,0,0,1,.9.07h-.23l.52.54.74-.6c0,.48-.94.66-.55.87l.68-.39c.13.57-.77,1.42-1.05,2.11a11.35,11.35,0,0,0,1.75,2.76,5.49,5.49,0,0,1,.72,1.47,2.64,2.64,0,0,1-.09,1.62l-.55.21c-.82.21,1.34.26.58.5l.43.15c-.14.09-.27.26-.48.18,0,.21.15.19.43.3l-.48.31c-.3.87.85,1.44.69,2.36-1,1.12,0,3,.53,4.25a1.39,1.39,0,0,1,.12,1.3,5.59,5.59,0,0,1-.81,1.23c-.66.8-1.28,1.52-.79,2.48-.13,0,.1.22.19.25-.15.48-.34,1-.54,1.42l-.09.29-.19.73a5.46,5.46,0,0,0-.12,2,2.11,2.11,0,0,0,1.43,1.69c.9.32,2.38.36,4.68-.59l.16.11c.81-.8,1.13-1.42.44-2.39,1.13.24.38-.77.79-.9l.08,0c-.7-.84,1-1.09.42-1.88.08,0,.39.13.38.27,0-.47-.18-1.12.48-1,.06-1.08.55-2.56-.44-3.35l.18.07c-.69-.46-.06-.51-.39-1,.09,0,.14,0,.17,0-.66-.46,0-1.22-.33-1.57h.45l-.08-.83-.1.31c-1.22-.12.79-.62,0-1.23.13-.59-2.55-1-2-1.59-.59-.22.95.17.48-.2.64-.06.41.16.91,0-.33-.37.6-.71.13-1.17l.49-.07c-1-.55.49-1.32-.43-1.64-.49-.6,1.39-.7.3-1.24l.61-.4c0-.33-.85-.06-.6-.46.42-.07.25-.5.68-.39.46-.93-1.27-1.32-.49-2.61-.86,0-.54-.62-1.18-.59.34-.14-.26-1,.66-.7.08,0,.09.12,0,.16l.48-.09c.7-.88-.86-.86-.92-1.46-.09.22,0,.42-.34.4l-.13-.53.42,0c0-.28,0-.57-.09-.85l-.42.3c.08-.46.81-.95,0-1.07-.45,0-.47.63-.79.31a5.54,5.54,0,0,0,0-2.26c-.48.33-.54.15-.73,0l.43-.26c-.95-.31.84-.78,0-1.14l.33-.12L25,14c-1.18,0,.7-.84-.82-.75.22.2-.86.69-.85.29l.45-.18c-.18-.11-.39-.05-.38-.21.28,0,.62-.33.39-.52l.61-.17-1,0c.19-.63-.7-.8-.25-1.33,0,0-.28-.91-1-.62.48-.14.31-.64.82-.86-.56.13-1.3-.14-1.06-.69H22c-.24-1.16-1.71-.81-1.85-1.92-.39.43-.49-.13-.94.47-1.12-.14-.19-2.26-2-.82-.38-.18,0-.73-.08-1l.15,0A4,4,0,0,1,16,4.82c-.36,0-1,.79-1.3.29.39-.24.17-.3,0-.41.14,0,.26-.08.23-.46a.76.76,0,0,1-.28.14.46.46,0,0,1,.06-.09c-.35-.07-.38.07-.29.2a.57.57,0,0,0-.12.24c.06-.64-.75-.51-.37-1.13a10.3,10.3,0,0,0-2.68-.31A.8.8,0,0,1,12,2.74l-.56-.17c.28-.46.44-.1.65-.1-.16-1.08-1.62,0-1.94-1l-.34.3V1.66a.91.91,0,0,1-.53.4c.11-.47.5-1,.13-1.11C9.29.4,8.47.77,8,.84c.17.16,0,.37-.16.48-.18-.06-.09-.53-.31-.41L7.77.32C7.6.9,7,.71,6.89.92,7,.44,7.32.67,7.5.36A11.65,11.65,0,0,0,6.38,0c-.56.3-.14.58-.53,1C5.47,1,5,1.31,4.74.81l-.06.57c-.76.2-1.1,0-1.36-.64A6.84,6.84,0,0,0,.53,3,2.75,2.75,0,0,0,0,4.86,2.64,2.64,0,0,0,.75,6.49C1.88,8.09,3.08,6.74,5.05,7.13Z"/></g></g></svg>