<svg xmlns="http://www.w3.org/2000/svg" viewBox="0 0 69.64 133.03"><defs><style>.cls-1{fill:#333;}.cls-2{fill:#1b1b1b;}.cls-3{fill:#ff2600;}.cls-4{fill:#ff674c;}</style></defs><title>资源 99</title><g id="图层_2" data-name="图层 2"><g id="图层_1-2" data-name="图层 1"><path class="cls-1" d="M52.84,111.82a329.46,329.46,0,0,0-33.36-89c17.88,10.72,30.31,29,37.34,48.62s9.1,40.66,10,61.48"/><path class="cls-2" d="M41.94,82.36l0-.6C41.89,81.79,41.84,82,41.94,82.36Z"/><path class="cls-2" d="M64.41,86.9s0,.09.08.12S64.43,86.9,64.41,86.9Z"/><path class="cls-2" d="M41.91,58.94v0l.11.12Z"/><path class="cls-2" d="M50.86,86.82c-1-3.71-1.36-6.14-1.9-8.56a45.43,45.43,0,0,0-2.69-8.55c-.61-1.8-1.32-3.64-2.06-5.45L41.93,59c-1.44-1.32-1.83-4.52-3.29-6.17l.12-.93a3.58,3.58,0,0,1-1-2h.15c-.76-.84-1-2-1.42-2.46l.15,0L36,46.17l.27.12a19.33,19.33,0,0,1-2.48-4.91l-.47.37c-1-3.56-2.59-4.25-3.36-7.51l.15,0a10.07,10.07,0,0,1-2.62-4.68,9.83,9.83,0,0,0-2.68-4.75c.41.38.16-.34.3-.37C24,22.77,23,21,22,21.49l0,0L18,25.21c1.1.73.71.88.63,1.35.26-.43,1.36,0,2.27.57l-.52-.1c.9.47,1.72,1.07,2.59,1.59l.06-1.12c1.17,1.17-.34,1.17,1.05,1.89l.45-.64c1.67,1.54,2,3.23,3.18,5.1,3.2,3.05,6.67,6.11,9.76,9.51a36.11,36.11,0,0,1,7.3,11.07l-.32.61c-.64.55,2.24,1.37,1.7,2l.81.67c0,.31.13.9-.27.56a2.82,2.82,0,0,0,1.05,1.23l0,1.11C49,64,51.12,66.37,52.31,70a46.13,46.13,0,0,0,2.51,8.46L58.07,87c1.41,3.25,1.66,7.08,1.78,10.9S60,105.55,61.15,109a.94.94,0,0,0,.35.8c.19,2.18.38,4.36.52,6.55l.12,1.32c.07.82.17,2,.31,3.27.27,2.6.64,5.82,1.17,8.29s1.22,4.17,2.17,3.7,2.17-3.08,3.57-9.36l.2.15c.22-3.7.14-6-1-8.48,1.12-.5-.15-3,.12-3.92l.1.07c-1.1-2.14.22-4.7-.84-6.76.1.07.42.08.51.57-.36-1.56-.91-3.67-.26-3.88-.71-3.73-1.36-9-2.91-11.2l.21.13c-1-1.21-.49-1.73-1.18-3.17.07-.1.09-.22.13-.21-1-1.31-1.15-4.26-1.75-5.36l.41-.19-.91-2.88.21,1.11c-.64,0-.61-.62-.59-1.45a4.38,4.38,0,0,0-.71-2.82A5.66,5.66,0,0,0,59,72.72,4.46,4.46,0,0,1,57.21,70c-.89-.74,1.19.5.24-.75.58-.27.62.52,1,0-.81-1.28-.24-2.53-1.36-4.06l.43-.26c-1.72-1.87-1.24-4.42-2.68-5.52-1.48-2,.58-2.15-1.46-4l.11-1.2c-.44-1-1.11-.31-1.42-1.54.41-.14-.47-1.53.24-1.1A12.22,12.22,0,0,0,50,47.84a13.33,13.33,0,0,1-2.59-4.35c-1.15-.18-1.81-2-2.69-2.09.23-.29-2.25-3-.34-1.81.16.1.35.36.22.43l.54-.1a4.43,4.43,0,0,0-1.77-2.43,10.14,10.14,0,0,1-2.3-2c.28.58.85,1.19.24,1-.41-.51-.8-1-1.22-1.52l.58,0-1.81-2.31-.1.64c-.77-1.23-.51-2.21-2.19-2.82-.8-.22.48,1.43-.7.5a35.78,35.78,0,0,0-4.69-5.59c-.19.59-.69.16-1.29-.17l.25-.44c-2.47-1.07-.05-1.5-2.51-2.59l.39-.15-1.17.44c-2.46-.54-.43-1.63-3.36-1.9.91.48-.19,1.18-1.12.33l.52-.24c-.64-.29-.94-.24-1.28-.57.41,0,.52-.35,0-.76L9.67,10.72l6.32,14a2.3,2.3,0,0,0,.17.31l-.46-.15-9.8-3.25,15.82-2.55.4-.06-.33,0-18-2.48L15.58,25l1.38,1c.21,1.48,1.84,3.13,1.51,4,0,0,1.09,2.82,2.06,3.1-.69-.33-.08,1.23-.78,1.05.83.45,2.25,2.32,2.15,3.39l-.13-.13c1,3.29,3.25,4.9,3.92,8,.47-.37.86,1.23,1.36.56,2,2.6,1,5.87,3.53,6,.68,1.28.18,1.79.37,2.52l-.25-.27a36.79,36.79,0,0,1,2.25,5c.58.84,1.63.6,2.07,2.36-.61-.39-.26.27,0,.9-.22-.38-.41-.44-.35.48a1.3,1.3,0,0,1,.44.36s0,.06-.09.06c.54,1,.59.77.46.26.07,0,.13-.07.18-.26-.09,1.29,1.2,3,.58,3.41,1.32,3.11,2.88,5.12,4,7.7-.25.42-.78-.09-1.18-.82l.78,1.84c-.51.16-.66-1-1-1.53,0,2.52,2.43,4.35,2.51,7.26l.58.42,0,.18c.21-.08.69.43.89.8-.32.52-1,.3-.59,1.6-.11,1.18,1.12,2.89,1.77,4.19-.15-.76.17-.6.43-.33.21.66-.11,1.17.23,1.62l-.59.24c.5-.43,1.11,1.55,1.43,1.73-.34.51-.68-.92-1.06-1l1.22,4c.86,1.29.5-.42,1.23.12.46,1.23,1.21,2.35,1.23,3.9l.42-.6a9.77,9.77,0,0,1,1.19,5.47c4.35,8.39,6,9.09,6.71,7.55s.26-5.21.26-5.21C56.22,98.37,53.72,95.06,50.86,86.82Z"/><path class="cls-3" d="M46.12,44.28c-5,3.9-11.26,6.52-16.4,6.22-5.47-.33-10.67-2.62-15.2-5.69a25.59,25.59,0,0,1-5.28-4.56c-12.66-15-2.66-34.63,16-36.86A28.21,28.21,0,0,1,53.88,20.21c1.74,4.25,2.36,9.13.77,13.43C53.24,37.45,50,41.25,46.12,44.28Z"/><path class="cls-2" d="M25.15,52l-.37-.27C24.76,51.83,24.85,51.92,25.15,52Z"/><path class="cls-2" d="M53.73,15.06l.09.07C53.77,15.07,53.74,15.05,53.73,15.06Z"/><path class="cls-2" d="M14.37,40.1h0l.1,0Z"/><path class="cls-2" d="M30.44,47.3a12.38,12.38,0,0,1-2.79-.53A20,20,0,0,1,25.49,46l-5-2.14a55.09,55.09,0,0,1-6.13-3.71A3.22,3.22,0,0,1,12.72,39a8.26,8.26,0,0,0-1.55-1.44l0-.6a1.62,1.62,0,0,1-.88-1.05l.1,0c-.62-.37-.8-1.1-1.09-1.3l.11,0A7.08,7.08,0,0,1,9,33.9l.19,0a5.41,5.41,0,0,1-.93-1.4A5.3,5.3,0,0,1,7.75,31l-.39.21a11.23,11.23,0,0,0-.25-1.39l-.33-1.08a3.91,3.91,0,0,1-.15-2.35l.11,0a3.62,3.62,0,0,1,0-3.15,11.9,11.9,0,0,0,.47-1.44,5,5,0,0,0,.14-1.75c0,.34.26-.06.35,0,.23-1.14.73-2.29,0-2.69.41-.79.56-.53.91-.47-.33-.17-.08-.92.27-1.52,0,.11,0,.23-.05.35.34-.57.65-1.16,1-1.7L9,14c.84-.74.85.31,1.35-.6L9.9,13c1.1-1.07,2.35-1.07,3.67-1.61,1.15-.86,2.33-1.71,3.58-2.5a27.22,27.22,0,0,1,4-2,19,19,0,0,1,4.35-1.1c.73,0,1.45-.09,2.16-.06a14.47,14.47,0,0,1,2.08.33l.21.46c0,.66,1.58-.82,1.72-.17l.67-.17c.16.15.5.33.17.42a1.63,1.63,0,0,0,1.06-.08l.51.55c2.11.86,4.24.87,6.34,2.23a18.89,18.89,0,0,0,2,1.67c.75.62,1.63,1.21,2.45,1.89a32.8,32.8,0,0,1,4.39,4,10.78,10.78,0,0,1,2.79,6.48c.3,2.43.16,4.65.44,6.74-.11.12,0,.49.11.51a12.11,12.11,0,0,1-1.31,3.57,22.76,22.76,0,0,1-1.46,2.42c-.9,1.37-2.23,3-3.24,4.31s-1.67,2.38-1,2.79a3.13,3.13,0,0,0,2.13-.07,16.83,16.83,0,0,0,4.71-2.21l0,.18c2.06-1.87,3.14-3.46,3.4-5.54.45,0,.75-.48.93-1.12a8,8,0,0,1,.52-1.64l.05.08a7.62,7.62,0,0,1,.51-2.73A4.36,4.36,0,0,0,58.07,28a.52.52,0,0,1,.32.5c-.08-1.28-.47-2.93,0-3.09a26,26,0,0,0-1.23-4.73,9.07,9.07,0,0,0-2.12-3.44l.18.05c-1-.67-.73-1.14-1.54-2,0-.09,0-.18,0-.18a5.26,5.26,0,0,1-1.46-1.63A8.06,8.06,0,0,0,51,11.9l.22-.26c-.48-.57-1.06-1.05-1.58-1.58l.53.65c-.43.21-.61-.18-.89-.73a2.91,2.91,0,0,0-1.51-1.52,3.72,3.72,0,0,0-2.3-.72A3.29,3.29,0,0,1,43.25,7c-.83,0,.9-.25-.18-.55.22-.43.58,0,.55-.46-1-.37-1.31-1.31-2.65-1.64L41.08,4a5,5,0,0,1-2.31-.89,3.06,3.06,0,0,0-1.94-.61,1.67,1.67,0,0,1-1.39-.73c-.25-.29-.53-.59-1.56-.39L33.24.71c-.81-.22-.68.47-1.55.14.1-.31-1.14-.37-.56-.61A7.13,7.13,0,0,0,27.83.15c-.58,0-1.18.19-1.8.2a12,12,0,0,1-2-.09c-.5.68-1.92.59-2.25,1.15-.14-.29-2.68.68-1.34-.31.12-.08.35-.14.36,0l.09-.41c-1.75-.24-2.7,1.17-4.17,1.68.48-.07,1-.34.75.06l-1.36.52.15-.4c-.7.22-1.37.52-2.06.79l.45.2c-1,.33-1.71,0-2.45,1.08-.29.55,1.12-.12.25.6A17.09,17.09,0,0,0,7.73,8c.43.19.06.52-.24.94l-.31-.21c-.91,1.83-1.14,0-2.06,1.8L5,10.2l.3.89c-.23.92-.5,1-.78,1.14s-.57.3-.62,1.41c.34-.7.89.12.28.83L4,14.09c-.2.48-.13.72-.35,1,0-.36-.39-.39-.69.33l-.17-.67c0,.54-.05,1.07,0,1.61-.83.89-.93,2.75-1.51,3.06a7.77,7.77,0,0,0-.37,1.25c-.12.68-.21,1.44.06,1.76-.28-.54-.58.8-.93.36a5.91,5.91,0,0,1,.13,3.35L.08,26a6.73,6.73,0,0,0,0,2A9.83,9.83,0,0,0,.5,29.77c.16.57.33,1.11.5,1.67a14.67,14.67,0,0,1,.36,1.78c.38-.24.57,1.08,1,.58a6.25,6.25,0,0,1,.75,1.63l.48,1.49c.31.9.74,1.54,1.68,1.47.68.87.4,1.31.66,1.84l-.23-.17c.67.82,1.14,1.3,1.52,1.77s.79.9,1.34,1.48,1.31-.05,2.22,1c-.54,0-.08.28.32.59-.28-.17-.44-.14,0,.45a1.05,1.05,0,0,1,.43.07s0,.05,0,.07c.75.42.69.25.4,0,0,0,.05-.1,0-.24.45.87,2,1.37,1.77,1.87a27.88,27.88,0,0,0,6,2.32c.1.35-.45.39-1,.21.46.19.94.35,1.4.53-.17.36-.89-.13-1.33-.26A4.65,4.65,0,0,0,21.25,51a8.41,8.41,0,0,1,2.91.9l.51-.2.11.08c0-.17.54-.27.86-.26.22.4-.2.79.85,1,.78.5,2.39.19,3.53,0-.62-.08-.4-.26-.14-.38.54,0,.86.37,1.28.19l.07.47c-.12-.22.24-.35.64-.46a3.6,3.6,0,0,0,.92-.34c.35.32-.79.39-.91.66,1.09-.13,1.36-.18,1.63-.23s.54-.08,1.58-.34c1-.62-.3-.38.12-.91a11.39,11.39,0,0,1,2.83-1l-.47-.27a9.14,9.14,0,0,1,3.74-1.49c2.51-2.31,3.44-4,3.74-4.94s0-1.33-.63-1.33a5.82,5.82,0,0,0-2,.46c-.65.24-1.17.47-1.17.47a37.25,37.25,0,0,0-5.15,2.38,21.94,21.94,0,0,1-2.5,1.18A10.38,10.38,0,0,1,30.44,47.3Z"/><path class="cls-4" d="M26.33,11.9l.06.19A.17.17,0,0,0,26.33,11.9Z"/><path class="cls-4" d="M44.1,26.73l0,0Z"/><path class="cls-4" d="M28,18.41h0l0,0Z"/><path class="cls-4" d="M24.37,17c1,.38,1,1.23,2.11,1.16a5.77,5.77,0,0,0,1.49.22c.42-.52.6.19,1-.2l0,.37c.15-.14.3-.21.32,0l0,.09c.23-.2.32,0,.43-.09l0,.09.18,0-.09.13a.52.52,0,0,1,.73.13l.17-.4c.23.65.79-.09.91.63l-.05.09c1-.75.37,1.09,1.39.43-.13.08-.09.21-.15.29.28,0,.55.12,1-.59.16.12,0,.31-.18.6.21-.31.43-.35.57-.28l-.14.08.43.14.34-.63c.07.31-.46.74-.18.73l.35-.47c.2.28-.2,1.11-.24,1.62a4.63,4.63,0,0,0,1.63.95,1.42,1.42,0,0,1,1,1.45l-.33.3c-.51.39.94-.32.48.06l.31-.06c-.08.09-.14.22-.29.25,0,.11.13.05.34,0l-.27.32c0,.53.81.47.87,1-.5.82.5,1.45,1.06,2,.57.33.24.91-.11,1.38s-.72.86-.21,1.3c-.09,0,.11.1.18.11a7,7,0,0,1-.2.72,3.08,3.08,0,0,0-.08.51,2.27,2.27,0,0,0,.16,1.05,2,2,0,0,0,1.15,1.08,4.4,4.4,0,0,0,3.38-.22l.12.07c.54-.55.72-1,.12-1.61.87.09.18-.54.48-.65l.07,0c-.61-.48.65-.82.07-1.27.07,0,.31,0,.32.13-.1-.31-.28-.71.22-.73-.14-.71,0-1.75-.87-2.06h.14c-.57-.16-.12-.31-.45-.53a.64.64,0,0,1,.12-.05c-.57-.15-.24-.74-.53-.89l.32-.1c-.07-.16-.14-.33-.22-.49v.21c-.9.2.43-.55-.26-.74,0-.39-2,0-1.74-.43-.46,0,.7-.15.3-.24.43-.2.32,0,.65-.23-.31-.13.28-.59-.16-.73l.33-.18c-.79-.05.05-.94-.65-.85-.47-.2.79-.83-.07-.82l.32-.43c0-.21-.59.23-.51-.08.27-.17,0-.37.37-.44.1-.72-1.15-.37-.93-1.39-.56.3-.49-.19-.91.05.19-.19-.41-.5.27-.64.06,0,.09,0,0,.11l.3-.22c.24-.76-.75-.23-.93-.55,0,.16.12.24-.13.35l-.2-.27.26-.18-.25-.47-.21.33c0-.3.32-.86-.25-.63-.29.15-.16.54-.44.46a3.44,3.44,0,0,0-.46-1.36c-.23.36-.31.28-.45.28l.22-.31c-.66.16.36-.76-.24-.68l.18-.19-.55.57c-.74.38.27-.76-.66-.17.18,0-.4.72-.47.48l.24-.27c-.14,0-.25.1-.27,0,.16-.12.32-.42.14-.46l.34-.32-.63.38c0-.46-.58-.25-.41-.74a.43.43,0,0,0-.71-.06c.26-.25.07-.51.34-.82-.32.27-.82.36-.77-.08l0,0c-.35-.66-1.17.06-1.43-.63-.16.4-.32.07-.48.61-.7.28-.47-1.43-1.3.08-.26,0-.12-.48-.2-.61l.09-.06a2,2,0,0,1-.92-.22c-.22.1-.5.84-.72.56.19-.27.06-.25,0-.29.08,0,.14-.13.07-.38a.63.63,0,0,1-.14.17.43.43,0,0,1,0-.08c-.21,0-.21.15-.14.22a.54.54,0,0,0,0,.2c-.06-.45-.52-.14-.38-.66-.58,0-1.12.39-1.61.49a.67.67,0,0,1,.34-.57l-.35,0c.1-.39.24-.18.36-.23-.24-.73-.94.44-1.26-.24l-.16.29,0-.06a.76.76,0,0,1-.25.41c0-.36.16-.79-.07-.82-.12-.37-.54.08-.8.22.12.08,0,.26,0,.38s-.12-.36-.23-.23l.06-.47c0,.45-.37.43-.43.62,0-.36.22-.27.28-.53l-.69,0c-.29.33,0,.45-.18.85-.22.07-.46.37-.67.06l0,.42c-.42.29-.63.22-.87-.22-1.53,1.63-1.61,2.82-1.45,3.56a1.87,1.87,0,0,0,.63,1.07C22.6,18.37,23.15,17.19,24.37,17Z"/></g></g></svg>