<svg xmlns="http://www.w3.org/2000/svg" viewBox="0 0 750 1334"><defs><style>.cls-1{fill:#ffb586;}.cls-2{fill:#ffdac3;}</style></defs><title>资源 176</title><g id="图层_2" data-name="图层 2"><g id="图层_1-2" data-name="图层 1"><rect class="cls-1" width="750" height="1334"/><polygon class="cls-2" points="415.12 434.48 416.07 427.93 329.02 0 117.44 0 414.67 434.17 415.12 434.48"/><polygon class="cls-2" points="417.47 434.8 420.96 431.37 640.42 0 478.44 0 416.07 427.93 417.47 434.8"/><polygon class="cls-2" points="418.29 436.62 418.43 436.63 750 268.43 750 108.33 420.96 431.37 418.29 436.62"/><path class="cls-2" d="M418.29,436.7c5.9,3.57,222,134.43,331.71,199.27V449L418.43,436.63Z"/><polygon class="cls-2" points="418.24 436.73 418.23 436.75 750 1021.24 750 824 418.24 436.72 418.24 436.73"/><polygon class="cls-2" points="418.2 436.79 706.08 1334 750 1334 750 1131.2 418.22 436.76 418.2 436.79"/><polygon class="cls-2" points="418.16 436.88 418.19 438.34 418.47 439.73 418.22 439.35 439.82 1334 600.07 1334 418.19 436.82 418.16 436.88"/><polygon class="cls-2" points="417.59 438.44 142.01 1334 319.03 1334 417.9 438.89 417.59 438.44"/><polygon class="cls-2" points="414.11 441.43 0 933.77 0 1216.27 413.56 445.18 414.11 441.43"/><path class="cls-2" d="M414.52,438.61l-1.93,1,2.09-2.05.07-.45C381.67,441.74,115.73,479.18,0,497V750.57L414.4,439.44Z"/><polygon class="cls-2" points="415.08 434.76 414.67 434.17 0 142.4 0 339.72 414.92 435.87 415.08 434.76"/></g></g></svg>