<svg xmlns="http://www.w3.org/2000/svg" viewBox="0 0 244.56 24.54"><defs><style>.cls-1{fill:#1b1b1b;}</style></defs><title>资源 103</title><g id="图层_2" data-name="图层 2"><g id="图层_1-2" data-name="图层 1"><path class="cls-1" d="M238.6.58l-.11.21A.38.38,0,0,0,238.6.58Z"/><path class="cls-1" d="M243,11.31l.05,0Z"/><path class="cls-1" d="M234,7h0l0,0Z"/><path class="cls-1" d="M233.77,5.94c0,.37-.68,1.22-.23,1,0,.14.25,0,.43,0,.69-.51.1.11.7-.28L234.3,7c.21-.13.36-.2.16,0l-.11.08c.31-.19.16,0,.32-.12l-.12.08h.08l-.17.11c.36-.18.41-.12.29,0l.48-.32c-.48.46.57-.12,0,.38l-.12.07c1.43-.6-.82.7.55.17a3.42,3.42,0,0,0-.39.2c.18,0,.3,0,1.34-.44,0,.06-.3.19-.7.38.46-.2.67-.24.71-.2l-.19.05.21.07.86-.39c-.22.18-1.06.45-.82.44l.73-.29a11.12,11.12,0,0,1-1.69.92c-.1.22.34.27.68.4s.51.32-.13.6l-.58.11c-.84.13,1.26-.1.48,0h.39a2.61,2.61,0,0,1-.5.08s.11,0,.37,0l-.53.1c-.4.17.66.2.44.37-1.08.21-.08.47.47.75s.08.34-.46.39-1,.05-.34.34c-.12,0,.14.07.23.09l-.18.19s-.16.21.5.71a9,9,0,0,0,1.74,1,11.85,11.85,0,0,0,4,1l.17.08c.55-.13.73-.33-.11-.83,1.11.32.19-.22.57-.18l.09,0c-.8-.42.83-.21.11-.6.09,0,.4.1.4.15-.11-.18-.33-.42.33-.29-.11-.37.29-.82-.75-1.16l.18,0c-.71-.2-.09-.17-.45-.33H243c-.7-.19-.08-.37-.38-.5l.45,0-.09-.26-.1.09c-1.22-.08.78-.16,0-.37.15-.18-2.55-.32-2-.46-.57-.05.93,0,.49-.06.64,0,.4,0,.91,0-.3-.1.65-.22.21-.35l.5,0c-.92-.13.62-.42-.26-.48-.43-.15,1.45-.3.46-.4l.66-.17c.1-.11-.83,0-.51-.1s.32-.18.72-.18c.61-.36-1-.32,0-.85-.82.1-.37-.16-1-.07.35-.09,0-.32.79-.33.07,0,.06,0-.08.06l.48-.09c.86-.41-.58-.21-.49-.42-.14.1-.08.15-.42.2l0-.18.41-.08L244,6l-.48.18c.22-.19,1-.5.3-.42-.4.06-.62.32-.81.25a2.7,2.7,0,0,0,.76-.92c-.53.22-.53.16-.66.15l.46-.18c-.73,0,1-.48.39-.49l.33-.11-1,.34c-1,.2.91-.51-.41-.18.11,0-1,.47-.83.3l.45-.17c-.11,0-.31.05-.23,0,.25-.08.65-.27.53-.32l.57-.2-.88.22c.41-.33-.26-.23.32-.58,0,0,.17-.41-.52-.11.43-.17.52-.39,1-.6-.5.18-1,.2-.53-.15l.06,0c.31-.58-1-.07-.52-.68-.48.33-.29,0-.89.47-.74.18.92-1.3-1,0-.17,0,.34-.44.4-.56l.11,0c-.3-.08-.35-.12-.42-.29-.23.07-1,.74-1,.46.35-.24.25-.23.21-.27s.2-.11.36-.35a1.87,1.87,0,0,1-.24.15l.08-.07a.31.31,0,0,0-.28.2l-.19.18c.34-.43-.21-.17.32-.67-.33-.1-1,.26-1.35.32a1.93,1.93,0,0,1,.66-.54l-.22,0c.37-.39.29-.16.4-.2.44-.78-.9.35-.55-.4l-.31.29,0-.06a2.27,2.27,0,0,1-.45.4c.28-.38.7-.82.59-.88.21-.42-.35,0-.61.13,0,.1-.17.29-.29.41s.2-.41,0-.28l.37-.51c-.34.49-.51.42-.67.62.25-.4.31-.27.53-.55L237.65,0c-.37.32-.32.5-.68.92-.15,0-.47.36-.36,0l-.27.49c-.38.27-.43.18-.25-.37a10.55,10.55,0,0,0-1.82,2.29A11.39,11.39,0,0,0,233.4,5c-.39.91-.52,1.32-.52,1.32-.23.59-.15.51.07.28A3.49,3.49,0,0,1,233.77,5.94Z"/><path class="cls-1" d="M9.72,15.19,9.56,15A.72.72,0,0,0,9.72,15.19Z"/><path class="cls-1" d="M7.18,20.73h0Z"/><path class="cls-1" d="M3.39,10.35h0l0-.05Z"/><path class="cls-1" d="M6,9c-.76.17-1.59-.53-1.94.32-.34.19-.46.66-.63,1,.48.7-.31.36.09,1l-.41-.26c.14.21.21.38,0,.26l-.1-.09c.21.31,0,.26.08.41l-.11-.09,0,.13-.14-.14c.18.37.11.53-.12.55l.47.34c-.72-.12.2.67-.6.47l-.11-.08c1.08,1.12-1.2,0-.15,1-.13-.13-.27-.13-.39-.2.06.24,0,.44,1,1-.07.09-.36-.08-.76-.27.44.23.58.42.57.52l-.15-.13,0,.31.87.37c-.3,0-1-.47-.9-.25l.71.33a19.71,19.71,0,0,1-2-.33c-.32.32-.08.89.06,1.36s.21.88-.56,1.1l-.58-.1c-.85-.17,1.2.48.42.34L1,18A1.23,1.23,0,0,1,.49,18c0,.08.09.11.33.21H.28c-.46.27.49.7.27,1-1.13.32-.18,1.25.43,1.65s.12.61-.34,1-.91.88-.11,1.08C.42,23,.7,23,.8,23l0,.63A.84.84,0,0,0,1,24a1.28,1.28,0,0,0,.88.52,3.63,3.63,0,0,0,2-.43c.89-.38,2-1.09,3.64-1.87l.18-.05c.38-.27.46-.34-.47-.22,1.12-.29.09-.14.45-.26l.09,0c-.89.09.68-.31-.11-.24a3.43,3.43,0,0,1,.42,0c-.15,0-.41-.08.25-.17-.18-.11.09-.3-1-.33h.19c-.72,0-.11-.07-.47-.12h.17c-.71,0-.11-.19-.42-.24h.45l-.11-.13-.09,0c-1.23,0,.76-.08,0-.2.16-.06-2.52-.37-1.91-.45-.57-.11.92.13.49,0,.64.06.4.07.9.1-.3-.1.66,0,.23-.18l.49.06c-.89-.23.68-.1-.16-.3-.38-.18,1.47.19.53-.09l.67.09c.11,0-.8-.19-.48-.18a7,7,0,0,1,.73.12c.67.06-.85-.43.26-.27-.79-.25-.3-.19-.89-.39.34.1.09-.12.82.19.06,0,0,0-.09,0l.47.15c.89.21-.44-.27-.28-.3a1.22,1.22,0,0,1-.44-.12l.09,0,.38.15h.26l-.48-.16c.26,0,1.08.34.42,0a7.12,7.12,0,0,1-.78-.32c.34.05.87.17,1,.16-.53-.23-.5-.24-.59-.31l.45.2c-.59-.37,1,.44.54.13l.31.16L9,18.16c-.85-.52.94.43-.22-.27.06.07-1-.48-.77-.43l.42.23c-.08-.07-.25-.17-.15-.14s.61.33.56.26l.52.3-.74-.48c.48.2,0-.19.56.13,0,0,.34.08-.28-.33.38.26.56.3,1,.6-.43-.29-.75-.61-.26-.32l0,0c.53.24-.52-.61.1-.29-.47-.34-.18-.2-.78-.64s1.31.78-.42-.72c-.05-.13.46.29.57.34l.08.09c-.07-.2-.06-.25,0-.27-.14-.18-.91-.92-.66-.8.28.31.25.23.27.21a1.51,1.51,0,0,0,.37.34l-.18-.21.07.07A.56.56,0,0,0,9,15.63l-.19-.18c.42.35.08-.13.59.39,0-.21-.44-.86-.51-1.16a3.72,3.72,0,0,1,.51.68l0-.16c.34.41.16.27.21.36.63.61-.38-.8.21-.25L9.52,15l0,.05a3.43,3.43,0,0,1-.32-.51c.29.36.64.87.67.81.29.33,0-.26-.11-.5a1.63,1.63,0,0,1-.29-.41s.29.35.2.17l.35.53a3.75,3.75,0,0,1-.41-.8A6.44,6.44,0,0,1,10,15l.1-.17c-.19-.44-.32-.5-.57-1,0-.14-.16-.56.09-.27L9.33,13c-.09-.45,0-.43.37,0-.28-1.13-.48-2.1-.7-2.87A9.71,9.71,0,0,0,8.3,8.41a2.43,2.43,0,0,0-1-1.08c-.61-.39-.86-.17-1,.25A6.32,6.32,0,0,1,6,9Z"/></g></g></svg>