<svg xmlns="http://www.w3.org/2000/svg" viewBox="0 0 30.42 48.64"><defs><style>.cls-1{fill:#1b1b1b;}</style></defs><title>资源 100</title><g id="图层_2" data-name="图层 2"><g id="图层_1-2" data-name="图层 1"><path class="cls-1" d="M24.11,9.91l-.22-.16C23.94,9.84,24,9.91,24.11,9.91Z"/><path class="cls-1" d="M7,36.45l.05,0A.08.08,0,0,0,7,36.45Z"/><path class="cls-1" d="M15.23,5.86h0s0,0,0-.07Z"/><path class="cls-1" d="M23.09,2.55c-2.16.52-3.19-.19-5.09,1.29a8.61,8.61,0,0,0-1.46.91c-.46.36-.88.76-1.3,1.1,0,1-1.16.83-1.23,1.75l-.48-.24c0,.31-.11.59-.43.52L13,7.77c0,.48-.42.53-.43.77l-.08-.12-.25.29-.08-.19a1.79,1.79,0,0,1-1,1.23l.42.4c-1.22.22-.64,1.36-1.84,1.49l-.09-.11c.13.95-.35,1.11-.87,1.29s-1.07.36-.87,1.3c0-.23-.27-.14-.38-.23-.22.55-.52,1.08.39,1.77-.26.3-.48,0-.87-.17a.72.72,0,0,1,.22,1l-.08-.23-.37.83.88.38c-.49.23-1-.54-1.09,0l.66.42c-.47.45-1.67.16-2.51.44A9.66,9.66,0,0,0,3.37,22.2a10.67,10.67,0,0,1-.51,2,4.3,4.3,0,0,1-1.06,1.68l-.6-.06c-.85-.19,1,1,.25.9l.31.38c-.17,0-.37.17-.52,0-.1.25,0,.3.24.54l-.59.16C.25,28.71,1,29.8.7,30.86-.62,32,.22,34.76.81,36.15a2,2,0,0,1,.26,1.55,9.19,9.19,0,0,1-.51,1.67c-.39,1.14-.74,2.38.2,3.29-.11.09.2.21.29.19.07.64.18,1.27.3,1.9l.09.38a5.84,5.84,0,0,0,.32.91,5.4,5.4,0,0,0,1.4,2.08,1.83,1.83,0,0,0,2.23.25c.87-.47,1.79-1.63,3-3.54l.19,0c.17-.94.13-1.44-.91-1.78,1.1-.36-.06-.7.27-1h.1c-1-.34.52-1.17-.34-1.51.09,0,.4,0,.44.07-.2-.33-.51-.78.15-.89-.31-.82-.06-2-1.16-2.5l.19,0c-.73-.29-.12-.41-.49-.75a.87.87,0,0,1,.17,0c-.73-.34-.12-1-.4-1.31h.45L7,34.44l-.1.25c-1.22-.16.78-.48,0-1,.2-.44-2.47-1.23-1.78-1.69-.53-.32.89.34.51-.09.63.07.37.22.89.2-.25-.39.73-.47.36-1l.49.07c-.8-.71.84-.89.06-1.42-.29-.66,1.52,0,.71-.82l.71,0c.17-.21-.75-.38-.37-.56.4.13.41-.24.76,0,.81-.37-.54-1.48.8-1.86-.71-.45-.11-.65-.63-1,.34.11.35-.74.9,0,0,.06,0,.12-.12.06l.43.23c1-.06-.14-.93.17-1.29-.2.05-.24.23-.49,0l.23-.35.34.26c.16-.15.31-.31.48-.45l-.5-.15c.38-.15,1.19.16.71-.47-.28-.33-.74-.07-.73-.43A6.93,6.93,0,0,0,12.52,22c-.51-.26-.42-.37-.45-.55l.43.25c-.3-.84,1,.42.85-.31l.26.23L12.84,21c-.53-1,1,.38.2-.85-.05.23-1-.55-.62-.66l.35.34c0-.18-.13-.34,0-.36.15.23.53.45.6.23l.39.47-.45-.86c.6.07.41-.74,1-.41a.56.56,0,0,0,.24-.9c.26.41.63.24,1,.68-.28-.47-.25-1.16.31-.92l0,.07c.93-.14.36-1.49,1.36-1.45-.41-.41.07-.42-.49-.91.07-1.07,2,.31.74-1.65.19-.31.64.16.85.15v.14a2.53,2.53,0,0,1,.94-.88c.06-.32-.52-1.22,0-1.24.12.43.22.27.36.18,0,.11,0,.26.34.38a.79.79,0,0,1-.05-.3.55.55,0,0,1,.06.08c.14-.27,0-.36-.1-.34a.65.65,0,0,0-.18-.2c.53.31.64-.46,1,.14.6-.52.72-1.5,1.21-2a.85.85,0,0,1,.14.87l.36-.33c.24.48-.1.4-.18.56.89.54.64-1.31,1.6-.85l0-.44.06,0a.92.92,0,0,1,0-.65c.27.39.42,1,.71.84.4.31.58-.49.82-.84-.2,0-.24-.27-.22-.45s.4.33.45.1l.23.59c-.26-.54.19-.75.16-1,.24.41-.11.47,0,.81a8.51,8.51,0,0,1,.9-.39c.2-.56-.24-.55-.24-1.13.27-.21.45-.73.91-.47l-.26-.5c.48-.58.88-.6,1.41-.15a11.82,11.82,0,0,0,1.6-3.26,2.66,2.66,0,0,0-.16-1.93A2.67,2.67,0,0,0,28.47.18C26.05-.58,25.27,1.29,23.09,2.55Z"/></g></g></svg>