<svg xmlns="http://www.w3.org/2000/svg" viewBox="0 0 506.71 50.24"><defs><style>.cls-1{fill:#1b1b1b;}</style></defs><title>资源 98</title><g id="图层_2" data-name="图层 2"><g id="图层_1-2" data-name="图层 1"><path class="cls-1" d="M20.07,17.15l.34.31C20.43,17.36,20.35,17.25,20.07,17.15Z"/><path class="cls-1" d="M23.13,31.27a1,1,0,0,0,.05.11C23.16,31.3,23.14,31.28,23.13,31.27Z"/><path class="cls-1" d="M23.8,29.58h0l-.07,0Z"/><path class="cls-1" d="M16.11,24.13a5.19,5.19,0,0,1,3,.94,20.57,20.57,0,0,0,2.28,1.45,11.4,11.4,0,0,1,2.4,3c.54.14.64.61.77,1.07A2.18,2.18,0,0,0,25.08,32l-.45.34c.27.25.4.58.16.84l-.14,0c.36.41.07.84.24,1.06l-.14,0c0,.16,0,.31,0,.47l-.18-.12a2.81,2.81,0,0,1,.12.54,2.65,2.65,0,0,1-.06.5,1.69,1.69,0,0,1-.43.84l.54.2a2.74,2.74,0,0,0-.58.66c-.1.22-.18.43-.27.64a1.31,1.31,0,0,1-1.09,1l-.08-.12c-.09,1.07-.84,1.28-1.53,1.32a4.86,4.86,0,0,0-1,.15,1.29,1.29,0,0,0-.47.28,2.2,2.2,0,0,0-.48.52c.16-.23-.17-.26-.19-.4-.7.37-1.53.55-1.44,1.67-.64,0-.54-.31-.64-.74,0,.51-.51.7-1,.74l.23-.19a12.84,12.84,0,0,1-1.41.05c0,.33.1.64.15,1-.76-.38,0-1.17-.77-1.07L14,42.8a2.07,2.07,0,0,1-1.09-1.13c-.23-.51-.4-1.05-.63-1.5a5.28,5.28,0,0,0-.54-.35c-.18-.12-.34-.26-.52-.37a3.9,3.9,0,0,1-.51-.37,4.08,4.08,0,0,1-.5-.4,8.44,8.44,0,0,1-1.81-2.13,5.87,5.87,0,0,1-.85-2.72,3.23,3.23,0,0,1,.79-2.38l.6.09c.41.13.18-.12-.06-.44s-.39-.65,0-.5a2.8,2.8,0,0,1-.15-.48c.19,0,.42,0,.49.2.18-.22.07-.29,0-.59a4.89,4.89,0,0,1,.54.19c.47-.11.71-.45,1.14-.81a2.28,2.28,0,0,1,1.68-.58,12,12,0,0,0,2.55,1,7.3,7.3,0,0,1,1,.52,2.82,2.82,0,0,1,.77.82,1.42,1.42,0,0,1,0,1.65,1.71,1.71,0,0,1-1.3.85,1.07,1.07,0,0,1-.51-.12c-.08-.1-.06-.17-.12-.23s-.31-.09-.77,0c0-.12-.2,0-.27.1a1.28,1.28,0,0,1-.26-.39c0-.1.07-.1,0-.09h0l-.54-.07h0c-.07,0,.1,0,.16.07a.93.93,0,0,1,.23.14c.14.1.07,0,.07,0a1,1,0,0,1,.35-.42,3,3,0,0,0,.53-.47,1.5,1.5,0,0,1,.59-.53l.52-.22a1.4,1.4,0,0,0,.57-.34,1.68,1.68,0,0,0,.24-2.08c-.5-1.08-2.25-2.52-5.18-2.28l.07-.23a6.17,6.17,0,0,0-3.8,2.7,4.45,4.45,0,0,0-.34,4.14c-.56.23-.51,1.08-.17,1.86A18.33,18.33,0,0,1,8,36.9H7.87a12.68,12.68,0,0,1,2.26,2.18,3.38,3.38,0,0,0,2.73,1.28.59.59,0,0,1-.69.24c.36.1.78.14,1.18.21s.82.07,1.19.09c.74,0,1.33.08,1.44.39a9.26,9.26,0,0,0,1.57-.38A9,9,0,0,0,19,40.25a8.28,8.28,0,0,0,2.4-2A5.42,5.42,0,0,0,22.88,34l.14.18a2.44,2.44,0,0,1-.08-1.35,2.5,2.5,0,0,0,0-1.38c.09-.07.13-.16.17-.14A9.24,9.24,0,0,1,22.46,29a4.7,4.7,0,0,0-.87-2l.35-.28c-.24-.34-.49-.68-.75-1a12.11,12.11,0,0,0-.86-.87l.55.73c-.58.28-.7-.15-1-.77a2.2,2.2,0,0,0-1.74-1.4,1.52,1.52,0,0,0-1.17-.2,4.39,4.39,0,0,0-1.29.41c-.84.34-1.51.78-2.11.4-.67.54.64-.9-.35-.51,0-.64.49-.37.27-.9a2.74,2.74,0,0,1-1.38-.18,1.9,1.9,0,0,0-1.58.11l-.14-.48a3.68,3.68,0,0,1-1.16.58c-.39.1-.79.14-1.17.23a2.06,2.06,0,0,0-1.78,1,1.66,1.66,0,0,1-1.56.63c-.42,0-.93.15-1.2,1.25q-.49.1-1,.25c-.6.69.37,1-.38,1.62-.38-.26-.8,1-.95.28a3.42,3.42,0,0,0-.72,1.55,7.42,7.42,0,0,0-.15,1.75A12.61,12.61,0,0,1,0,35c.85.51.63,1.89,1.34,2.15-.17.08,0,.71.08,1.18s.08.77-.55.18c-.1-.11-.16-.33,0-.36l-.52,0A2.28,2.28,0,0,0,1,40.28,8.41,8.41,0,0,1,2.46,42c-.1-.48-.44-1,.06-.79.23.41.43.83.69,1.22H2.69a16.24,16.24,0,0,0,1.15,1.87L4,43.72c.47.94.19,1.88,1.6,2.15.67,0-.33-1.14.63-.59a11.42,11.42,0,0,0,4.05,3.44c0-.59.48-.42,1-.4l-.09.49c1,0,1.08.22,1.18.55s.22.66,1.2.57l-.22.31c.22-.31.44-.63.64-1,.87-.4,1-.13,1.27.11s.51.4,1.4-.26c-.7.08-.31-1.1.5-.88l-.19.48c.46-.11.6-.34.91-.26-.25.28-.1.71.6.56l-.42.64a13.12,13.12,0,0,0,1.22-1c1.11.37,2.5-.71,3.1-.2a7.48,7.48,0,0,0,1.14-.36c.59-.22,1.16-.68,1.22-1.1-.2.62,1,.2,1,.83.31-.76,1.5-2,2.39-2.11l-.07.14a4.55,4.55,0,0,0,1.5-1.2,6.82,6.82,0,0,0,1-1.47c.29-.5.55-1,.81-1.5a10.44,10.44,0,0,1,1-1.45c-.56-.15.23-1.17-.58-1.17a9.27,9.27,0,0,1,1.07-2.95,1.32,1.32,0,0,0-.71-2c-.05-1,.56-1.17.69-1.71l.12.24c-.25-1.93-.4-2.45-.63-3.85-.43-.63-1.42-.44-1.58-1.64.54.22.29-.22.12-.64.17.24.35.28.38-.4a.89.89,0,0,1-.38-.21s0-.05.09-.06c-.48-.64-.54-.45-.43-.11-.07,0-.13.07-.19.22a2.54,2.54,0,0,0-.39-1.38c-.23-.41-.41-.75-.13-1-1.47-1.92-3.26-2.59-4.94-3.41,0-.41.61-.49,1.14-.22a10.26,10.26,0,0,0-1.24-.68c.28-.44.88.16,1.28.36a2.12,2.12,0,0,0-1-.94,4.06,4.06,0,0,0-1.33-.44A6.44,6.44,0,0,1,21,17.23l-.5.32-.1-.09c0,.22-.52.43-.8.44-.18-.51.2-1.08-.77-1.16a1.79,1.79,0,0,0-1.5-.12,11.43,11.43,0,0,0-1.63.56c.53,0,.37.31.17.49-.44.06-.77-.38-1.1-.14l-.14-.62c.26.55-1.09.86-1.19,1.14-.36-.4.61-.53.66-.9a9.63,9.63,0,0,0-1.37.35c-.22.08-.46.12-1.33.46-.75.81.37.49.13,1.18-.75.4-1.24,1.14-2.24,1.26l.53.34A5.13,5.13,0,0,1,7,22.59c-.16.35-.29.68-.41,1s-.18.63-.25.91A5.73,5.73,0,0,0,6.12,26a3.89,3.89,0,0,0,.43,1.92c.47.86,1.06,1.13,1.67,1a3.93,3.93,0,0,0,1.44-.42,5.73,5.73,0,0,0,.63-.34,6.41,6.41,0,0,0,2.49-1.86A6.53,6.53,0,0,1,16.11,24.13Z"/><path class="cls-1" d="M493.9.62l.33.31C494.25.82,494.17.71,493.9.62Z"/><path class="cls-1" d="M496.94,14.54a1,1,0,0,0,.05.11C497,14.58,497,14.55,496.94,14.54Z"/><path class="cls-1" d="M497.47,12.91h0l-.07,0Z"/><path class="cls-1" d="M490,7.6a5,5,0,0,1,2.92.93,17.59,17.59,0,0,0,2.21,1.41,11.2,11.2,0,0,1,2.34,3c.53.13.63.6.76,1a2.08,2.08,0,0,0,.51,1.29l-.45.33c.27.24.4.57.16.82l-.14,0c.36.4.07.82.25,1l-.14,0c0,.16,0,.3,0,.46l-.18-.12a2.66,2.66,0,0,1,.12.53,2.51,2.51,0,0,1-.05.49,1.61,1.61,0,0,1-.42.81l.54.2a2.55,2.55,0,0,0-.57.64c-.1.22-.18.42-.26.62a1.25,1.25,0,0,1-1.06.93l-.08-.11c-.07,1.05-.81,1.26-1.49,1.29a4.57,4.57,0,0,0-1,.14,1.24,1.24,0,0,0-.46.28,2.15,2.15,0,0,0-.46.52c.15-.23-.17-.26-.18-.4-.68.36-1.49.54-1.41,1.66-.63,0-.53-.31-.63-.74,0,.51-.5.7-1,.74l.23-.19a12.57,12.57,0,0,1-1.38.06c0,.33.09.64.15,1-.74-.38,0-1.17-.75-1.07l-.16.77a2,2,0,0,1-1.06-1.12c-.22-.51-.38-1-.61-1.49a21.05,21.05,0,0,1-2-1.45,8.24,8.24,0,0,1-1.77-2.07,5.7,5.7,0,0,1-.83-2.65,3.11,3.11,0,0,1,.79-2.32l.6.09c.41.13.17-.12-.06-.43s-.39-.64,0-.49a2.82,2.82,0,0,1-.16-.47c.18,0,.41,0,.48.2.18-.21.07-.28,0-.57a4.67,4.67,0,0,1,.53.2c.46-.09.68-.43,1.1-.78a2.18,2.18,0,0,1,1.63-.57,10.53,10.53,0,0,0,2.46,1,7.48,7.48,0,0,1,1,.48,2.7,2.7,0,0,1,.76.78,1.35,1.35,0,0,1,0,1.6,1.62,1.62,0,0,1-1.27.8,1,1,0,0,1-.48-.14c-.07-.1,0-.17-.09-.23s-.27-.08-.72.07c0-.12-.19,0-.26.11a1.17,1.17,0,0,1-.24-.37s0-.07,0-.07h-.08l-.53-.06h0a1,1,0,0,1,.15.07.91.91,0,0,1,.22.14l.13.1v0a.88.88,0,0,1,.32-.4,2.51,2.51,0,0,0,.49-.47,1.4,1.4,0,0,1,.57-.55l.52-.23a1.43,1.43,0,0,0,.57-.34,1.67,1.67,0,0,0,.26-2.07c-.48-1.07-2.22-2.5-5.12-2.27l.07-.23a6.1,6.1,0,0,0-3.77,2.67,4.4,4.4,0,0,0-.33,4.1c-.56.23-.51,1.07-.17,1.84a17.57,17.57,0,0,1,1,1.82h-.12a12.25,12.25,0,0,1,2.24,2.16,3.33,3.33,0,0,0,2.7,1.27.59.59,0,0,1-.68.24c.36.09.78.14,1.17.2s.81.07,1.18.09c.73,0,1.31.08,1.42.4a9.2,9.2,0,0,0,1.55-.38,8.93,8.93,0,0,0,1.45-.65,8.2,8.2,0,0,0,2.38-2,5.34,5.34,0,0,0,1.44-4.27l.14.18a2.38,2.38,0,0,1-.08-1.34,2.45,2.45,0,0,0,0-1.36c.09-.07.13-.15.17-.14a8.93,8.93,0,0,1-.66-2.25,4.61,4.61,0,0,0-.86-1.95l.35-.28c-.24-.34-.49-.67-.74-1s-.57-.58-.85-.86l.55.72c-.58.28-.7-.14-1-.76A2.15,2.15,0,0,0,492,6.79a1.49,1.49,0,0,0-1.16-.2,4.34,4.34,0,0,0-1.27.41c-.83.35-1.49.78-2.08.41-.66.54.63-.9-.34-.51,0-.64.48-.37.27-.9a2.65,2.65,0,0,1-1.36-.18,1.86,1.86,0,0,0-1.55.11l-.14-.48a3.58,3.58,0,0,1-1.14.57c-.39.1-.78.14-1.16.22a2,2,0,0,0-1.76,1,1.63,1.63,0,0,1-1.55.62c-.42,0-.93.15-1.18,1.24q-.49.1-1,.24c-.59.68.38,1-.37,1.61-.38-.26-.79,1-.94.27a3.35,3.35,0,0,0-.71,1.53,7.31,7.31,0,0,0-.15,1.73,12.17,12.17,0,0,1-.36,3.75c.85.5.63,1.86,1.33,2.12-.17.08,0,.7.07,1.16s.08.76-.55.18c-.1-.1-.15-.33,0-.36l-.52,0a2.23,2.23,0,0,0,.66,2.1,8.17,8.17,0,0,1,1.45,1.69c-.1-.47-.43-1,.06-.78.22.4.42.81.68,1.2h-.51a16,16,0,0,0,1.13,1.85l.19-.56c.46.93.18,1.87,1.58,2.13.66,0-.32-1.14.62-.59a11.23,11.23,0,0,0,4,3.4c0-.59.48-.43,1-.4l-.09.49c1-.05,1.06.22,1.17.54s.21.66,1.18.57l-.22.31c.22-.31.43-.63.64-1,.86-.4,1-.13,1.26.1s.5.4,1.38-.26c-.69.08-.31-1.1.49-.88l-.19.48c.46-.11.59-.34.9-.26-.25.28-.09.71.59.57l-.41.64a13.07,13.07,0,0,0,1.2-1c1.1.37,2.47-.7,3.06-.19a7.28,7.28,0,0,0,1.12-.36c.58-.21,1.14-.67,1.2-1.1-.19.62,1,.2.95.84.3-.75,1.48-2,2.36-2.09l-.07.13a4.46,4.46,0,0,0,1.49-1.19,6.68,6.68,0,0,0,1-1.46c.28-.5.54-1,.79-1.48a10.08,10.08,0,0,1,1-1.43c-.56-.15.23-1.15-.58-1.16a9,9,0,0,1,1.06-2.91,1.3,1.3,0,0,0-.71-2c-.06-1,.56-1.15.69-1.68l.12.24c-.25-1.9-.4-2.41-.63-3.8-.42-.62-1.42-.43-1.57-1.61.54.22.29-.21.12-.63.17.24.35.28.39-.4a.88.88,0,0,1-.38-.21s0-.05.09-.06c-.48-.63-.54-.44-.43-.11-.07,0-.13.07-.19.22a2.47,2.47,0,0,0-.38-1.36c-.23-.4-.41-.74-.13-1C502,5,500.24,4.35,498.59,3.54c0-.41.61-.49,1.13-.23a10.22,10.22,0,0,0-1.23-.67c.28-.44.87.16,1.27.35a2.07,2.07,0,0,0-1-.93,4,4,0,0,0-1.31-.43A6.24,6.24,0,0,1,494.82.7l-.49.32-.1-.09c0,.22-.52.43-.79.45-.18-.51.2-1.08-.76-1.15A1.75,1.75,0,0,0,491.19.1a11.23,11.23,0,0,0-1.61.56c.52,0,.37.31.17.49-.44.06-.76-.38-1.08-.14l-.14-.62c.26.55-1.07.85-1.17,1.14-.36-.4.6-.53.65-.89a9.57,9.57,0,0,0-1.35.35c-.22.08-.45.12-1.31.45-.74.8.37.5.13,1.18-.73.4-1.22,1.13-2.21,1.24l.53.35A5,5,0,0,1,481,6c-.15.35-.29.67-.4,1s-.17.62-.24.9a5.64,5.64,0,0,0-.16,1.5,3.84,3.84,0,0,0,.45,1.9c.47.85,1.07,1.12,1.67,1a3.91,3.91,0,0,0,1.43-.4,5.52,5.52,0,0,0,.62-.33,5.92,5.92,0,0,0,2.42-1.8A6.31,6.31,0,0,1,490,7.6Z"/></g></g></svg>