<svg xmlns="http://www.w3.org/2000/svg" viewBox="0 0 412.48 163.16"><defs><style>.cls-1{fill:#1b1b1b;}.cls-2{fill:#ff2600;}.cls-3{fill:#ff674c;}.cls-4{fill:#fff;}.cls-5{fill:#cf1d1b;}.cls-6{fill:#de831b;}</style></defs><title>资源 106</title><g id="图层_2" data-name="图层 2"><g id="图层_1-2" data-name="图层 1"><path d="M402.54,51.19c-4-29.06-28.07-25.61-57.11-25.61-79.9,0-213.52-1.23-293.38,2.29C21.69,29.21,5.87,26.09,3.52,51.19c-.28,3-.36,31.85-.26,34.91,1,29.7,20.26,59.64,56.06,59.64H281.95c22.3,0,34.29,3.24,63.27-1.46,31.58-5.12,57.72-19.69,57.92-58.18,0-.15,0-.29,0-.44C403.15,82.71,402.93,54,402.54,51.19Z"/><path class="cls-1" d="M278.75,27.63l-2.47-.18A8.22,8.22,0,0,0,278.75,27.63Z"/><path class="cls-1" d="M271.45,143.49l.59,0A3.76,3.76,0,0,0,271.45,143.49Z"/><path class="cls-1" d="M182.56,21.77h.13l.64,0Z"/><path class="cls-1" d="M308.82,22.3c-33.12-.29-41.91-1.15-76.25-.84-16.38-.08-33.86.14-49.87.31-7.6.67-21,.11-30,.73l-3.49-.33a86.09,86.09,0,0,1-9.85.2l.19-.11c-4.63.33-9.85.24-12.15.4l.19-.11-5.62.12,1-.16c-8.07.41-16.39.57-23.73.6l.62.42c-15.69-.13-21.4.92-35.58.83l.19-.11c-4.46.46-8.46.71-12.24.86s-7.28.16-10.85.16-7.17,0-11.1.2a49.13,49.13,0,0,0-13,2.23c2.39-.82-1.1.07-.94-.07A22.94,22.94,0,0,0,9.79,30.9a18,18,0,0,0-4.54,4.89c-2,3.37-2.38,5.92-2,6.1-.52,1.58-.8,2.71-1,3.5s-.34,1.27-.43,1.56c-.2.59-.33.48-.56.87.18,0,.1,1.39,0,3.47s0,4.59,0,7.05L1.07,56.1c0,4.63,0,9.25,0,13.87l.72-2.72c-.24,7.34-.88,1.86-.72,8.9l.59-.09c0,2.54-.11,4.81-.21,7L1.31,86.2c0,1,0,2.08,0,3.1a64.48,64.48,0,0,0,1.35,13.24,64.67,64.67,0,0,0,15.14,28.4,53.88,53.88,0,0,0,28.32,16A61.82,61.82,0,0,0,54.15,148c1.35.12,2.69.15,4,.17s2.61,0,3.91,0l15.29,0c10.09,0,20,.11,29.46.37l1.68.44c.73.64,10.48-1,11.93-.36l4.42-.29c1.24.11,3.86.24,1.66.38a63.47,63.47,0,0,0,7.13-.28l4.39.4c16.12.31,29.83-.46,46.79-.3,20.38.82,58.74.07,80.84-.37q5.82-.18,11.87-.21c4,0,8.07,0,12.16.16,8.18.34,16.58,1.2,25.16,1.43a163.91,163.91,0,0,0,25.63-1.35,108.22,108.22,0,0,0,24.4-5.69,13.75,13.75,0,0,0,2.17-.8,8.4,8.4,0,0,0,1.35-.67,71.16,71.16,0,0,0,13.49-6.82,56.63,56.63,0,0,0,6.11-4.6,54.23,54.23,0,0,0,5.41-5.47s.1-.1.28-.32l.76-1c.68-.82,1.59-2.09,2.66-3.7a51.64,51.64,0,0,0,6.23-14A69.41,69.41,0,0,0,405.75,86c-.09-6.44-.28-12.72-.5-18.2s-.5-10.11-.85-13.16a19.55,19.55,0,0,0-.58-3.34c-.21-.66-.41-.72-.52-.25a106.59,106.59,0,0,0-.93,10.72l-.65,12-.38,8c-.13,2.9-.27,5.94-.67,9.16l-.09-.7a64.44,64.44,0,0,1-1.64,10.4,55,55,0,0,1-6.32,15.61,60.53,60.53,0,0,1-4.46,6.35,8.75,8.75,0,0,0-2.17,1.65c-.5.42-1,.9-1.62,1.42l-1.86,1.57a39.18,39.18,0,0,1-7.28,4.85l.26-.23a40.17,40.17,0,0,1-6.28,3.34,65.06,65.06,0,0,1-6.82,2.4c-4.63,1.39-9.33,2.34-13.79,3.5a7.45,7.45,0,0,1,2.55-.84c-6.48,1.54-15.69,2.8-16.22,2.37-4,.47-8.37.88-12.87,1.07s-9.12.16-13.58,0-8.79-.33-12.67-.41-7.3-.05-9.93.1l.73-.12c-6,.46-7.74,0-14.41.31a4.65,4.65,0,0,1-.76-.13c-6.48.54-18.92.08-24.17.31l-.34-.33-12.91.08,4.83.07c-1.67.92-9.77-.58-19.13,0-8.76-.12-17.77,1.91-26.88,1.46-4.34.43,3.82-.7-2.66-.37-.21-.48,3-.3,1.36-.68-6.37.23-10.45-.49-18.31-.17l-.32-.37c-10.25.68-19.34-.49-26.17.16-10.57.31-7.09-1.11-18.1-.38l-4.28-.5c-4.71-.08-3.37.62-8.6.37.32-.32-6.6-.25-3.54-.56-11.82-.5-24,.71-39.57-.13-3.37.61-11.24.26-13.73.7a15.32,15.32,0,0,0-2.38-.19c-.65,0-1.37-.12-2.09-.18s-1.45-.12-2.1-.24a15.07,15.07,0,0,1-2.51-.48c-.18-.09.49-.07,2.57.05a7.7,7.7,0,0,1,1.88.26l1-.29c-4.14-.64-7.83-1.23-11.47-2.15a38.09,38.09,0,0,1-10.72-4.34c.51.33,1.07.69,1.59,1l1.4.78c.74.42,1,.6-.07.21a46.25,46.25,0,0,1-6.55-4c.48.25,1,.45,1.49.66a48.83,48.83,0,0,1-8.51-7.54l.82,1.4a42.29,42.29,0,0,1-4.05-5.32c-1.06-1.68-2.28-3.33-4.09-6-1.74-2.34,2.29,4.88-.86-.22A67,67,0,0,1,9.39,104c-.67-2.41-1.2-4.93-1.64-7.44s-.7-5-.85-7.44c-.35.95-.59-1.68-.71-4.35l.37-.32C6,73.68,7.36,80.47,7,69.8l.26.94-.77-2.82a31.6,31.6,0,0,1,0-7.55c.19-1.4.29-3.05-.06-8.26,0,2-.24,2.55-.43,1.86a9.35,9.35,0,0,1-.19-1.82,17.16,17.16,0,0,1,.27-3.06l.21,1.3A24.59,24.59,0,0,1,7.11,45c-.12.78,0,1,.18.58s.54-1.55,1.16-3.3a25.34,25.34,0,0,0-.35,2.52,18.25,18.25,0,0,1,2.28-6.47,15.29,15.29,0,0,1,3.14-2.8,18,18,0,0,1,4.22-2,22.1,22.1,0,0,1,7.18-1.25l.55-.05c.35,0,.86-.09,1.48-.13,1.24-.11,3-.21,4.77-.32,3.63-.2,7.72-.37,9.24-.69-2.67.42,4.68.35,2.6.81,1.72-.25,5.15-.52,8.67-.75a87.53,87.53,0,0,1,9.09-.2l-.77.08c15.07-.16,25.75-1.41,39.3-1.21-.63-.43,6.53-.33,4.75-.85,14-.82,25.56.72,30.6-1.06,6.37-.18,7.56.32,10.86.37l-1.52.1c11.94-.25,15.41-.3,24.29-.31,4.43-.19,5.12-1,13.06-.84-2.57.33.68.26,3.65.24-1.9.06-2.48.17,1.42.37.55-.1,1.4-.16,2.19-.22,0,0,.19,0,.11.08,5-.13,4.09-.22,1.79-.26.12,0-.08-.11-.79-.2,5.14.38,14.34-.07,15,.48,14.9-.15,25.56-.71,38-.91,1.39.28-1.51.52-5.11.63l8.8-.09c-.08.4-5.06.22-7.77.3,10.48.66,21.6-.62,33.89,0l2.55-.31.73.05a21.23,21.23,0,0,1,4.54-.44c1.74.35-.12.81,6,.8,4.81.35,13.67-.13,20-.31-3.4-.07-2.3-.26-.84-.38,3,0,4.79.35,7.14.21l.29.47c-1.2-.45,7.95-.46,9.07-.66,1.73.35-4.72.29-5.48.55l18.3,0c6.51-.35-1.18-.45,1.93-.86,5.74-.09,11.36-.4,18-.21L353,26.2c10.77-.45,17.28-.45,24.36.93a36.41,36.41,0,0,1,12.77,3.33,25,25,0,0,1,4.6,3.07,23.29,23.29,0,0,1,3.29,3.58,30.84,30.84,0,0,1,3.75,6.8c.8,2,1.32,3.69,1.71,5,.77,2.69,1.15,3.84,1.43,4s.36-.67.35-2.14a33.12,33.12,0,0,0-3.47-13.73,24.73,24.73,0,0,0-4.06-5.77,22,22,0,0,0-1.59-1.54,7.43,7.43,0,0,0-.62-.53,30.61,30.61,0,0,0-11.39-5.76,58.45,58.45,0,0,0-10.8-1.82,181.85,181.85,0,0,0-19.51-.14l-9.73.26L333.65,22C326.32,22.12,318.24,22.24,308.82,22.3Z"/><path class="cls-2" d="M345.43,121.58c-28.87,4.68-40.73,1.45-63,1.45H59.12C-10.73,123-17.35,8.67,51.87,5.61,131.44,2.1,266.05,3.33,345.65,3.33c31.76,0,57.5,26.8,57.5,59.85C403.15,101.86,377,116.46,345.43,121.58Z"/><path class="cls-1" d="M211.68,125.22l-2.41-.17A7.81,7.81,0,0,0,211.68,125.22Z"/><path class="cls-1" d="M334.17,1.08l.57,0A3.62,3.62,0,0,0,334.17,1.08Z"/><path class="cls-1" d="M118,119.34h.13l.62,0Z"/><path class="cls-1" d="M241,119.82c-32.28-.21-40.84-1-74.3-.69-16-.07-33,.12-48.59.22-7.4.63-20.48,0-29.24.54l-3.4-.36a81.66,81.66,0,0,1-9.6.11l.19-.1c-4.51.27-9.6.11-11.84.25l.19-.11-5.47,0,.93-.14a50.23,50.23,0,0,1-11.16-.73,43.57,43.57,0,0,1-10.08-3.14l.34.62a56.66,56.66,0,0,1-8.15-4.53,56,56,0,0,1-5.94-4.57,44,44,0,0,1-9.79-12.44l.18.1a45.4,45.4,0,0,1-5.17-10.14,56.43,56.43,0,0,1-2.55-9.85,85.64,85.64,0,0,1-1.06-10.2A113.2,113.2,0,0,1,6.53,53c-.1,2.15.32-.89.41-.7a73.91,73.91,0,0,1,2.2-10.89c.81-3,1.5-5,1.13-5.26A18.71,18.71,0,0,1,12.45,32c.35-.43.45-.29.77-.54-.19-.09.32-1.22,1.2-2.81a37.27,37.27,0,0,1,3.72-5.23c-.4.56-.83,1.1-1.2,1.69a44.53,44.53,0,0,1,9.13-9c-.81.32-1.63.63-2.45,1,2.8-2,3.35-2,3.76-2.1s.75-.23,3.57-1.87l-.35-.48A37,37,0,0,1,42.29,9.06a52.15,52.15,0,0,1,5.65-.5c2-.09,4-.06,6.41,0C74.19,7.8,94.79,7,115.06,6.47s40.21-.85,58.71-.42l1.63.43c.71.63,10.2-1,11.62-.41l4.3-.31c1.21.11,3.76.22,1.62.38a61.19,61.19,0,0,0,6.94-.3l4.27.39c15.71.28,29.06-.49,45.59-.31,19.85.84,57.24.2,78.78-.2q5.68-.17,11.57-.2c2,0,4,0,5.91,0,1,0,1.91,0,2.87.11s1.92.14,2.87.28A52,52,0,0,1,373.52,14,57.63,57.63,0,0,1,390,30.39a65.25,65.25,0,0,1,9,20.67,21.05,21.05,0,0,0,.8,3.35A65.52,65.52,0,0,1,400.22,68a61.77,61.77,0,0,1-2.28,13.34l-.1.36-.34,1L397,84.31l-.83,2.1a45,45,0,0,1-6.82,11.37,51.14,51.14,0,0,1-13.1,11,81,81,0,0,1-15.61,7c-4.94,1.66-9.26,2.76-12.08,3.53s-4.16,1.27-3.22,1.49,4.17.21,10.38-.78a85.19,85.19,0,0,0,11.56-2.69,69.06,69.06,0,0,0,7.43-2.73,59.53,59.53,0,0,0,8.33-4.36l-.53.52a48.16,48.16,0,0,0,14.69-14.58,44.42,44.42,0,0,0,6.11-15.76c.64-.74,1.41-4,1.79-7.54s.38-7.33.55-9.2l.06.36a107.58,107.58,0,0,0-1.57-14.91,45.21,45.21,0,0,0-4.82-13.93,6.28,6.28,0,0,1,1.44,2.38,70.79,70.79,0,0,0-5.26-9.54c-1.82-2.76-3.35-4.76-3.31-5.12a64.4,64.4,0,0,0-9.53-9.47,57.8,57.8,0,0,0-12-7.46A54.35,54.35,0,0,0,358.31,2a46.6,46.6,0,0,0-10-.9c.24,0,.49-.08.73-.1-1.51.07-2.78.11-3.86.14s-2,0-3,0c-2,0-4-.06-7.25.07a4.41,4.41,0,0,1-.74-.13c-6.32.53-18.44.05-23.55.27L310.29,1l-12.58,0,4.7.08c-1.63.91-9.52-.6-18.64,0C275.23,1,266.44,3,257.57,2.51c-4.23.42,3.73-.69-2.6-.37-.21-.48,3-.3,1.33-.68-6.21.22-10.18-.5-17.84-.19L238.14.9c-10,.68-18.85-.5-25.5.17-10.3.33-6.91-1.1-17.64-.34L190.83.23c-4.59-.07-3.29.63-8.38.4C182.76.31,176,.41,179,.09c-11.53-.43-23.39.84-38.58.16-3.29.65-10.94.39-13.39.88-.41-.28-15.31.18-6.74-.54a6.36,6.36,0,0,1,2,0l1-.38C114.58-.31,107.52.89,99,1c2.54.06,5.92,0,3.67.26l-8,.13L96.31,1l-11.87.09,1.64.34c-5.81-.05-7.87-.62-14.4.12-3,.39,5.51.35-.61.65-3.88,0-8.74,0-13.86.07-2.59,0-5.11,0-7.92.19-1.37,0-2.73.25-4.08.38s-2.67.4-4,.69c.53.1.1.3-.81.58l-1.66.48-2,.66L36.35,5,33.17,6.24c-.82.37-1.46.63-2,.83a18.44,18.44,0,0,1-2,.67,8.87,8.87,0,0,0-2,.73c-.49.25-1.09.58-1.87,1s-1.7,1.12-2.82,2c.21-.28.44-.52.67-.78-.69.75-1.31,1.6-1.94,2.38-.94.84-1.66,1.58-2.3,2.14s-1.1,1.08-1.52,1.47c-.86.76-1.37,1.26-2,1.73a13.91,13.91,0,0,0-2,2,19.21,19.21,0,0,0-1.41,1.92,33.56,33.56,0,0,0-1.79,3c1.21-1.83,1.66-2.13,1.42-1.44A34.69,34.69,0,0,1,9.1,28.54c.12-.45.26-.89.39-1.34C8,29.78,7.75,30.74,6.83,32.47c.29-.83.28-1.1,0-.66A10.21,10.21,0,0,0,6.08,33c-.28.6-.64,1.39-1,2.4.25-.95.48-1.91.75-2.87a65.19,65.19,0,0,0-2.32,7.93A50.49,50.49,0,0,0,1,51C.49,54.58.34,57.72.06,59a65.63,65.63,0,0,0,.08,7.17,39,39,0,0,0,1.58,9.35c-.43-1.3-.32-.12-.2,1.15s.33,2.6-.11,1.6C2,80,3,83.3,4.33,86.63s2.79,6.65,3.59,8.6l-.4-.69a53.76,53.76,0,0,0,12.4,16.75,62.28,62.28,0,0,0,7.69,5.93,64.5,64.5,0,0,0,8.86,4.89c-.11-.16.24-.09.78.1s1.33.41,2.06.65c1.47.48,2.84.75,2,.24a76.31,76.31,0,0,0,10,2.07c.79.13,1.57.23,2.33.29l2.25.23c1.45.07,2.93.18,4.18.2,5.14.14,9.18.13,11.65-.73,6.22-.09,7.37.4,10.58.49l-1.48.09c11.65-.14,15-.16,23.68-.12,4.32-.17,5-1,12.74-.77-2.5.32.66.26,3.55.26-1.85,0-2.42.17,1.38.38.54-.1,1.36-.16,2.14-.21,0,0,.18,0,.1.08,4.83-.11,4-.21,1.75-.25.11,0-.08-.11-.77-.2,5,.41,14,0,14.58.52,14.53-.13,24.91-.69,37-.9,1.36.28-1.47.53-5,.64l8.58-.1c-.07.4-4.93.23-7.57.31,10.21.65,21.05-.65,33-.05l2.48-.32.71.05a20.23,20.23,0,0,1,4.42-.45c1.69.35-.12.81,5.81.79,4.69.34,13.32-.17,19.46-.36-3.31-.06-2.24-.25-.82-.38,3,0,4.67.34,7,.19l.29.47c-1.17-.45,7.74-.48,8.84-.67,1.69.35-4.6.3-5.34.57l17.83-.07c6.34-.36-1.15-.45,1.88-.86,5.59-.08,11.08-.45,17.47-.11l-2-.44a179.68,179.68,0,0,1,23.85,1.05,152.3,152.3,0,0,0,23.18-1.71,113,113,0,0,0,12.16-2.52c5-1.38,4.6-1.82,1.74-1.72-1.41,0-3.42.18-5.63.36s-4.63.36-6.87.48c-4.48.3-8.25.39-8.25.39-7.53.18-14.13-.16-20.49-.47s-12.47-.59-18.79-.53C272.45,119.24,259.35,119.66,241,119.82Z"/><path class="cls-3" d="M84.38,15.46l.61.17C85,15.56,84.82,15.49,84.38,15.46Z"/><path class="cls-3" d="M238.67,15.4l.14,0C238.71,15.38,238.68,15.39,238.67,15.4Z"/><path class="cls-3" d="M108.07,21.34h0l-.16,0Z"/><path class="cls-3" d="M77,20.87c8.16.21,10.32,1,18.78.69,4,.07,8.34-.12,12.28-.22,1.87-.63,5.18,0,7.39-.54l.86.36a5.3,5.3,0,0,1,2.43-.11l0,.1c1.14-.27,2.43-.11,3-.25l0,.11L123,21l-.24.15a27.51,27.51,0,0,1,5.84-.18l-.15-.44c3.86.49,5.27-.42,8.76.16l0,.11c4.4-1.15,7,.78,11.5-.31-.57.14.24.22.2.33,2.09-.12,4.32-.19,4.36-1,1.52,0,1.24.27,1.44.6,0-.37,1.31-.53,2.5-.55l-.55.14,3.41-.13-.67-.71c1.81.2.46.86,2.19.69l0-.59c2.5.12,4,1,6.39,1.44,10.06.25,20.86-1.24,30.22-.21l.41.44c.18.64,2.58-1,2.94-.36l1.09-.29c.31.11,1,.24.41.38a4,4,0,0,0,1.76-.28l1.08.4c4,.31,7.35-.46,11.53-.3,5,.82,14.47.07,19.91-.37,7.65-1,16.55,1.6,24.39.5a1.35,1.35,0,0,0,.91-.19l7.17.09s34.77.25,8.35-5.08l.18-.14c-3.92-.34-6.4-.42-9.1.29-.43-.86-3.22-.09-4.14-.37l.09-.07c-2.39.67-4.93-.55-7.24,0a.72.72,0,0,1,.67-.32c-1.68.11-4,.3-4.11-.2-4,.13-9.62-.1-12.19.7l.18-.14c-1.47.54-1.9.08-3.54.36-.09-.07-.21-.1-.19-.13-1.6.54-4.66.08-6,.31l-.08-.33-3.18.08,1.19.07c-.41.92-2.41-.58-4.71,0-2.16-.12-4.38,1.91-6.62,1.46-1.07.43.94-.7-.66-.37-.05-.48.75-.3.33-.68-1.57.23-2.57-.49-4.51-.17l-.08-.37c-2.52.68-4.76-.49-6.45.16-2.6.31-1.75-1.11-4.46-.38l-1.05-.5c-1.16-.08-.83.62-2.12.37.08-.32-1.63-.25-.87-.56-2.91-.5-5.91.71-9.75-.14-.83.62-2.76.25-3.39.72-.1-.27-3.87,0-1.7-.63.19,0,.52,0,.49.07l.26-.37c-2.19-.69-4,.38-6.14.27.64.12,1.5.09.92.34l-2,0,.42-.31-3-.18.41.38c-1.47-.2-2-.85-3.63-.3-.75.3,1.39.51-.16.63-2-.26-4.9-.65-7.4-.77.23.43-.44.41-1.13.5l-.08-.37c-2.65.52-1-.82-3.61-.41l.23-.26-.7.78c-2.38.74-1.28-.77-3.92.24,1-.06.49.82-.79.66l.33-.36a5.4,5.4,0,0,1-1.42.15c.42-.19.22-.52-.82-.46l.7-.45-2,.66c-1.53-.39-3.95.1-4.57-.41,0,0-3.28-.25-4,.31.66-.35-1.15-.48-.64-.88a8,8,0,0,1-4.37.29l.19,0c-3.72-.43-6.36.58-9.7.07.15.43-1.61.2-1.18.75-3.45.55-6.3-1.13-7.54.59-1.57.09-1.86-.4-2.67-.49l.37-.09c-2.94.14-3.8.16-6,.12-1.09.17-1.26,1-3.22.77.63-.32-.17-.26-.9-.26.47,0,.61-.17-.35-.38a1.68,1.68,0,0,1-.54.21s0,0,0-.08c-1.22.11-1,.21-.44.25,0,0,0,.11.19.2-1.27-.41-3.53,0-3.69-.52-3.67.13-6.3.69-9.35.9-.34-.28.37-.53,1.26-.64l-2.17.1c0-.4,1.25-.23,1.91-.31-2.58-.65-5.32.65-8.35.05l-.63.32L85,15.64c0,.17-.67.4-1.12.45-.43-.35,0-.81-1.47-.79-1.19-.34-3.37.17-4.92.36.84.06.57.25.21.38-.75,0-1.18-.34-1.76-.19l-.07-.47c.29.45-2,.48-2.23.67-.43-.35,1.16-.3,1.35-.57l-4.51.07c-1.6.36.29.45-.48.86a17.08,17.08,0,0,1-4.42.14l.51.42a15.76,15.76,0,0,1-6-.15c-19.81,3.42-4.17,4.67-4.17,4.67C63.67,22.42,67.69,21.2,77,20.87Z"/><path class="cls-3" d="M35.92,28.07l-.13-.13C35.82,28,35.87,28.07,35.92,28.07Z"/><path class="cls-3" d="M24.43,38.88l0,0Z"/><path class="cls-3" d="M30.79,24.07h0v0Z"/><path class="cls-3" d="M34.63,22.75c-1,.19-1.65-.41-2.52.37a5.21,5.21,0,0,0-1.31,1c.1.66-.57.36-.54,1L30,24.79c0,.21,0,.37-.21.26L29.72,25c0,.31-.21.26-.19.41l-.05-.09-.12.13-.06-.14c-.06.38-.25.55-.51.58l.27.35c-.68-.11-.29.72-1,.52L28,26.62c.27,1.24-1.18-.05-.94,1.15,0-.15-.17-.15-.23-.24-.12.26-.3.49.26,1.14-.15.12-.29-.1-.53-.33.25.28.23.51.14.62l0-.15-.22.38.54.46c-.3,0-.63-.59-.67-.33l.4.43c-.3.12-1-.4-1.57-.5a3.84,3.84,0,0,0-1,1.67c-.25.63-.55,1.17-1.33,1.3L22.39,32c-.52-.37.56.84.06.52l.15.29c-.11,0-.26,0-.34-.19-.1.09,0,.15.09.34l-.4-.13c-.55.23-.18,1-.58,1.36a1,1,0,0,0-.91.89,4.91,4.91,0,0,0-.05,1.43c.18.64-.39.9-1,1.21s-1.15.65-.81,1.33c-.1,0,.06.15.13.18l-.42.81a2,2,0,0,0-.18.61,2.21,2.21,0,0,0,.13,1.23c.36.85,1.56,1.27,4.52.76l.13.06c.44-.28.59-.48,0-1,.82.27.21-.28.5-.27l.06,0c-.52-.48.7-.26.23-.71.06,0,.28.14.27.19,0-.2-.1-.49.36-.29.06-.42.5-.82-.09-1.43l.11.08c-.41-.38,0-.21-.14-.49l.12,0c-.39-.4.16-.47,0-.7l.29.16.09-.33-.12.07c-.77-.5.61.07.23-.44.22-.12-1.37-1.4-.85-1.38-.3-.33.53.47.35.14.4.26.21.23.55.4-.1-.27.56,0,.4-.31l.31.2c-.42-.61.69-.12.26-.64-.09-.4,1,.51.58-.15l.47.22c.13,0-.44-.44-.17-.4.25.2.3,0,.49.27.56.07-.17-.91.72-.67-.42-.46,0-.38-.32-.73.21.17.29-.28.58.28,0,0,0,.07-.08,0l.26.26c.65.29,0-.55.21-.64-.13,0-.17,0-.32-.16l.18-.11.2.24.34-.09-.31-.23c.25,0,.75.44.47-.05-.16-.27-.47-.26-.44-.45a3.4,3.4,0,0,0,1.07,0c-.32-.29-.26-.33-.26-.44l.26.26c-.16-.56.63.53.54.06l.16.21-.48-.62c-.32-.71.61.49.13-.44,0,.12-.59-.58-.38-.55l.21.29c0-.11-.08-.24,0-.21.1.18.33.41.37.29l.24.39-.28-.63c.37.2.25-.33.62,0,0,0,.41,0,.12-.5.17.31.39.3.6.65-.18-.36-.18-.78.15-.5v0c.55.13.17-.84.74-.61-.26-.35,0-.26-.33-.69,0-.67,1.15.58.32-.92.09-.16.38.24.5.27l0,.1c.18-.28.25-.34.46-.42,0-.2-.38-.9-.1-.84.1.31.14.21.21.18s0,.17.22.31a.81.81,0,0,1-.05-.21l0,.07c.06-.16,0-.23-.08-.24a.76.76,0,0,0-.12-.16c.32.29.31-.2.59.27.27-.28.25-.93.46-1.26a.87.87,0,0,1,.16.63l.16-.18c.17.36,0,.26,0,.36.52.48.22-.81.76-.4l-.07-.32,0,0a1,1,0,0,1-.07-.46c.18.3.32.74.45.66.24.26.25-.3.33-.53-.1,0-.15-.21-.16-.34s.24.27.24.11l.18.44c-.19-.4,0-.52,0-.71.17.31,0,.32.07.58l.41-.22c0-.39-.18-.41-.24-.83.11-.14.15-.5.4-.3L37.19,26c.17-.41.37-.4.68-.05.57-2,.47-3.13.11-3.8a1.66,1.66,0,0,0-.94-.82C35.77,20.67,35.61,22,34.63,22.75Z"/><path class="cls-4" d="M129.87,64.72a1.62,1.62,0,0,1-.37,1.28,1.73,1.73,0,0,1-1.17.58l-4.54.3a1.61,1.61,0,0,0-1.06.53,1.78,1.78,0,0,0-.4,1.22l1.17,21.7a1.52,1.52,0,0,1-.4,1.26,1.82,1.82,0,0,1-1.13.57l-3.88.15a1.34,1.34,0,0,1-1.13-.38,1.79,1.79,0,0,1-.55-1.14l-1.17-21.63a1.56,1.56,0,0,0-.51-1.22,1.44,1.44,0,0,0-1.17-.38L97.1,68.63a3,3,0,0,0-1.39.53,3.22,3.22,0,0,0-1,1.14L86.12,87.82a1.24,1.24,0,0,1-.88.8A1.62,1.62,0,0,1,84,88.51L81.15,87a1.85,1.85,0,0,1-.77-1,1.52,1.52,0,0,1,.11-1.33l6.8-14a.9.9,0,0,0,.11-1,1,1,0,0,0-1-.3l-5.56.38a1.9,1.9,0,0,1-1.32-.46A1.47,1.47,0,0,1,79,68.17l-.15-3.35a1.47,1.47,0,0,1,.37-1.14,1.69,1.69,0,0,1,1.17-.61l8-.57a1.88,1.88,0,0,0,1.24-.56,2.15,2.15,0,0,0,.51-1.31L91,47.84a1.82,1.82,0,0,1,.51-1.07,1.55,1.55,0,0,1,1.17-.46l3.15.23a1.34,1.34,0,0,1,1.13.53,2,2,0,0,1,.4,1.22l-.66,12a1.26,1.26,0,0,0,.37,1.1,1.63,1.63,0,0,0,1.17.42l15-1.06a1.82,1.82,0,0,0,1.17-.53,1.45,1.45,0,0,0,.37-1.21l-.66-12.43a1.58,1.58,0,0,0-.51-1.18,1.64,1.64,0,0,0-1.17-.49L88,44.64a1.33,1.33,0,0,1-1-.49A1.72,1.72,0,0,1,86.49,43V39.24A1.51,1.51,0,0,1,87,38.09a1.67,1.67,0,0,1,1.21-.46l35.56.38a1.52,1.52,0,0,1,1.13.5,1.74,1.74,0,0,1,.48,1.26l-.07,3.73a1.52,1.52,0,0,1-.48,1.14,1.34,1.34,0,0,1-1.13.38h-1a1.52,1.52,0,0,0-1.13.49,1.63,1.63,0,0,0-.48,1.17l.73,12a1.71,1.71,0,0,0,.51,1.1,1.63,1.63,0,0,0,1.17.42l4.54-.3a1.34,1.34,0,0,1,1.1.38,1.81,1.81,0,0,1,.59,1.22Z"/><path class="cls-4" d="M168.14,85.16a1.32,1.32,0,0,1,.4,1.18,2.22,2.22,0,0,1-.62,1.18l-2.41,2.21a1.57,1.57,0,0,1-2.2-.23L157.75,83a.88.88,0,0,0-.88-.53q-.51.08-.8.84l-3.07,7a1.45,1.45,0,0,1-.91.8,1.78,1.78,0,0,1-1.21,0l-2.93-1.37a1.76,1.76,0,0,1-.84-1,1.72,1.72,0,0,1,0-1.26l4.32-9.82a2.53,2.53,0,0,0,.18-1.45,2.65,2.65,0,0,0-.55-1.37l-4-4.8a3.93,3.93,0,0,1-.7-1.37,2.51,2.51,0,0,1,0-1.52l2.27-14.77a1.77,1.77,0,0,0-.29-1.26,1.49,1.49,0,0,0-1.1-.57h-.88a2,2,0,0,1-1.1-.65,1.82,1.82,0,0,1-.44-1.26l.22-3.28a2.14,2.14,0,0,1,.59-1.18,1.52,1.52,0,0,1,1.1-.42l1.54.08a1.62,1.62,0,0,0,1.28-.34,1.65,1.65,0,0,0,.55-1.1l.44-2.36a1.6,1.6,0,0,1,.62-1.18,1.51,1.51,0,0,1,1.28-.27l3.15.53a1.46,1.46,0,0,1,1.06.65,1.35,1.35,0,0,1,.18,1.26l-.22,1.75a1.76,1.76,0,0,0,.29,1.29,1.46,1.46,0,0,0,1,.53l5.93.46a1.37,1.37,0,0,1,1.1.53,1.87,1.87,0,0,1,.44,1.22L165,50.2a1.59,1.59,0,0,1-.51,1.18,1.39,1.39,0,0,1-1.17.42l-6.44-.53a2.05,2.05,0,0,0-1.28.42,1.54,1.54,0,0,0-.62,1.1l-1.9,12.41a4.78,4.78,0,0,0,.11,1.52,3.19,3.19,0,0,0,.62,1.37l.22.15a.81.81,0,0,0,.88.42,1.19,1.19,0,0,0,.8-.72l5.85-13.25a1.48,1.48,0,0,1,.88-1,1.28,1.28,0,0,1,1.24.11l2.93,1.37a1.77,1.77,0,0,1,.84,1,1.36,1.36,0,0,1-.11,1.26l-7,16.14a2.34,2.34,0,0,0-.15,1.45,2.9,2.9,0,0,0,.58,1.37Zm31.39-.46a1.7,1.7,0,0,1-.37,1.26,1.89,1.89,0,0,1-1.1.72l-23.7,5.1a1.42,1.42,0,0,1-1.17-.23,2,2,0,0,1-.8-1L167,69.7a1.42,1.42,0,0,1,.15-1.26,1.35,1.35,0,0,1,1-.65l27.73-5.48a1.32,1.32,0,0,1,1.21.27,2,2,0,0,1,.62,1.1ZM168.21,63.15a1,1,0,0,1-1-.27.91.91,0,0,1-.07-1l8.27-22.69a1.23,1.23,0,0,1,.77-.88,1.54,1.54,0,0,1,1.21,0l3.07,1.22a1.61,1.61,0,0,1,.88.84,1.35,1.35,0,0,1,0,1.22l-4,11.2a1.07,1.07,0,0,0,.07,1,.82.82,0,0,0,1,.27l11.41-2.59a1.4,1.4,0,0,0,1.1-.65,1.62,1.62,0,0,0,.22-1.26l-.73-2.74a1.71,1.71,0,0,1,.18-1.26,1.77,1.77,0,0,1,1.06-.8l3.07-.84a1.5,1.5,0,0,1,1.17.19,1.77,1.77,0,0,1,.8,1l2.27,9.6a1.67,1.67,0,0,1-.18,1.22,1.23,1.23,0,0,1-1,.69Zm23,18.2a1.9,1.9,0,0,0,1.1-.72,1.47,1.47,0,0,0,.29-1.26l-.66-7.69a1.48,1.48,0,0,0-1.76-1.45l-14,2.82a1.25,1.25,0,0,0-1,.65A1.72,1.72,0,0,0,175,75l2,7.77a1.63,1.63,0,0,0,.73,1.07A1.55,1.55,0,0,0,179,84Z"/><path class="cls-4" d="M226.45,83.79a2.12,2.12,0,0,1,.29,1.33,1.42,1.42,0,0,1-.66,1.1l-9.66,7.31a1.78,1.78,0,0,1-1.21.3,1.31,1.31,0,0,1-1-.69l-1.83-2.82a2,2,0,0,1-.29-1.29,1.39,1.39,0,0,1,.66-1.07l9.66-7.39a1.83,1.83,0,0,1,1.24-.3,1.33,1.33,0,0,1,1,.69Zm.8-28.48a2.25,2.25,0,0,1,.33,1.29,1.73,1.73,0,0,1-.48,1.14L221,63.6a2.32,2.32,0,0,0-.7,1.26,2.77,2.77,0,0,0,0,1.49l1.68,4.8a1.68,1.68,0,0,1-.88,2.21l-3,1.22a1.44,1.44,0,0,1-1.17,0,1.48,1.48,0,0,1-.8-1l-3.29-9.29a2.47,2.47,0,0,1,0-1.41,2.76,2.76,0,0,1,.69-1.33l4.61-4.42a1.59,1.59,0,0,0,.55-1.14,2,2,0,0,0-.4-1.29l-5.71-7.08a2,2,0,0,1-.4-1.29,1.59,1.59,0,0,1,.55-1.14l2.34-2.28a1.56,1.56,0,0,1,1.17-.42,1.42,1.42,0,0,1,1.1.65Zm23.48-15.16a1.41,1.41,0,0,1,1.1.5,1.83,1.83,0,0,1,.44,1.26l-1.1,29.7a1.59,1.59,0,0,1-.51,1.18,1.29,1.29,0,0,1-1.1.42l-3.22-.08a1.67,1.67,0,0,1-1.1-.57,1.58,1.58,0,0,1-.37-1.26l.51-14.47q0-1.45-.44-.08l-6.22,19.5c-.15.46-.17.72-.07.8s.27-.09.51-.5l1.54-2.06a1.33,1.33,0,0,1,1-.69,1.44,1.44,0,0,1,1.17.38l6.15,5.1a1.73,1.73,0,0,1,.58,1.14,2,2,0,0,1-.29,1.29l-2,2.67a1.33,1.33,0,0,1-1,.69,1.44,1.44,0,0,1-1.17-.38l-5.93-5a1.11,1.11,0,0,0-1.1-.27,1,1,0,0,0-.66.8L234.71,89a1.62,1.62,0,0,1-.8,1,1.36,1.36,0,0,1-1.17.08l-3-1.07a1.57,1.57,0,0,1-1-.88,1.8,1.8,0,0,1-.07-1.33l3.73-11.65A1.55,1.55,0,0,0,232.3,74a1.38,1.38,0,0,0-1-.69l-2.71-.3a1.45,1.45,0,0,1-1.06-.65,1.78,1.78,0,0,1-.33-1.26l3.07-29.17a2.31,2.31,0,0,1,.66-1.26,1.64,1.64,0,0,1,1.17-.5Zm-5,8.61a1.82,1.82,0,0,0-.44-1.26,1.4,1.4,0,0,0-1.1-.5h-6.37a1.64,1.64,0,0,0-1.17.5,1.94,1.94,0,0,0-.58,1.26L233.76,69.7q-.07.69,0,.72c.07,0,.18-.19.33-.65l5.34-16.91a1.78,1.78,0,0,1,.8-1,1.29,1.29,0,0,1,1.17-.11l2.56,1a1.05,1.05,0,0,0,1.06-.11,1.19,1.19,0,0,0,.48-1ZM253.81,77a1.47,1.47,0,0,1-1.13-.53,1.51,1.51,0,0,1-.4-1.22l1.1-19.57a1.87,1.87,0,0,1,.55-1.22,1.34,1.34,0,0,1,1.13-.38l3.15.15a1.63,1.63,0,0,1,1.1.61,1.59,1.59,0,0,1,.37,1.22l-1,19.57a2,2,0,0,1-.55,1.18,1.29,1.29,0,0,1-1.13.42Zm11.27-39.07a1.44,1.44,0,0,1,1.06.5,1.74,1.74,0,0,1,.48,1.26V92.85a1.12,1.12,0,0,1-.44,1,.94.94,0,0,1-1,0l-11.41-5.18a1.76,1.76,0,0,1-.84-1,1.92,1.92,0,0,1,0-1.33l1.24-3.12a1.92,1.92,0,0,1,.92-.91,1.28,1.28,0,0,1,1.21,0l2.63,1.22a.88.88,0,0,0,1,0,1.23,1.23,0,0,0,.44-1V39.69a1.82,1.82,0,0,1,.44-1.26,1.4,1.4,0,0,1,1.1-.5Z"/><path class="cls-4" d="M293.46,50.58a1.11,1.11,0,0,1,1,.34,1.21,1.21,0,0,1,.22,1.1l-7.83,32.59a.85.85,0,0,0,.18,1,1.25,1.25,0,0,0,1.06.3l3.22-.68a1.39,1.39,0,0,1,1.21.27,1.83,1.83,0,0,1,.7,1.1l.51,3.35a2,2,0,0,1-.26,1.26,1.25,1.25,0,0,1-1,.65l-12.95,2.36a1.14,1.14,0,0,1-1.13-.23,1.18,1.18,0,0,1-.18-1.07L286,60.48a1,1,0,0,0-.22-1,1.11,1.11,0,0,0-1-.27l-3.51.69a1.22,1.22,0,0,1-1.21-.19,1.82,1.82,0,0,1-.7-1.1l-.66-3.35A1.75,1.75,0,0,1,279,54a1.62,1.62,0,0,1,1-.68ZM291,45.71a1.72,1.72,0,0,1,.51,1.22,1.47,1.47,0,0,1-.51,1.14l-2.27,2.36a1.3,1.3,0,0,1-1.13.5,1.63,1.63,0,0,1-1.13-.5l-6.07-6.32a1.86,1.86,0,0,1-.44-1.22,1.71,1.71,0,0,1,.51-1.22l2.27-2.36a1.55,1.55,0,0,1,1.17-.46,1.24,1.24,0,0,1,1.1.53Zm45.43,0a1,1,0,0,1,.15,1,1.23,1.23,0,0,1-.88.57L322.36,48.6a1.74,1.74,0,0,0-1.46,1.83l3.58,33.89a1.35,1.35,0,0,0,.51,1,1.37,1.37,0,0,0,1.17.19l6.37-2a1.2,1.2,0,0,1,1.21,0,2.16,2.16,0,0,1,.84,1.1l.88,3.12a1.34,1.34,0,0,1,0,1.26,2.1,2.1,0,0,1-1.06.88L320.6,94.22a1.26,1.26,0,0,1-1.17-.11,1.33,1.33,0,0,1-.58-1l-4.32-42a1.59,1.59,0,0,0-.58-1.1,1.51,1.51,0,0,0-1.17-.34l-14.27,1.45a1.44,1.44,0,0,1-1.17-.38,1.66,1.66,0,0,1-.58-1.07l-.29-3.35a1.66,1.66,0,0,1,.33-1.22,1.5,1.5,0,0,1,1.06-.61L312.12,43a1.49,1.49,0,0,0,1.06-.61,1.67,1.67,0,0,0,.33-1.22l-.15-1.29A1.7,1.7,0,0,1,314.75,38l3.29-.38a1.52,1.52,0,0,1,1.13.34,1.61,1.61,0,0,1,.62,1.18l.15,1.37a1.81,1.81,0,0,0,.59,1.1,1.38,1.38,0,0,0,1.17.42l3-.38a1,1,0,0,0,.8-.53,1.09,1.09,0,0,0-.15-1.07l-.07-.08a2,2,0,0,1-.18-1.26,1.75,1.75,0,0,1,.7-1.1l2.78-1.75a1.66,1.66,0,0,1,1.17-.19,1.45,1.45,0,0,1,1,.72ZM310.8,57.36a1.21,1.21,0,0,1,1,.27.89.89,0,0,1,.18,1L306.7,81a1.23,1.23,0,0,0,.22,1.14,1,1,0,0,0,1,.3l1.1-.23a1.31,1.31,0,0,1,1.17.3,1.59,1.59,0,0,1,.66,1.07l.51,3.2a1.91,1.91,0,0,1-.29,1.33,1.7,1.7,0,0,1-1,.65l-10.61,1.9a1.25,1.25,0,0,1-1.06-.3,1,1,0,0,1-.11-1.14l5.12-22a1.21,1.21,0,0,0-.18-1.1,1.12,1.12,0,0,0-1-.27l-1.24.3a1.58,1.58,0,0,1-1.13-.3,2,2,0,0,1-.77-1.14l-.58-3.27a1.65,1.65,0,0,1,.33-1.18,2.11,2.11,0,0,1,1.06-.8Z"/><path class="cls-5" d="M315.45,106.75l.05.18C315.51,106.84,315.5,106.77,315.45,106.75Z"/><path class="cls-5" d="M329.45,107.44v0A.08.08,0,0,0,329.45,107.44Z"/><path class="cls-5" d="M317.32,112.72h0l0,0Z"/><path class="cls-5" d="M314.62,112.13c.71.24.85,1.05,1.61.76a2.57,2.57,0,0,0,1.09-.16c.2-.62.46,0,.69-.5l.05.36c.08-.18.17-.29.22-.1v.1c.12-.27.22-.1.28-.23v.1l.13,0,0,.15c.2-.28.39-.28.54-.14l0-.44c.31.51.5-.38.78.22v.1c.48-1.12.58.83,1.07-.23-.06.13,0,.23,0,.33.2-.11.41-.16.47-1,.14,0,.09.28.09.61,0-.37.16-.52.27-.54l-.06.14.32-.11v-.71c.15.21,0,.86.15.7l0-.58c.22.13.29,1,.49,1.47.91.31,2-1.12,2.82,0l0,.44c0,.64.29-.94.29-.34l.12-.29a.62.62,0,0,1,0,.38c.09,0,.1-.08.18-.27l.08.4c.36.33.71-.43,1.1-.26.45.82,1.38.11,1.9-.34.71-1,1.63,1.58,2.38.46,0,.09.09-.12.08-.19l.72,0a2,2,0,0,0,.5-.08,1.65,1.65,0,0,0,.86-.6c.5-.67.37-1.93-1-4.45v-.14c-.35-.3-.56-.37-.73.35-.1-.86-.28-.07-.37-.35v-.07c-.17.68-.44-.52-.61.07,0-.07,0-.31,0-.32-.14.11-.33.31-.35-.19-.34.14-.81-.08-1,.72v-.14c-.13.54-.17.08-.31.36a1.22,1.22,0,0,1,0-.13c-.14.54-.41.08-.52.31v-.33l-.28.07.1.07c-.05.92-.2-.58-.42,0-.19-.12-.44,1.9-.63,1.44-.11.43.11-.7,0-.37,0-.48.08-.3.05-.68-.15.22-.21-.49-.4-.18v-.37c-.25.67-.4-.51-.58.13-.25.3-.11-1.11-.38-.39l-.07-.51c-.1-.09-.1.62-.21.36s-.13-.26,0-.56c-.23-.51-.56.68-.86-.18-.11.61-.26.24-.34.7,0-.27-.34-.07-.11-.64,0,0,0,0,0,.07l0-.36c-.15-.7-.38.36-.57.24,0,.13.13.1.06.35l-.18-.06.06-.31-.26-.2v.38c-.12-.2-.12-.86-.31-.32-.09.3.09.52-.06.63a2.61,2.61,0,0,0-.62-.81c0,.43-.07.41-.14.49l0-.37c-.28.5,0-.83-.3-.43l0-.26-.12.77c-.27.72-.06-.78-.37.21.1-.06,0,.82-.12.65l.06-.36c-.07.07-.1.22-.14.14s.06-.52,0-.47l.1-.45-.23.65c-.11-.4-.37.07-.39-.44,0,0-.28-.27-.39.28.08-.34-.07-.48,0-.89-.11.38-.36.69-.42.27l0,0c-.31-.45-.63.54-.9,0,0,.43-.16.19-.16.74-.35.52-.5-1.16-.73.54-.15.08-.15-.41-.22-.5l0-.09a.69.69,0,0,1-.56.08c-.11.16-.17,1-.34.75.08-.31,0-.26-.07-.26s.07-.16,0-.38a.9.9,0,0,1-.06.21s0,0,0-.08-.11.2-.06.25a.85.85,0,0,0,0,.2c-.09-.41-.33,0-.31-.53-.35.11-.62.66-.91.85a1,1,0,0,1,.15-.63l-.21.09c0-.4.13-.22.19-.3-.21-.66-.53.63-.79,0l-.07.32,0-.05a1,1,0,0,1-.12.45c0-.35,0-.81-.11-.79-.1-.34-.32.16-.47.34.08.06,0,.26,0,.38s-.1-.34-.16-.19v-.47c0,.45-.2.48-.23.67,0-.35.12-.3.14-.56l-.43.06c-.16.35,0,.45-.06.86-.13.09-.26.42-.41.13l0,.42c-.25.32-.39.28-.56-.15a5.49,5.49,0,0,0-.77,3.63,2,2,0,0,0,.47,1C313.49,113.65,313.82,112.44,314.62,112.13Z"/><path class="cls-5" d="M346.49,105.23l.15.16A.17.17,0,0,0,346.49,105.23Z"/><path class="cls-5" d="M373.13,90.57a.27.27,0,0,0,0,0A.06.06,0,0,0,373.13,90.57Z"/><path class="cls-5" d="M352.48,110.38h0l0,0Z"/><path class="cls-5" d="M345.39,110.77c1.85,0,2.43.8,4.31.23a13.77,13.77,0,0,0,2.77-.62c.32-.69,1.18-.21,1.59-.82l.26.32c.14-.21.32-.37.53-.21v.1c.21-.32.53-.22.63-.38v.11l.31-.11,0,.16a1.69,1.69,0,0,1,1.29-.47l-.13-.42c1,.26,1.09-.68,2-.36l0,.1c.66-1.37,1.82.27,2.51-1.1-.08.17.13.19.15.3.43-.3.91-.55.61-1.35.34-.12.37.14.54.43a.58.58,0,0,1,.34-.74l-.06.19.69-.45-.43-.58c.47,0,.45.74.76.42l-.25-.53c.58-.12,1.28.48,2,.58a9.07,9.07,0,0,0,3-2.47,12.3,12.3,0,0,1,1.29-1.34,4.41,4.41,0,0,1,1.5-1l.39.23c.5.41-.27-1.11.22-.77l0-.39c.13,0,.33,0,.35.18.18-.16.11-.24.08-.49l.47.07c.84-.53.78-1.63,1.48-2.32,1.4-.44,2-2.73,2.31-4,.1-2,3.32-2.49,3.19-4.63.11,0,0-.24-.07-.27.27-.47.55-.95.81-1.43a7.53,7.53,0,0,0,.83-3.15c-.07-1.39-1.1-2.19-4.67-.66l-.11-.09c-.65.63-.94,1.05-.55,1.88-.82-.29-.38.58-.72.63l-.05,0c.36.75-1,.69-.66,1.39-.05,0-.26-.17-.22-.27-.07.36-.13.88-.59.67-.28.81-1.07,1.71-.66,2.58l-.1-.1c.3.54-.14.38-.08.82-.07,0-.11,0-.13,0,.28.58-.46.88-.41,1.23l-.29-.17-.3.6.2-.17c.72.59-.75.11-.54.83-.35.29,1,1.88.36,2,.21.44-.44-.58-.38-.11-.39-.28-.14-.31-.5-.47,0,.4-.72.14-.71.66l-.3-.22c.21.85-1,.45-.72,1.14-.11.62-1.06-.44-.89.44l-.52-.18c-.22.12.34.54,0,.57-.22-.23-.4.07-.52-.25-.74.06-.33,1.34-1.45,1.23.29.56-.23.53,0,1-.19-.19-.6.46-.65-.27,0-.06,0-.09.11,0l-.2-.31c-.74-.26-.34.74-.73.91.17,0,.28-.1.34.17l-.33.19-.12-.3a3.72,3.72,0,0,1-.55.16l.28.28c-.34,0-.76-.52-.72.09,0,.33.48.3.31.56a6.38,6.38,0,0,0-1.58,0c.23.36.11.41,0,.55l-.18-.33c-.24.68-.52-.67-.8-.09l-.07-.25.2.77c-.13.87-.52-.61-.61.52.17-.13.41.73.1.67l-.07-.36c-.1.12-.09.28-.21.24,0-.21-.15-.5-.32-.37l0-.47-.13.76c-.41-.25-.71.37-1-.08,0,0-.7,0-.68.55,0-.37-.36-.38-.38-.8,0,.43-.45.87-.76.53l0-.06c-.82-.2-1.1.9-1.89.56.13.41-.28.27-.06.79-.59.7-1.52-.83-1.43.91-.31.16-.46-.32-.65-.37l.06-.1a3.28,3.28,0,0,1-1.22.34c-.2.21-.1,1-.55.87.08-.33-.08-.25-.23-.22.09-.06.1-.18-.13-.36a.54.54,0,0,1-.08.22.32.32,0,0,1,0-.08c-.24.15-.18.24-.05.27a.39.39,0,0,0,.07.19c-.33-.36-.75.15-.86-.39-.76.23-1.25.87-1.88,1.15a.57.57,0,0,1,.19-.66l-.45.16c0-.4.24-.26.37-.36-.63-.58-1.06.78-1.78.26l-.1.33,0,0a.64.64,0,0,1-.19.47c-.13-.34-.08-.8-.4-.75-.29-.31-.71.24-1,.46.19,0,.15.24.08.37s-.29-.31-.4-.15l-.06-.47c.1.44-.38.52-.42.71-.12-.34.23-.32.24-.59l-1,.15c-.32.38.1.44,0,.87-.3.12-.58.47-1,.21l.14.41a.91.91,0,0,1-1.33-.05c-2.05,1.85-2.22,3-1.85,3.75a2.23,2.23,0,0,0,1.25,1C342.52,112.56,343.34,111.28,345.39,110.77Z"/><path class="cls-5" d="M278.64,111.69l-.4-.17C278.24,111.6,278.34,111.67,278.64,111.69Z"/><path class="cls-5" d="M177.07,111.46l-.1,0C177,111.49,177.06,111.48,177.07,111.46Z"/><path class="cls-5" d="M263,105.9h0l.1,0Z"/><path class="cls-5" d="M283.47,106.25c-5.37-.17-6.79-1-12.35-.61-2.65-.05-5.48.15-8.07.26-1.23.64-3.4,0-4.86.55l-.57-.36a2.34,2.34,0,0,1-1.6.11l0-.1a14.58,14.58,0,0,1-2,.25l0-.11-.91,0,.16-.15a11.94,11.94,0,0,1-3.84.18l.1.44c-2.54-.48-3.47.42-5.76-.16l0-.11c-2.9,1.15-4.58-.79-7.56.3.37-.14-.16-.22-.13-.33-1.37.12-2.84.19-2.87,1-1,0-.82-.27-.95-.6,0,.38-.87.53-1.65.55l.36-.14-2.24.12.44.71c-1.19-.21-.3-.86-1.44-.7V108c-1.64-.12-2.61-1-4.2-1.45-6.61-.28-13.73,1.18-19.88.1l-.27-.44c-.11-.64-1.7.94-1.93.34l-.72.29c-.2-.12-.62-.24-.27-.38a1.87,1.87,0,0,0-1.16.27l-.71-.41c-2.61-.33-4.84.42-7.58.24-3.29-.85-9.51-.16-13.1.22-5,.9-10.86-1.75-16-.73a.66.66,0,0,0-.6.18l-4.71-.17a67.58,67.58,0,0,0-9.27.37c-3.55.53-5,1.78,3.68,4.61l-.12.14c2.58.39,4.2.5,6-.18.27.87,2.12.13,2.72.42l-.06.07c1.59-.64,3.24.61,4.77,0-.06.07-.1.3-.45.31,1.11-.09,2.63-.26,2.7.24,2.65-.09,6.33.2,8-.59l-.12.14c1-.53,1.25-.06,2.33-.33.06.07.13.1.12.13,1.06-.52,3.07,0,3.92-.26l.05.33,2.09-.05-.78-.08c.28-.92,1.58.59,3.1,0,1.42.13,2.9-1.88,4.37-1.41.71-.42-.63.69.43.37,0,.48-.49.3-.23.68,1-.22,1.69.51,3,.2l0,.37c1.67-.67,3.13.52,4.24-.12,1.72-.29,1.14,1.12,2.93.4l.69.51c.76.09.55-.61,1.4-.36-.05.32,1.07.26.57.56,1.91.51,3.9-.68,6.42.18.55-.61,1.82-.24,2.23-.7.07.27,2.55.06,1.12.64-.12,0-.34,0-.32-.07l-.17.37c1.44.7,2.62-.37,4-.25-.42-.12-1-.09-.61-.34l1.32.06-.28.31,2,.19-.27-.38c1,.2,1.3.85,2.39.31.49-.3-.91-.52.11-.63a39.53,39.53,0,0,0,4.87.78c-.15-.43.29-.41.75-.5l.05.37c1.75-.51.64.82,2.37.42l-.15.26.46-.78c1.57-.74.84.78,2.58-.23-.69.06-.32-.82.52-.66l-.22.36c.47-.07.63-.23.94-.15-.28.19-.15.52.54.46l-.46.45,1.3-.66c1,.39,2.6-.1,3,.41,0,0,2.16.25,2.66-.31-.44.35.76.48.42.88a3.58,3.58,0,0,1,2.88-.29l-.13,0c2.45.42,4.19-.59,6.39-.07-.1-.43,1.06-.2.77-.75,2.27-.55,4.15,1.12,5-.59,1-.1,1.23.4,1.76.48l-.25.09a31.16,31.16,0,0,1,3.94-.13c.72-.17.83-1,2.12-.78-.42.32.11.26.59.26-.31.05-.4.17.23.38a.93.93,0,0,1,.35-.21s0,0,0,.08c.8-.12.66-.21.29-.25,0,0,0-.11-.13-.2.84.4,2.33,0,2.43.5,2.42-.14,4.14-.71,6.15-.93.23.28-.24.53-.82.64l1.43-.11c0,.4-.82.24-1.26.32,1.7.64,3.5-.67,5.5-.09l.41-.32.12.05c0-.17.44-.4.73-.46.28.35,0,.81,1,.78.78.33,2.21-.18,3.23-.38-.55-.05-.37-.25-.14-.38.49,0,.78.33,1.16.18l.05.47c-.2-.44,1.28-.49,1.47-.69.28.35-.76.31-.88.57l3-.09c1.05-.37-.2-.45.3-.86a7.45,7.45,0,0,1,2.91-.16l-.34-.42a7,7,0,0,1,4,.1c13-3.57,2.69-4.7,2.69-4.7C292.2,104.62,289.57,105.87,283.47,106.25Z"/><path class="cls-6" d="M16.87,136l0,.26C16.95,136.17,17,136.08,16.87,136Z"/><path class="cls-6" d="M61.84,154.54l0,0S61.84,154.52,61.84,154.54Z"/><path class="cls-6" d="M18.84,145.65h0Z"/><path class="cls-6" d="M11.23,137.89c.93,1.19,1.42,2,2,2.8A8.83,8.83,0,0,0,15.55,143a32,32,0,0,0,3.28,2.6c.9-.06,1.36,1.16,2.29,1.24v.47c.32,0,.64.13.73.45l-.08.07c.48,0,.73.45,1,.46l-.08.07.41.26-.16.07a3.73,3.73,0,0,1,1.75,1.11l.21-.38c.82,1.2,1.75.74,2.47,1.9l-.07.08c1.92-.13,1.74,2,3.74,1.82-.25,0,0,.24-.09.33.73.24,1.5.52,1.87-.25.49.23.29.42.22.75.15-.34.64-.29,1-.15l-.24.06,1.17.34,0-.75c.51.42-.17.87.47.92l.2-.55c.77.42,1,1.42,1.66,2.1a19.39,19.39,0,0,0,5.35,1,14.29,14.29,0,0,1,5,1.1l.08.46c0,.65,1-.82,1.06-.21l.41-.24c.09.13.29.28.09.4.34.07.36,0,.63-.19l.32.45c1.32.48,2.55-.15,4,.15,1.63,1,4.94.51,6.81.17,2.63-.81,5.61,1.83,8.32.74.09.09.31-.11.31-.19l2.45.07a16.58,16.58,0,0,0,4.79-.71c1.82-.71,2.37-2-2.12-4.45l.05-.14c-1.31-.3-2.12-.35-3,.37-.15-.86-1.07-.07-1.37-.35l0-.07c-.79.67-1.63-.55-2.39,0,0-.07,0-.31.22-.32-.55.11-1.32.28-1.35-.22-1.33.12-3.16-.19-4,.58l.06-.14c-.51.52-.63,0-1.19.3,0-.07-.06-.1-.06-.13-.56.51-1.54,0-2,.19v-.33H58.79l.39.1c-.2.91-.75-.63-1.56-.1-.7-.18-1.62,1.78-2.32,1.26-.4.39.38-.66-.18-.39,0-.48.28-.27.18-.67-.54.17-.8-.57-1.47-.32v-.37c-.91.59-1.51-.66-2.14-.09-.9.2-.43-1.17-1.41-.56l-.28-.55c-.36-.13-.35.57-.74.27.07-.31-.49-.33-.2-.59-.86-.63-2,.41-3.09-.65-.38.56-.92.08-1.21.5,0-.27-1.21-.3-.41-.72.07,0,.17,0,.14.1l.16-.34c-.53-.82-1.31.11-2-.16.17.17.44.2.21.4l-.61-.2.2-.27-.87-.41,0,.4c-.4-.31-.38-1-1-.6-.31.23.28.62-.22.6a14.14,14.14,0,0,0-2-1.43c-.07.43-.27.35-.5.36l.1-.36c-.95.2,0-.87-.89-.77l.16-.22-.48.65c-1,.4-.07-.85-1.21-.25.32.07-.19.82-.49.5l.24-.29c-.23,0-.36.09-.47,0,.2-.13.28-.44,0-.53l.38-.32-.83.34c-.26-.54-1.13-.47-1.07-1,0,0-.75-.7-1.24-.34.35-.19-.06-.6.28-.86-.42.21-1.26.07-1.3-.45h.08c-.73-1-2-.61-2.53-1.66-.22.38-.53-.14-.75.38-1.23-.23-.91-2.12-2.29-1-.46-.25-.22-.7-.37-.93h.15a7.15,7.15,0,0,1-1.58-1.17c-.38-.11-.94.46-1.31-.11.37-.1.13-.23-.06-.39.15.06.26,0,.16-.36a.55.55,0,0,1-.27,0s0,0,0-.06c-.38-.18-.39-.06-.28.09A.28.28,0,0,0,22,141c0-.59-.9-.75-.58-1.2a26.85,26.85,0,0,0-2.93-1.4c.1-.28.44-.31.74-.19l-.6-.4c.28-.29.46.1.68.19-.19-1.05-1.74-.7-2-1.81l-.37.09v-.08a.62.62,0,0,1-.57.07c.15-.35.57-.57.22-.89,0-.5-.86-.64-1.33-.88.13.23-.07.3-.23.3-.17-.17,0-.5-.23-.54l.34-.33c-.27.36-.76-.15-1-.09.18-.33.47.09.71,0-.64-.68-.31-.34-.93-1-.57-.18-.3.34-.78.4-.34-.3-.87-.48-.91-1.07l-.26.36a1.62,1.62,0,0,1-.83-1.75A29.56,29.56,0,0,0,8,128.58a1.16,1.16,0,0,0-1.46.14,2.73,2.73,0,0,0-.42,1.5,6.33,6.33,0,0,0,.06.94A6.14,6.14,0,0,0,8,135C8.87,135.91,10,136.72,11.23,137.89Z"/><path class="cls-6" d="M97.76,155.15l.07.17C97.82,155.24,97.8,155.18,97.76,155.15Z"/><path class="cls-6" d="M112.4,154.4v0A.07.07,0,0,0,112.4,154.4Z"/><path class="cls-6" d="M100.44,160.83h0v0Z"/><path class="cls-6" d="M97.55,160.6c.77.14,1,.94,1.78.54a2.75,2.75,0,0,0,1.11-.31c.12-.65.47,0,.64-.59l.1.35c.06-.19.13-.31.21-.13v.1c.09-.28.22-.13.26-.27v.11l.12-.06v.15c.16-.3.35-.33.53-.21l0-.43c.39.46.46-.45.82.11v.11c.34-1.17.69.74,1-.37,0,.14,0,.22,0,.33.19-.13.39-.21.35-1.07.14,0,.13.26.16.59,0-.37.09-.54.2-.56l0,.15.31-.14-.1-.7c.18.2.08.86.24.68l0-.59c.24.1.42,1,.66,1.41.93.21,1.88-1.32,2.78-.31l.05.44c0,.64.21-1,.26-.36l.09-.3a.62.62,0,0,1,0,.38c.09,0,.09-.08.16-.28l.11.4c.37.3.67-.48,1.06-.33.48.81,1.34,0,1.84-.39.71-1,1.54,1.59,2.26.5,0,.09.08-.11.08-.19l.66.1a1.67,1.67,0,0,0,1.31-.53c.5-.6.74-1.86-.47-4.55l0-.14c-.37-.35-.61-.42-.87.28,0-.86-.31-.09-.39-.37v-.07c-.23.66-.47-.56-.69,0,0-.07,0-.31.06-.32-.16.11-.38.3-.39-.2-.38.13-.92-.1-1.16.7l0-.14c-.14.54-.18.08-.33.36a1,1,0,0,1,0-.13c-.15.54-.44.09-.56.32v-.33l-.3.08.11.07c0,.92-.24-.57-.45,0-.21-.11-.39,1.92-.6,1.47-.09.43.08-.7-.07-.37,0-.48.07-.3,0-.68-.14.23-.25-.49-.43-.16v-.37c-.23.69-.46-.48-.61.17-.24.31-.19-1.1-.43-.37l-.11-.5c-.11-.08-.06.62-.19.38s-.16-.25-.1-.55c-.29-.49-.54.72-.94-.11-.06.62-.26.26-.3.72,0-.27-.37,0-.18-.62,0,0,0,0,0,.06v-.37c-.23-.69-.37.4-.58.3.07.12.15.08.1.34l-.19,0,0-.31-.29-.17.05.38c-.15-.19-.22-.84-.36-.29-.06.3.15.51,0,.63a2.59,2.59,0,0,0-.74-.74c0,.43,0,.42-.08.51l0-.37c-.23.53-.13-.82-.36-.39v-.26l0,.78c-.19.75-.16-.77-.36.25.1-.07.09.82,0,.66v-.36c-.06.08-.08.23-.13.16s0-.52-.1-.46l0-.45-.15.67c-.17-.38-.37.12-.46-.39,0,0-.33-.23-.37.33,0-.35-.14-.47-.11-.88-.06.4-.28.73-.4.32l0,0c-.38-.4-.57.62-.92.12,0,.43-.14.21-.06.76-.29.57-.68-1.08-.68.63-.14.1-.2-.39-.29-.47l0-.09a.72.72,0,0,1-.56.16c-.09.17,0,1-.25.79,0-.32,0-.26-.1-.25s0-.17-.06-.37a.89.89,0,0,1,0,.21v-.08c-.11.12-.08.22,0,.26a.82.82,0,0,0,0,.2c-.15-.4-.33.05-.39-.49-.34.15-.54.73-.81,1a1,1,0,0,1,.07-.64l-.2.12c0-.4.1-.24.16-.33-.3-.63-.45.69-.79.12l0,.32,0-.05a1,1,0,0,1-.07.46c-.07-.35-.07-.8-.21-.77-.14-.33-.3.2-.43.4.08.05.08.25.05.37s-.14-.33-.18-.17l-.05-.47c.07.44-.14.5-.15.69-.07-.34.08-.31.08-.57l-.42.11c-.12.37.07.44,0,.86-.12.1-.22.44-.4.18l.09.41c-.22.35-.37.32-.58-.09a5.56,5.56,0,0,0-.51,3.69,1.89,1.89,0,0,0,.6,1C96.48,162.25,96.72,161,97.55,160.6Z"/><path class="cls-6" d="M409.21,122.63l-.36.31C408.92,123,409,122.91,409.21,122.63Z"/><path class="cls-6" d="M314.57,161.94l-.1,0C314.54,162,314.56,162,314.57,161.94Z"/><path class="cls-6" d="M395,132.25v0s0-.07,0-.11Z"/><path class="cls-6" d="M406.22,115.93a21.76,21.76,0,0,1-2.86,5c-1,1.34-1.92,2.68-3.4,5-1.58,2-3.27,4.31-5,6.33-.37,1.38-2.34,2.43-3,3.86-.22,0-.42.1-.65.14a2.27,2.27,0,0,1-1.1,1.13l0-.1c-.37.69-1.1,1.13-1.29,1.48l0-.1a8.73,8.73,0,0,1-.65.62l0-.21a11.69,11.69,0,0,1-2.88,2.44l.33.29a9,9,0,0,0-2.47,1.59,5.45,5.45,0,0,1-2.42,1.31l0-.11a5.11,5.11,0,0,1-1.53,1.3,9.26,9.26,0,0,1-1.67.57,10.78,10.78,0,0,0-1.68.56,6.19,6.19,0,0,0-1.73,1.08c.29-.26-.23-.15-.24-.26a14.78,14.78,0,0,0-1.7.94c-.47.3-.75.63-.62,1-1,.31-.87,0-1.1-.27.12.35-.66.78-1.41,1l.3-.25c-.7.29-1.43.49-2.15.74l.62.56c-1.23.12-.53-.75-1.6-.28l.16.56c-1.65.34-2.83-.37-4.48-.42-6.56,1.12-13.7,3.36-20.18,3l-.32-.41c-.18-.63-1.67,1.11-2,.55l-.71.36c-.22-.09-.67-.18-.31-.35a2,2,0,0,0-1.17.39l-.77-.33c-2.74-.05-5,.93-7.84,1-3.5-.49-9.85.85-13.51,1.53a23.34,23.34,0,0,1-8.21.12,28.57,28.57,0,0,0-8.29-.14.69.69,0,0,0-.62.18c-1.62,0-3.25-.13-4.87-.2a79.46,79.46,0,0,0-9.63.16c-3.7.43-5.22,1.65,3.73,4.71l-.13.13c2.68.46,4.39.58,6.27-.06.27.87,2.22.14,2.85.44l-.06.07c1.67-.64,3.4.62,5,0-.06.07-.1.31-.47.32,1.17-.11,2.76-.3,2.86.19,2.79-.14,6.71-.08,8.45-1l-.11.15c1-.6,1.31-.16,2.42-.5.07.06.15.09.14.12,1.06-.61,3.21-.31,4.08-.61l.08.33,2.18-.26h-.82c.21-.94,1.7.44,3.23-.3,1.49,0,2.82-2.17,4.39-1.87.69-.5-.58.76.48.32.08.47-.48.35-.17.7,1.05-.33,1.8.32,3.1-.12l.09.37c1.66-.84,3.3.18,4.38-.57,1.75-.47,1.29,1,3.08.09l.77.43c.8,0,.51-.67,1.41-.51,0,.32,1.13.15.65.5,2,.29,4-1.08,6.71-.54.51-.68,1.87-.45,2.25-1,.1.26,2.67-.29,1.25.48-.12.06-.35.08-.35,0l-.14.39c1.6.49,2.7-.7,4.21-.83-.46-.05-1,.07-.69-.24l1.4-.16-.24.35,2.1-.14-.35-.33c1,0,1.51.62,2.57-.13.46-.39-1.05-.33,0-.64.7,0,1.58,0,2.5,0s1.89-.14,2.77-.28c-.26-.38.21-.47.67-.66l.14.35c1.71-1,.88.62,2.6-.26l-.09.29.27-.88c1.42-1.17,1.11.54,2.62-1-.69.29-.58-.68.33-.81l-.11.42c.46-.23.57-.43.91-.46-.22.28,0,.55.71.25l-.33.58,1.12-1.07c1.16,0,2.59-1.14,3.2-.83l.36-.11a5.27,5.27,0,0,0,.81-.33c.6-.29,1.22-.67,1.35-1-.28.52,1,.07.8.6a4.38,4.38,0,0,1,1.19-1.07,2.92,2.92,0,0,1,1.5-.66l-.1.11c2.62-.92,3.65-2.89,5.95-3.8-.34-.29.81-.87.23-1.12a8.73,8.73,0,0,1,2.7-1.9c.79-.5,1.33-1,1.1-1.94.77-.81,1.26-.58,1.75-.9l-.14.24c.75-.74,1.17-1.27,1.59-1.71s.8-.83,1.35-1.37,0-1.29,1-2.17c-.06.54.27.09.61-.29-.18.28-.16.43.44.07a1,1,0,0,1,.1-.42s.05,0,.07,0c.48-.71.31-.67,0-.4,0,0-.09-.06-.24,0,.9-.39,1.59-1.88,2.08-1.62a42,42,0,0,0,3.31-5.77c.37,0,.28.51,0,1.09.27-.44.54-.87.8-1.33.33.24-.31.87-.52,1.3,1.61-1.15,1.59-3.5,3.15-5.1l-.07-.55.11-.09c-.15-.07-.13-.61,0-.92.45-.12.72.39,1.17-.61.69-.63.85-2.32,1-3.45-.26.56-.37.3-.4,0,.16-.51.61-.69.59-1.14l.47.09c-.49.07,0-1.5-.2-1.75.42-.21.08.89.28,1.1a29.44,29.44,0,0,0,.71-3.23c-.15-1.22-.48.13-.79-.49a12.72,12.72,0,0,1,.24-3.15l-.45.33a11.4,11.4,0,0,1,.13-4.26c-1.21-3.43-2.62-4.86-3.48-5.42s-1.3-.35-1.45.26a6.42,6.42,0,0,0-.14,2c0,.67.06,1.22.06,1.22,0,2.23.11,3.85.21,5.7A19.41,19.41,0,0,1,406.22,115.93Z"/></g></g></svg>