<svg xmlns="http://www.w3.org/2000/svg" viewBox="0 0 208.76 34.07"><defs><style>.cls-1{fill:#1b1b1b;}</style></defs><title>资源 102</title><g id="图层_2" data-name="图层 2"><g id="图层_1-2" data-name="图层 1"><path class="cls-1" d="M198.6.89l-.08.23C198.58,1,198.62.95,198.6.89Z"/><path class="cls-1" d="M207.64,17.28h0Z"/><path class="cls-1" d="M195.35,8.4h0l-.05,0Z"/><path class="cls-1" d="M193.8,6.31c.41.61-.16,1.59.64,1.64.17.28.58.33.91.45.72-.5.29.3.94-.06l-.3.38c.22-.12.39-.17.24,0l-.11.09c.33-.17.25.05.42,0l-.11.09.13,0-.16.11c.41-.14.53,0,.49.23l.44-.37c-.31.66.72,0,.3.73l-.12.08c1.5-.57-.53,1.08.9.6-.18.06-.24.18-.36.25.24.06.42.18,1.4-.41.07.13-.24.28-.61.52.43-.26.67-.25.75-.17l-.19.05.3.19.79-.52c-.15.29-1,.6-.71.63l.69-.38c0,.29-1,1-1.41,1.4,0,.46.59.71,1,1s.72.74.21,1.33l-.55.21c-.81.26,1.27-.15.52.11l.4,0a1.13,1.13,0,0,1-.48.17c0,.09.13.06.39.05l-.49.23c-.32.43.78.47.63.88-.5.32-.47.62-.22.9a5.15,5.15,0,0,0,1,.78c.68.3.17.73-.35,1.09s-1,.68-.29,1c-.12,0,.14.09.24.09l-.17.6a2.25,2.25,0,0,0,0,.43,1.46,1.46,0,0,0,.51.89,3.79,3.79,0,0,0,1.88.81,9.25,9.25,0,0,0,4.18-.32l.18.05c.55-.42.69-.76-.22-1.2,1.15.07.16-.4.54-.48l.09,0c-.86-.37.79-.59,0-.94.09,0,.41,0,.42.1-.14-.23-.4-.53.27-.53-.18-.53.14-1.3-1-1.57H208c-.74-.14-.13-.23-.51-.42l.17,0c-.73-.14-.16-.57-.48-.7l.44-.06-.14-.39-.08.16c-1.22.1.74-.4-.11-.58.1-.3-2.6-.11-2.06-.45-.58,0,.93-.07.47-.17.63-.13.41,0,.9-.13-.33-.13.58-.44.12-.59l.48-.11c-1-.1.49-.73-.4-.73-.48-.2,1.37-.59.34-.67l.61-.31c.06-.18-.82.13-.55-.12s.27-.3.68-.32c.51-.57-1.14-.43-.25-1.27-.81.18-.43-.23-1-.08.33-.14-.12-.49.71-.51.07,0,.07,0-.06.09l.47-.15c.76-.62-.68-.3-.65-.61-.11.14,0,.23-.37.29l0-.26.4-.11L207.1,9l-.44.26c.16-.28.92-.71.17-.6-.4.08-.55.46-.77.34a2.92,2.92,0,0,0,.48-1.32c-.49.29-.52.2-.66.18l.44-.24c-.78,0,.9-.63.25-.68l.32-.14-1,.42c-1,.22.81-.66-.52-.29.14.08-.92.61-.81.36L205,7.1c-.13,0-.32,0-.27-.05.25-.09.62-.33.47-.41l.56-.23-.9.24c.33-.44-.39-.36.14-.79,0,0,0-.55-.63-.21.43-.19.44-.49.93-.74-.5.2-1,.17-.66-.26l.07,0c.15-.74-1.14-.2-.86-1-.44.38-.34,0-.87.51-.81.12.6-1.6-1.22-.22-.22-.06.24-.53.26-.69l.12,0c-.39-.15-.48-.22-.63-.46-.26.05-1,.78-1,.44.35-.25.23-.26.16-.32.09,0,.21-.1.32-.39a1.21,1.21,0,0,1-.24.15l.07-.08c-.22,0-.29.12-.28.21a1.13,1.13,0,0,0-.17.21c.26-.5-.34-.27.13-.81-.46-.19-1.18.13-1.65.13a1.29,1.29,0,0,1,.67-.55l-.3-.06c.34-.41.32-.14.46-.17.29-.88-1.07.26-.88-.6l-.32.29,0-.07a1.43,1.43,0,0,1-.47.4c.24-.41.64-.86.47-1,.15-.46-.48-.07-.78,0,0,.12-.13.32-.26.43s.13-.45,0-.32l.34-.53c-.3.51-.56.4-.73.6.21-.42.34-.26.55-.54L197.08,0c-.42.3-.28.53-.65.95-.21,0-.57.31-.54-.12l-.23.51c-.48.22-.6.1-.52-.5A8.37,8.37,0,0,0,193,3a6,6,0,0,0-.84,1.73,3.7,3.7,0,0,0-.22,1.47c0,.69.2.68.57.53A3.42,3.42,0,0,1,193.8,6.31Z"/><path class="cls-1" d="M14.71,17.16,14.54,17C14.6,17.08,14.66,17.15,14.71,17.16Z"/><path class="cls-1" d="M7.4,28.88l0,0Z"/><path class="cls-1" d="M7.84,12.54h0l0-.06Z"/><path class="cls-1" d="M11.63,10.58c-1.08.31-1.94-.38-2.66.65a4.36,4.36,0,0,0-1.13,1.3c.35.79-.51.49-.25,1.21l-.41-.27c.09.25.12.45-.13.33L7,13.7c.14.37-.13.33-.06.51l-.1-.1-.09.17-.12-.16c.08.45-.07.67-.36.73l.44.38c-.82-.05,0,.87-.91.71l-.1-.09c.82,1.39-1.38.08-.59,1.44-.1-.17-.26-.15-.37-.24,0,.32-.13.6.8,1.25-.13.14-.38-.08-.76-.3.41.28.5.54.44.68l-.12-.16L5,19l.84.44c-.34,0-1-.57-.92-.27l.66.41c-.29.17-1.39-.3-2.06-.32-.47.49-.41,1.3-.46,2s-.1,1.34-1,1.65l-.57-.16c-.82-.28,1.08.76.32.53l.32.26a.8.8,0,0,1-.5-.12c-.07.11.06.16.27.34l-.55,0c-.55.38.27,1.09,0,1.55a.93.93,0,0,0-.67,1.16,4.37,4.37,0,0,0,.64,1.45c.55.57,0,1-.57,1.51s-1.09,1.07-.33,1.6c-.12,0,.15.12.25.12L.53,32a1.69,1.69,0,0,0,.1.66,2.06,2.06,0,0,0,.8,1.1,2.57,2.57,0,0,0,2,.2,22.18,22.18,0,0,0,3.9-1.54h.19c.4-.39.49-.58-.45-.78,1.15-.09.11-.29.48-.39h.09c-.89-.21.72-.43-.07-.63.09,0,.4,0,.43.07-.14-.15-.38-.36.29-.34-.14-.35.17-.79-.85-1.14l.18,0c-.7-.22-.08-.18-.42-.38H7.4c-.68-.25,0-.44-.33-.61l.44.07L7.45,28l-.11.09c-1.2-.27.78-.07.06-.43.2-.15-2.38-1-1.74-1.08-.53-.25.88.32.49.06a8.66,8.66,0,0,0,.87.26c-.26-.23.69-.07.31-.36l.48.13c-.81-.49.76-.23,0-.63-.31-.36,1.45.32.61-.23l.66.14c.13-.06-.75-.35-.41-.35.4.15.36,0,.72.19.71,0-.67-.83.49-.7-.73-.4-.21-.36-.75-.66.33.14.19-.29.82.21.05,0,0,.06-.1,0l.43.23c.9.23-.31-.51-.09-.62-.17,0-.17.06-.44-.13L9.88,24l.35.22.33-.11-.47-.21c.29,0,1.07.39.5-.09-.32-.25-.66-.22-.73-.42a4.63,4.63,0,0,0,1.21,0c-.5-.28-.45-.32-.52-.43l.43.25c-.47-.56,1,.51.62,0l.28.2L11,22.8c-.72-.72.92.48-.08-.46,0,.13-.93-.57-.69-.56l.38.3c-.05-.11-.2-.24-.1-.22.19.18.56.41.55.29l.46.39-.62-.64c.5.19.1-.36.68,0,0,0,.43,0-.12-.53.33.33.56.31,1,.68-.37-.38-.58-.82-.08-.53l0,.05c.63.14-.23-.91.47-.66-.44-.38-.1-.28-.67-.76-.33-.75,1.46.67-.08-1,0-.19.5.26.63.3l.06.11c.06-.32.1-.39.28-.48-.08-.23-.78-1-.46-1,.23.35.24.25.29.21s.1.2.35.36a1.49,1.49,0,0,1-.14-.24l.07.08c0-.18-.11-.27-.19-.28a1.47,1.47,0,0,0-.18-.19c.44.34.23-.24.7.31.15-.33-.13-1.1,0-1.49a1.65,1.65,0,0,1,.4.75l.09-.22c.31.44.09.31.1.43.69.58-.1-1,.59-.48l-.19-.39.05,0a1.73,1.73,0,0,1-.24-.56c.29.37.58.91.68.81.32.32.13-.36.13-.64-.11,0-.22-.27-.27-.42s.33.34.27.14l.32.54c-.32-.5-.16-.64-.26-.88.26.39.1.4.26.72l.32-.28c-.09-.49-.3-.51-.5-1,.06-.18,0-.64.3-.38l-.29-.47c.05-.51.25-.52.65-.07a19,19,0,0,0-.2-3.07,5.59,5.59,0,0,0-.63-1.82,2.19,2.19,0,0,0-1.19-1,.92.92,0,0,0-1.39.38A7.41,7.41,0,0,1,11.63,10.58Z"/></g></g></svg>